%TF.GenerationSoftware,KiCad,Pcbnew,8.0.6-8.0.6-0~ubuntu24.04.1*%
%TF.CreationDate,2024-10-23T10:13:35-04:00*%
%TF.ProjectId,ta-expt-v2,74612d65-7870-4742-9d76-322e6b696361,rev?*%
%TF.SameCoordinates,Original*%
%TF.FileFunction,Copper,L3,Inr*%
%TF.FilePolarity,Positive*%
%FSLAX46Y46*%
G04 Gerber Fmt 4.6, Leading zero omitted, Abs format (unit mm)*
G04 Created by KiCad (PCBNEW 8.0.6-8.0.6-0~ubuntu24.04.1) date 2024-10-23 10:13:35*
%MOMM*%
%LPD*%
G01*
G04 APERTURE LIST*
%TA.AperFunction,ComponentPad*%
%ADD10O,2.100000X1.000000*%
%TD*%
%TA.AperFunction,ComponentPad*%
%ADD11O,1.600000X1.000000*%
%TD*%
%TA.AperFunction,ComponentPad*%
%ADD12C,1.540000*%
%TD*%
%TA.AperFunction,ComponentPad*%
%ADD13C,2.540000*%
%TD*%
%TA.AperFunction,ViaPad*%
%ADD14C,0.457200*%
%TD*%
G04 APERTURE END LIST*
D10*
%TO.N,unconnected-(J3-SHIELD-PadS1)*%
%TO.C,J3*%
X140390000Y-103680000D03*
D11*
X136210000Y-103680000D03*
D10*
X140390000Y-112320000D03*
D11*
X136210000Y-112320000D03*
%TD*%
D12*
%TO.N,VDD*%
%TO.C,J7*%
X135950000Y-116890000D03*
%TO.N,GND*%
X135950000Y-119430000D03*
%TO.N,/SWDIO*%
X135950000Y-121970000D03*
%TO.N,/SWCLK*%
X135950000Y-124510000D03*
%TD*%
%TO.N,unconnected-(J8-Pin_1-Pad1)*%
%TO.C,J8*%
X135950000Y-127050000D03*
%TO.N,unconnected-(J8-Pin_2-Pad2)*%
X138490000Y-127050000D03*
%TO.N,unconnected-(J8-Pin_3-Pad3)*%
X141030000Y-127050000D03*
%TO.N,unconnected-(J8-Pin_4-Pad4)*%
X143570000Y-127050000D03*
%TO.N,unconnected-(J8-Pin_5-Pad5)*%
X146110000Y-127050000D03*
%TO.N,unconnected-(J8-Pin_6-Pad6)*%
X148650000Y-127050000D03*
%TO.N,unconnected-(J8-Pin_7-Pad7)*%
X151190000Y-127050000D03*
%TO.N,/BOOT0*%
X153730000Y-127050000D03*
%TO.N,/LPUART_CTS*%
X156270000Y-127050000D03*
%TO.N,/LPUART_TX*%
X158810000Y-127050000D03*
%TO.N,/LPUART_RX*%
X161350000Y-127050000D03*
%TO.N,/LPUART_RTS*%
X163890000Y-127050000D03*
%TO.N,unconnected-(J8-Pin_13-Pad13)*%
X166430000Y-127050000D03*
%TO.N,unconnected-(J8-Pin_14-Pad14)*%
X168970000Y-127050000D03*
%TO.N,unconnected-(J8-Pin_15-Pad15)*%
X171510000Y-127050000D03*
%TO.N,unconnected-(J8-Pin_16-Pad16)*%
X174050000Y-127050000D03*
%TD*%
%TO.N,unconnected-(J1-Pin_2-Pad2)*%
%TO.C,J1*%
X174050000Y-124510000D03*
%TO.N,GND*%
X174050000Y-121970000D03*
%TO.N,unconnected-(J1-Pin_4-Pad4)*%
X174050000Y-119430000D03*
%TO.N,unconnected-(J1-Pin_5-Pad5)*%
X174050000Y-116890000D03*
%TD*%
%TO.N,unconnected-(J2-Pin_1-Pad1)*%
%TO.C,J2*%
X135950000Y-99110000D03*
%TO.N,GND*%
X135950000Y-96570000D03*
%TO.N,unconnected-(J2-Pin_3-Pad3)*%
X135950000Y-94030000D03*
%TO.N,unconnected-(J2-Pin_4-Pad4)*%
X135950000Y-91490000D03*
%TD*%
D13*
%TO.N,GND*%
%TO.C,J6*%
X139000000Y-92000000D03*
X171000000Y-92000000D03*
X139000000Y-124000000D03*
X171000000Y-124000000D03*
%TD*%
D12*
%TO.N,unconnected-(J4-Pin_2-Pad2)*%
%TO.C,J4*%
X174050000Y-99110000D03*
%TO.N,unconnected-(J4-Pin_3-Pad3)*%
X174050000Y-96570000D03*
%TO.N,unconnected-(J4-Pin_4-Pad4)*%
X174050000Y-94030000D03*
%TO.N,unconnected-(J4-Pin_5-Pad5)*%
X174050000Y-91490000D03*
%TD*%
%TO.N,unconnected-(J9-Pin_1-Pad1)*%
%TO.C,J9*%
X135950000Y-88950000D03*
%TO.N,unconnected-(J9-Pin_2-Pad2)*%
X138490000Y-88950000D03*
%TO.N,GND*%
X141030000Y-88950000D03*
%TO.N,unconnected-(J9-Pin_4-Pad4)*%
X143570000Y-88950000D03*
%TO.N,unconnected-(J9-Pin_5-Pad5)*%
X146110000Y-88950000D03*
%TO.N,unconnected-(J9-Pin_6-Pad6)*%
X148650000Y-88950000D03*
%TO.N,/NRST*%
X151190000Y-88950000D03*
%TO.N,/USART1_CK*%
X153730000Y-88950000D03*
%TO.N,/USART1_CTS*%
X156270000Y-88950000D03*
%TO.N,/USART1_TX*%
X158810000Y-88950000D03*
%TO.N,/USART1_RX*%
X161350000Y-88950000D03*
%TO.N,/USART1_RTS*%
X163890000Y-88950000D03*
%TO.N,unconnected-(J9-Pin_13-Pad13)*%
X166430000Y-88950000D03*
%TO.N,unconnected-(J9-Pin_14-Pad14)*%
X168970000Y-88950000D03*
%TO.N,unconnected-(J9-Pin_15-Pad15)*%
X171510000Y-88950000D03*
%TO.N,unconnected-(J9-Pin_16-Pad16)*%
X174050000Y-88950000D03*
%TD*%
D14*
%TO.N,GND*%
X143200000Y-102400000D03*
X169800000Y-98950000D03*
X146100000Y-118700000D03*
X164400000Y-113200000D03*
X175700000Y-101700000D03*
X166450000Y-103400000D03*
X165950000Y-98950000D03*
X142400000Y-111350000D03*
X166400000Y-121850000D03*
X167700000Y-98950000D03*
X140350000Y-100100000D03*
X164300000Y-98900000D03*
X147500000Y-99100000D03*
X166850000Y-113200000D03*
X143350000Y-97000000D03*
X158500000Y-114600000D03*
X161900000Y-104500000D03*
X159500000Y-109500000D03*
X148000000Y-96700000D03*
X161900000Y-115300000D03*
X158500000Y-101350000D03*
X166400000Y-108400000D03*
X146400000Y-113500000D03*
X164250000Y-106500000D03*
X160700000Y-96300000D03*
X151750000Y-119250000D03*
X147500000Y-123900000D03*
X144950000Y-92650000D03*
X145600000Y-123900000D03*
X169800000Y-94650000D03*
X143900000Y-113900000D03*
X164100000Y-108200000D03*
X159100000Y-97400000D03*
X148800000Y-91200000D03*
X141350000Y-102500000D03*
X164250000Y-104700000D03*
%TO.N,/VDD_FILT*%
X160500000Y-115300000D03*
X158500000Y-99150000D03*
X155500000Y-120500000D03*
X156400000Y-95200000D03*
X169600000Y-101650000D03*
X166900000Y-92500000D03*
X145950000Y-98100000D03*
X141450000Y-116900000D03*
X168400000Y-94600000D03*
X147050000Y-113000000D03*
X159000000Y-113750000D03*
X162150000Y-109750000D03*
X168650000Y-98850000D03*
X145600000Y-115600000D03*
%TO.N,Net-(IC3-PC15-OSC32_OUT)*%
X163400000Y-113200000D03*
X164600000Y-111650000D03*
%TO.N,/NRST*%
X158350000Y-107300000D03*
X152900000Y-98900000D03*
%TO.N,/LDO_OUT*%
X161850000Y-111700000D03*
X151050000Y-98950000D03*
X159150000Y-110400000D03*
X157075000Y-107725000D03*
%TO.N,/USART1_RX*%
X147350000Y-111000000D03*
%TO.N,/I2C3_SDA*%
X173350000Y-107400000D03*
X154000000Y-116850000D03*
%TO.N,/DCMI_VSYNC*%
X155500000Y-114650000D03*
X172350000Y-105500000D03*
%TO.N,/QUADSPI_BK2_IO2*%
X162330500Y-99569500D03*
X159800000Y-95050000D03*
%TO.N,/DCMI_D5*%
X155000000Y-116800000D03*
X174200000Y-114000000D03*
%TO.N,/LPUART_TX*%
X148000000Y-101350000D03*
%TO.N,/DCMI_D8*%
X158500000Y-111150000D03*
X173450000Y-108000000D03*
%TO.N,/LPUART_CTS*%
X146750000Y-102500000D03*
%TO.N,/USART1_TX*%
X146800000Y-110500000D03*
X158800000Y-87000000D03*
%TO.N,/DCMI_D7*%
X157750000Y-114400000D03*
X172300000Y-109800000D03*
%TO.N,/I2C3_SCL*%
X161750000Y-107000000D03*
X169000000Y-104250000D03*
%TO.N,/LPUART_RX*%
X148500000Y-101800000D03*
%TO.N,/Control*%
X172850000Y-103500000D03*
X167900000Y-110100000D03*
X162050000Y-112500000D03*
X156400000Y-93050000D03*
%TO.N,/SWCLK*%
X144800000Y-116150000D03*
X146400000Y-115600000D03*
%TO.N,/DCMI_D9*%
X154550000Y-114150000D03*
X168950000Y-108000000D03*
%TO.N,/USART1_CK*%
X146350000Y-110000000D03*
X153700000Y-86900000D03*
%TO.N,/DCMI_D4*%
X170950000Y-114950000D03*
X159100000Y-111650000D03*
%TO.N,/LPUART_RTS*%
X145250000Y-101300000D03*
%TO.N,/DCMI_PIXCLK*%
X168900000Y-106750000D03*
X156500000Y-101350000D03*
%TO.N,/DCMI_HSYNC*%
X157500000Y-101300000D03*
X173400000Y-105500000D03*
%TO.N,/DCMI_D2*%
X157400000Y-109450000D03*
X173250000Y-111750000D03*
%TO.N,/QUADSPI_BK2_IO1*%
X163950000Y-97850000D03*
X159800000Y-93750000D03*
%TO.N,/DCMI_D6*%
X156500000Y-114650000D03*
X173150000Y-109250000D03*
%TO.N,/DCMI_D3*%
X157900000Y-110500000D03*
X172200000Y-111750000D03*
%TO.N,/QUADSPI_BK2_NCS*%
X158200000Y-91400000D03*
X151000000Y-114600000D03*
%TD*%
%TA.AperFunction,Conductor*%
%TO.N,GND*%
G36*
X153331828Y-86545185D02*
G01*
X153377583Y-86597989D01*
X153387527Y-86667147D01*
X153375274Y-86705795D01*
X153336498Y-86781894D01*
X153336498Y-86781895D01*
X153317794Y-86899996D01*
X153317794Y-86900003D01*
X153336498Y-87018104D01*
X153336498Y-87018105D01*
X153390790Y-87124657D01*
X153475342Y-87209209D01*
X153475344Y-87209210D01*
X153475345Y-87209211D01*
X153581892Y-87263500D01*
X153581893Y-87263500D01*
X153581895Y-87263501D01*
X153699997Y-87282206D01*
X153700000Y-87282206D01*
X153700003Y-87282206D01*
X153818104Y-87263501D01*
X153818105Y-87263501D01*
X153818106Y-87263500D01*
X153818108Y-87263500D01*
X153924655Y-87209211D01*
X154009211Y-87124655D01*
X154063500Y-87018108D01*
X154063500Y-87018106D01*
X154063501Y-87018105D01*
X154063501Y-87018104D01*
X154082206Y-86900003D01*
X154082206Y-86899996D01*
X154063501Y-86781895D01*
X154063501Y-86781894D01*
X154055584Y-86766356D01*
X154024725Y-86705794D01*
X154011830Y-86637126D01*
X154038106Y-86572385D01*
X154095212Y-86532128D01*
X154135211Y-86525500D01*
X158441271Y-86525500D01*
X158508310Y-86545185D01*
X158554065Y-86597989D01*
X158564009Y-86667147D01*
X158534984Y-86730703D01*
X158528952Y-86737181D01*
X158490790Y-86775342D01*
X158436498Y-86881894D01*
X158436498Y-86881895D01*
X158417794Y-86999996D01*
X158417794Y-87000003D01*
X158436498Y-87118104D01*
X158436498Y-87118105D01*
X158490790Y-87224657D01*
X158575342Y-87309209D01*
X158575344Y-87309210D01*
X158575345Y-87309211D01*
X158681892Y-87363500D01*
X158681893Y-87363500D01*
X158681895Y-87363501D01*
X158799997Y-87382206D01*
X158800000Y-87382206D01*
X158800003Y-87382206D01*
X158918104Y-87363501D01*
X158918105Y-87363501D01*
X158918106Y-87363500D01*
X158918108Y-87363500D01*
X159024655Y-87309211D01*
X159109211Y-87224655D01*
X159163500Y-87118108D01*
X159163500Y-87118106D01*
X159163501Y-87118105D01*
X159163501Y-87118104D01*
X159182206Y-87000003D01*
X159182206Y-86999996D01*
X159163501Y-86881895D01*
X159163501Y-86881894D01*
X159112548Y-86781895D01*
X159109211Y-86775345D01*
X159109210Y-86775344D01*
X159109209Y-86775342D01*
X159071048Y-86737181D01*
X159037563Y-86675858D01*
X159042547Y-86606166D01*
X159084419Y-86550233D01*
X159149883Y-86525816D01*
X159158729Y-86525500D01*
X173933069Y-86525500D01*
X173935677Y-86525891D01*
X173952122Y-86525628D01*
X173952124Y-86525630D01*
X173956863Y-86525554D01*
X173963887Y-86525642D01*
X174236256Y-86536882D01*
X174250366Y-86538277D01*
X174516074Y-86579993D01*
X174529932Y-86582989D01*
X174789145Y-86654789D01*
X174802575Y-86659351D01*
X175051885Y-86760290D01*
X175064697Y-86766351D01*
X175300856Y-86895116D01*
X175312898Y-86902606D01*
X175532789Y-87057496D01*
X175543901Y-87066316D01*
X175744665Y-87245317D01*
X175754682Y-87255334D01*
X175851123Y-87363500D01*
X175933682Y-87456097D01*
X175942503Y-87467210D01*
X176097391Y-87687098D01*
X176104885Y-87699146D01*
X176233643Y-87935292D01*
X176239711Y-87948118D01*
X176340648Y-88197426D01*
X176345211Y-88210859D01*
X176417008Y-88470062D01*
X176420007Y-88483931D01*
X176461721Y-88749629D01*
X176463117Y-88763748D01*
X176474356Y-89036078D01*
X176474445Y-89043167D01*
X176474107Y-89064322D01*
X176474500Y-89066930D01*
X176474500Y-126933146D01*
X176474108Y-126935761D01*
X176474444Y-126956836D01*
X176474355Y-126963921D01*
X176463117Y-127236251D01*
X176461721Y-127250370D01*
X176420007Y-127516068D01*
X176417008Y-127529937D01*
X176345211Y-127789140D01*
X176340648Y-127802573D01*
X176239711Y-128051881D01*
X176233643Y-128064707D01*
X176104885Y-128300853D01*
X176097391Y-128312901D01*
X175942503Y-128532789D01*
X175933682Y-128543902D01*
X175754690Y-128744657D01*
X175744657Y-128754690D01*
X175543902Y-128933682D01*
X175532789Y-128942503D01*
X175312901Y-129097391D01*
X175300853Y-129104885D01*
X175064707Y-129233643D01*
X175051881Y-129239711D01*
X174802573Y-129340648D01*
X174789140Y-129345211D01*
X174529937Y-129417008D01*
X174516068Y-129420007D01*
X174250370Y-129461721D01*
X174236251Y-129463117D01*
X173963920Y-129474356D01*
X173956831Y-129474445D01*
X173935678Y-129474107D01*
X173933069Y-129474500D01*
X136066931Y-129474500D01*
X136064321Y-129474107D01*
X136043168Y-129474445D01*
X136036079Y-129474356D01*
X135763748Y-129463117D01*
X135749629Y-129461721D01*
X135483931Y-129420007D01*
X135470062Y-129417008D01*
X135210859Y-129345211D01*
X135197426Y-129340648D01*
X134948118Y-129239711D01*
X134935292Y-129233643D01*
X134912513Y-129221223D01*
X134699146Y-129104885D01*
X134687098Y-129097391D01*
X134467210Y-128942503D01*
X134456097Y-128933682D01*
X134405262Y-128888358D01*
X134255334Y-128754682D01*
X134245317Y-128744665D01*
X134066316Y-128543901D01*
X134057496Y-128532789D01*
X133902608Y-128312901D01*
X133895114Y-128300853D01*
X133846182Y-128211110D01*
X133766351Y-128064697D01*
X133760288Y-128051881D01*
X133718027Y-127947500D01*
X133659351Y-127802573D01*
X133654788Y-127789140D01*
X133635815Y-127720645D01*
X133582989Y-127529932D01*
X133579992Y-127516068D01*
X133564447Y-127417057D01*
X133538277Y-127250366D01*
X133536882Y-127236251D01*
X133529196Y-127050000D01*
X135047556Y-127050000D01*
X135067277Y-127237630D01*
X135125575Y-127417055D01*
X135219906Y-127580442D01*
X135346144Y-127720645D01*
X135346147Y-127720647D01*
X135498778Y-127831539D01*
X135671124Y-127908273D01*
X135671129Y-127908275D01*
X135855669Y-127947500D01*
X135855670Y-127947500D01*
X136044329Y-127947500D01*
X136044331Y-127947500D01*
X136228871Y-127908275D01*
X136401222Y-127831539D01*
X136553853Y-127720647D01*
X136680093Y-127580443D01*
X136774424Y-127417057D01*
X136832723Y-127237629D01*
X136852444Y-127050000D01*
X137587556Y-127050000D01*
X137607277Y-127237630D01*
X137665575Y-127417055D01*
X137759906Y-127580442D01*
X137886144Y-127720645D01*
X137886147Y-127720647D01*
X138038778Y-127831539D01*
X138211124Y-127908273D01*
X138211129Y-127908275D01*
X138395669Y-127947500D01*
X138395670Y-127947500D01*
X138584329Y-127947500D01*
X138584331Y-127947500D01*
X138768871Y-127908275D01*
X138941222Y-127831539D01*
X139093853Y-127720647D01*
X139220093Y-127580443D01*
X139314424Y-127417057D01*
X139372723Y-127237629D01*
X139392444Y-127050000D01*
X140127556Y-127050000D01*
X140147277Y-127237630D01*
X140205575Y-127417055D01*
X140299906Y-127580442D01*
X140426144Y-127720645D01*
X140426147Y-127720647D01*
X140578778Y-127831539D01*
X140751124Y-127908273D01*
X140751129Y-127908275D01*
X140935669Y-127947500D01*
X140935670Y-127947500D01*
X141124329Y-127947500D01*
X141124331Y-127947500D01*
X141308871Y-127908275D01*
X141481222Y-127831539D01*
X141633853Y-127720647D01*
X141760093Y-127580443D01*
X141854424Y-127417057D01*
X141912723Y-127237629D01*
X141932444Y-127050000D01*
X142667556Y-127050000D01*
X142687277Y-127237630D01*
X142745575Y-127417055D01*
X142839906Y-127580442D01*
X142966144Y-127720645D01*
X142966147Y-127720647D01*
X143118778Y-127831539D01*
X143291124Y-127908273D01*
X143291129Y-127908275D01*
X143475669Y-127947500D01*
X143475670Y-127947500D01*
X143664329Y-127947500D01*
X143664331Y-127947500D01*
X143848871Y-127908275D01*
X144021222Y-127831539D01*
X144173853Y-127720647D01*
X144300093Y-127580443D01*
X144394424Y-127417057D01*
X144452723Y-127237629D01*
X144472444Y-127050000D01*
X145207556Y-127050000D01*
X145227277Y-127237630D01*
X145285575Y-127417055D01*
X145379906Y-127580442D01*
X145506144Y-127720645D01*
X145506147Y-127720647D01*
X145658778Y-127831539D01*
X145831124Y-127908273D01*
X145831129Y-127908275D01*
X146015669Y-127947500D01*
X146015670Y-127947500D01*
X146204329Y-127947500D01*
X146204331Y-127947500D01*
X146388871Y-127908275D01*
X146561222Y-127831539D01*
X146713853Y-127720647D01*
X146840093Y-127580443D01*
X146934424Y-127417057D01*
X146992723Y-127237629D01*
X147012444Y-127050000D01*
X147747556Y-127050000D01*
X147767277Y-127237630D01*
X147825575Y-127417055D01*
X147919906Y-127580442D01*
X148046144Y-127720645D01*
X148046147Y-127720647D01*
X148198778Y-127831539D01*
X148371124Y-127908273D01*
X148371129Y-127908275D01*
X148555669Y-127947500D01*
X148555670Y-127947500D01*
X148744329Y-127947500D01*
X148744331Y-127947500D01*
X148928871Y-127908275D01*
X149101222Y-127831539D01*
X149253853Y-127720647D01*
X149380093Y-127580443D01*
X149474424Y-127417057D01*
X149532723Y-127237629D01*
X149552444Y-127050000D01*
X150287556Y-127050000D01*
X150307277Y-127237630D01*
X150365575Y-127417055D01*
X150459906Y-127580442D01*
X150586144Y-127720645D01*
X150586147Y-127720647D01*
X150738778Y-127831539D01*
X150911124Y-127908273D01*
X150911129Y-127908275D01*
X151095669Y-127947500D01*
X151095670Y-127947500D01*
X151284329Y-127947500D01*
X151284331Y-127947500D01*
X151468871Y-127908275D01*
X151641222Y-127831539D01*
X151793853Y-127720647D01*
X151920093Y-127580443D01*
X152014424Y-127417057D01*
X152072723Y-127237629D01*
X152092444Y-127050000D01*
X152827556Y-127050000D01*
X152847277Y-127237630D01*
X152905575Y-127417055D01*
X152999906Y-127580442D01*
X153126144Y-127720645D01*
X153126147Y-127720647D01*
X153278778Y-127831539D01*
X153451124Y-127908273D01*
X153451129Y-127908275D01*
X153635669Y-127947500D01*
X153635670Y-127947500D01*
X153824329Y-127947500D01*
X153824331Y-127947500D01*
X154008871Y-127908275D01*
X154181222Y-127831539D01*
X154333853Y-127720647D01*
X154460093Y-127580443D01*
X154554424Y-127417057D01*
X154612723Y-127237629D01*
X154632444Y-127050000D01*
X155367556Y-127050000D01*
X155387277Y-127237630D01*
X155445575Y-127417055D01*
X155539906Y-127580442D01*
X155666144Y-127720645D01*
X155666147Y-127720647D01*
X155818778Y-127831539D01*
X155991124Y-127908273D01*
X155991129Y-127908275D01*
X156175669Y-127947500D01*
X156175670Y-127947500D01*
X156364329Y-127947500D01*
X156364331Y-127947500D01*
X156548871Y-127908275D01*
X156721222Y-127831539D01*
X156873853Y-127720647D01*
X157000093Y-127580443D01*
X157094424Y-127417057D01*
X157152723Y-127237629D01*
X157172444Y-127050000D01*
X157907556Y-127050000D01*
X157927277Y-127237630D01*
X157985575Y-127417055D01*
X158079906Y-127580442D01*
X158206144Y-127720645D01*
X158206147Y-127720647D01*
X158358778Y-127831539D01*
X158531124Y-127908273D01*
X158531129Y-127908275D01*
X158715669Y-127947500D01*
X158715670Y-127947500D01*
X158904329Y-127947500D01*
X158904331Y-127947500D01*
X159088871Y-127908275D01*
X159261222Y-127831539D01*
X159413853Y-127720647D01*
X159540093Y-127580443D01*
X159634424Y-127417057D01*
X159692723Y-127237629D01*
X159712444Y-127050000D01*
X160447556Y-127050000D01*
X160467277Y-127237630D01*
X160525575Y-127417055D01*
X160619906Y-127580442D01*
X160746144Y-127720645D01*
X160746147Y-127720647D01*
X160898778Y-127831539D01*
X161071124Y-127908273D01*
X161071129Y-127908275D01*
X161255669Y-127947500D01*
X161255670Y-127947500D01*
X161444329Y-127947500D01*
X161444331Y-127947500D01*
X161628871Y-127908275D01*
X161801222Y-127831539D01*
X161953853Y-127720647D01*
X162080093Y-127580443D01*
X162174424Y-127417057D01*
X162232723Y-127237629D01*
X162252444Y-127050000D01*
X162987556Y-127050000D01*
X163007277Y-127237630D01*
X163065575Y-127417055D01*
X163159906Y-127580442D01*
X163286144Y-127720645D01*
X163286147Y-127720647D01*
X163438778Y-127831539D01*
X163611124Y-127908273D01*
X163611129Y-127908275D01*
X163795669Y-127947500D01*
X163795670Y-127947500D01*
X163984329Y-127947500D01*
X163984331Y-127947500D01*
X164168871Y-127908275D01*
X164341222Y-127831539D01*
X164493853Y-127720647D01*
X164620093Y-127580443D01*
X164714424Y-127417057D01*
X164772723Y-127237629D01*
X164792444Y-127050000D01*
X165527556Y-127050000D01*
X165547277Y-127237630D01*
X165605575Y-127417055D01*
X165699906Y-127580442D01*
X165826144Y-127720645D01*
X165826147Y-127720647D01*
X165978778Y-127831539D01*
X166151124Y-127908273D01*
X166151129Y-127908275D01*
X166335669Y-127947500D01*
X166335670Y-127947500D01*
X166524329Y-127947500D01*
X166524331Y-127947500D01*
X166708871Y-127908275D01*
X166881222Y-127831539D01*
X167033853Y-127720647D01*
X167160093Y-127580443D01*
X167254424Y-127417057D01*
X167312723Y-127237629D01*
X167332444Y-127050000D01*
X168067556Y-127050000D01*
X168087277Y-127237630D01*
X168145575Y-127417055D01*
X168239906Y-127580442D01*
X168366144Y-127720645D01*
X168366147Y-127720647D01*
X168518778Y-127831539D01*
X168691124Y-127908273D01*
X168691129Y-127908275D01*
X168875669Y-127947500D01*
X168875670Y-127947500D01*
X169064329Y-127947500D01*
X169064331Y-127947500D01*
X169248871Y-127908275D01*
X169421222Y-127831539D01*
X169573853Y-127720647D01*
X169700093Y-127580443D01*
X169794424Y-127417057D01*
X169852723Y-127237629D01*
X169872444Y-127050000D01*
X170607556Y-127050000D01*
X170627277Y-127237630D01*
X170685575Y-127417055D01*
X170779906Y-127580442D01*
X170906144Y-127720645D01*
X170906147Y-127720647D01*
X171058778Y-127831539D01*
X171231124Y-127908273D01*
X171231129Y-127908275D01*
X171415669Y-127947500D01*
X171415670Y-127947500D01*
X171604329Y-127947500D01*
X171604331Y-127947500D01*
X171788871Y-127908275D01*
X171961222Y-127831539D01*
X172113853Y-127720647D01*
X172240093Y-127580443D01*
X172334424Y-127417057D01*
X172392723Y-127237629D01*
X172412444Y-127050000D01*
X173147556Y-127050000D01*
X173167277Y-127237630D01*
X173225575Y-127417055D01*
X173319906Y-127580442D01*
X173446144Y-127720645D01*
X173446147Y-127720647D01*
X173598778Y-127831539D01*
X173771124Y-127908273D01*
X173771129Y-127908275D01*
X173955669Y-127947500D01*
X173955670Y-127947500D01*
X174144329Y-127947500D01*
X174144331Y-127947500D01*
X174328871Y-127908275D01*
X174501222Y-127831539D01*
X174653853Y-127720647D01*
X174780093Y-127580443D01*
X174874424Y-127417057D01*
X174932723Y-127237629D01*
X174952444Y-127050000D01*
X174932723Y-126862371D01*
X174874424Y-126682943D01*
X174780093Y-126519557D01*
X174653855Y-126379354D01*
X174577537Y-126323907D01*
X174501222Y-126268461D01*
X174501220Y-126268460D01*
X174501221Y-126268460D01*
X174328875Y-126191726D01*
X174328870Y-126191724D01*
X174183555Y-126160837D01*
X174144331Y-126152500D01*
X173955669Y-126152500D01*
X173923320Y-126159375D01*
X173771129Y-126191724D01*
X173771124Y-126191726D01*
X173598779Y-126268460D01*
X173446144Y-126379354D01*
X173319906Y-126519557D01*
X173225575Y-126682944D01*
X173167277Y-126862369D01*
X173147556Y-127050000D01*
X172412444Y-127050000D01*
X172392723Y-126862371D01*
X172334424Y-126682943D01*
X172240093Y-126519557D01*
X172113855Y-126379354D01*
X172037537Y-126323907D01*
X171961222Y-126268461D01*
X171961220Y-126268460D01*
X171961221Y-126268460D01*
X171788875Y-126191726D01*
X171788870Y-126191724D01*
X171643555Y-126160837D01*
X171604331Y-126152500D01*
X171415669Y-126152500D01*
X171383320Y-126159375D01*
X171231129Y-126191724D01*
X171231124Y-126191726D01*
X171058779Y-126268460D01*
X170906144Y-126379354D01*
X170779906Y-126519557D01*
X170685575Y-126682944D01*
X170627277Y-126862369D01*
X170607556Y-127050000D01*
X169872444Y-127050000D01*
X169852723Y-126862371D01*
X169794424Y-126682943D01*
X169700093Y-126519557D01*
X169573855Y-126379354D01*
X169497537Y-126323907D01*
X169421222Y-126268461D01*
X169421220Y-126268460D01*
X169421221Y-126268460D01*
X169248875Y-126191726D01*
X169248870Y-126191724D01*
X169103555Y-126160837D01*
X169064331Y-126152500D01*
X168875669Y-126152500D01*
X168843320Y-126159375D01*
X168691129Y-126191724D01*
X168691124Y-126191726D01*
X168518779Y-126268460D01*
X168366144Y-126379354D01*
X168239906Y-126519557D01*
X168145575Y-126682944D01*
X168087277Y-126862369D01*
X168067556Y-127050000D01*
X167332444Y-127050000D01*
X167312723Y-126862371D01*
X167254424Y-126682943D01*
X167160093Y-126519557D01*
X167033855Y-126379354D01*
X166957537Y-126323907D01*
X166881222Y-126268461D01*
X166881220Y-126268460D01*
X166881221Y-126268460D01*
X166708875Y-126191726D01*
X166708870Y-126191724D01*
X166563555Y-126160837D01*
X166524331Y-126152500D01*
X166335669Y-126152500D01*
X166303320Y-126159375D01*
X166151129Y-126191724D01*
X166151124Y-126191726D01*
X165978779Y-126268460D01*
X165826144Y-126379354D01*
X165699906Y-126519557D01*
X165605575Y-126682944D01*
X165547277Y-126862369D01*
X165527556Y-127050000D01*
X164792444Y-127050000D01*
X164772723Y-126862371D01*
X164714424Y-126682943D01*
X164620093Y-126519557D01*
X164493855Y-126379354D01*
X164417537Y-126323907D01*
X164341222Y-126268461D01*
X164341220Y-126268460D01*
X164341221Y-126268460D01*
X164168875Y-126191726D01*
X164168870Y-126191724D01*
X164023555Y-126160837D01*
X163984331Y-126152500D01*
X163795669Y-126152500D01*
X163763320Y-126159375D01*
X163611129Y-126191724D01*
X163611124Y-126191726D01*
X163438779Y-126268460D01*
X163286144Y-126379354D01*
X163159906Y-126519557D01*
X163065575Y-126682944D01*
X163007277Y-126862369D01*
X162987556Y-127050000D01*
X162252444Y-127050000D01*
X162232723Y-126862371D01*
X162174424Y-126682943D01*
X162080093Y-126519557D01*
X161953855Y-126379354D01*
X161877537Y-126323907D01*
X161801222Y-126268461D01*
X161801220Y-126268460D01*
X161801221Y-126268460D01*
X161628875Y-126191726D01*
X161628870Y-126191724D01*
X161483555Y-126160837D01*
X161444331Y-126152500D01*
X161255669Y-126152500D01*
X161223320Y-126159375D01*
X161071129Y-126191724D01*
X161071124Y-126191726D01*
X160898779Y-126268460D01*
X160746144Y-126379354D01*
X160619906Y-126519557D01*
X160525575Y-126682944D01*
X160467277Y-126862369D01*
X160447556Y-127050000D01*
X159712444Y-127050000D01*
X159692723Y-126862371D01*
X159634424Y-126682943D01*
X159540093Y-126519557D01*
X159413855Y-126379354D01*
X159337537Y-126323907D01*
X159261222Y-126268461D01*
X159261220Y-126268460D01*
X159261221Y-126268460D01*
X159088875Y-126191726D01*
X159088870Y-126191724D01*
X158943555Y-126160837D01*
X158904331Y-126152500D01*
X158715669Y-126152500D01*
X158683320Y-126159375D01*
X158531129Y-126191724D01*
X158531124Y-126191726D01*
X158358779Y-126268460D01*
X158206144Y-126379354D01*
X158079906Y-126519557D01*
X157985575Y-126682944D01*
X157927277Y-126862369D01*
X157907556Y-127050000D01*
X157172444Y-127050000D01*
X157152723Y-126862371D01*
X157094424Y-126682943D01*
X157000093Y-126519557D01*
X156873855Y-126379354D01*
X156797537Y-126323907D01*
X156721222Y-126268461D01*
X156721220Y-126268460D01*
X156721221Y-126268460D01*
X156548875Y-126191726D01*
X156548870Y-126191724D01*
X156403555Y-126160837D01*
X156364331Y-126152500D01*
X156175669Y-126152500D01*
X156143320Y-126159375D01*
X155991129Y-126191724D01*
X155991124Y-126191726D01*
X155818779Y-126268460D01*
X155666144Y-126379354D01*
X155539906Y-126519557D01*
X155445575Y-126682944D01*
X155387277Y-126862369D01*
X155367556Y-127050000D01*
X154632444Y-127050000D01*
X154612723Y-126862371D01*
X154554424Y-126682943D01*
X154460093Y-126519557D01*
X154333855Y-126379354D01*
X154257537Y-126323907D01*
X154181222Y-126268461D01*
X154181220Y-126268460D01*
X154181221Y-126268460D01*
X154008875Y-126191726D01*
X154008870Y-126191724D01*
X153863555Y-126160837D01*
X153824331Y-126152500D01*
X153635669Y-126152500D01*
X153603320Y-126159375D01*
X153451129Y-126191724D01*
X153451124Y-126191726D01*
X153278779Y-126268460D01*
X153126144Y-126379354D01*
X152999906Y-126519557D01*
X152905575Y-126682944D01*
X152847277Y-126862369D01*
X152827556Y-127050000D01*
X152092444Y-127050000D01*
X152072723Y-126862371D01*
X152014424Y-126682943D01*
X151920093Y-126519557D01*
X151793855Y-126379354D01*
X151717537Y-126323907D01*
X151641222Y-126268461D01*
X151641220Y-126268460D01*
X151641221Y-126268460D01*
X151468875Y-126191726D01*
X151468870Y-126191724D01*
X151323555Y-126160837D01*
X151284331Y-126152500D01*
X151095669Y-126152500D01*
X151063320Y-126159375D01*
X150911129Y-126191724D01*
X150911124Y-126191726D01*
X150738779Y-126268460D01*
X150586144Y-126379354D01*
X150459906Y-126519557D01*
X150365575Y-126682944D01*
X150307277Y-126862369D01*
X150287556Y-127050000D01*
X149552444Y-127050000D01*
X149532723Y-126862371D01*
X149474424Y-126682943D01*
X149380093Y-126519557D01*
X149253855Y-126379354D01*
X149177537Y-126323907D01*
X149101222Y-126268461D01*
X149101220Y-126268460D01*
X149101221Y-126268460D01*
X148928875Y-126191726D01*
X148928870Y-126191724D01*
X148783555Y-126160837D01*
X148744331Y-126152500D01*
X148555669Y-126152500D01*
X148523320Y-126159375D01*
X148371129Y-126191724D01*
X148371124Y-126191726D01*
X148198779Y-126268460D01*
X148046144Y-126379354D01*
X147919906Y-126519557D01*
X147825575Y-126682944D01*
X147767277Y-126862369D01*
X147747556Y-127050000D01*
X147012444Y-127050000D01*
X146992723Y-126862371D01*
X146934424Y-126682943D01*
X146840093Y-126519557D01*
X146713855Y-126379354D01*
X146637537Y-126323907D01*
X146561222Y-126268461D01*
X146561220Y-126268460D01*
X146561221Y-126268460D01*
X146388875Y-126191726D01*
X146388870Y-126191724D01*
X146243555Y-126160837D01*
X146204331Y-126152500D01*
X146015669Y-126152500D01*
X145983320Y-126159375D01*
X145831129Y-126191724D01*
X145831124Y-126191726D01*
X145658779Y-126268460D01*
X145506144Y-126379354D01*
X145379906Y-126519557D01*
X145285575Y-126682944D01*
X145227277Y-126862369D01*
X145207556Y-127050000D01*
X144472444Y-127050000D01*
X144452723Y-126862371D01*
X144394424Y-126682943D01*
X144300093Y-126519557D01*
X144173855Y-126379354D01*
X144097537Y-126323907D01*
X144021222Y-126268461D01*
X144021220Y-126268460D01*
X144021221Y-126268460D01*
X143848875Y-126191726D01*
X143848870Y-126191724D01*
X143703555Y-126160837D01*
X143664331Y-126152500D01*
X143475669Y-126152500D01*
X143443320Y-126159375D01*
X143291129Y-126191724D01*
X143291124Y-126191726D01*
X143118779Y-126268460D01*
X142966144Y-126379354D01*
X142839906Y-126519557D01*
X142745575Y-126682944D01*
X142687277Y-126862369D01*
X142667556Y-127050000D01*
X141932444Y-127050000D01*
X141912723Y-126862371D01*
X141854424Y-126682943D01*
X141760093Y-126519557D01*
X141633855Y-126379354D01*
X141557537Y-126323907D01*
X141481222Y-126268461D01*
X141481220Y-126268460D01*
X141481221Y-126268460D01*
X141308875Y-126191726D01*
X141308870Y-126191724D01*
X141163555Y-126160837D01*
X141124331Y-126152500D01*
X140935669Y-126152500D01*
X140903320Y-126159375D01*
X140751129Y-126191724D01*
X140751124Y-126191726D01*
X140578779Y-126268460D01*
X140426144Y-126379354D01*
X140299906Y-126519557D01*
X140205575Y-126682944D01*
X140147277Y-126862369D01*
X140127556Y-127050000D01*
X139392444Y-127050000D01*
X139372723Y-126862371D01*
X139314424Y-126682943D01*
X139220093Y-126519557D01*
X139093855Y-126379354D01*
X139017537Y-126323907D01*
X138941222Y-126268461D01*
X138941220Y-126268460D01*
X138941221Y-126268460D01*
X138768875Y-126191726D01*
X138768870Y-126191724D01*
X138623555Y-126160837D01*
X138584331Y-126152500D01*
X138395669Y-126152500D01*
X138363320Y-126159375D01*
X138211129Y-126191724D01*
X138211124Y-126191726D01*
X138038779Y-126268460D01*
X137886144Y-126379354D01*
X137759906Y-126519557D01*
X137665575Y-126682944D01*
X137607277Y-126862369D01*
X137587556Y-127050000D01*
X136852444Y-127050000D01*
X136832723Y-126862371D01*
X136774424Y-126682943D01*
X136680093Y-126519557D01*
X136553855Y-126379354D01*
X136477537Y-126323907D01*
X136401222Y-126268461D01*
X136401220Y-126268460D01*
X136401221Y-126268460D01*
X136228875Y-126191726D01*
X136228870Y-126191724D01*
X136083555Y-126160837D01*
X136044331Y-126152500D01*
X135855669Y-126152500D01*
X135823320Y-126159375D01*
X135671129Y-126191724D01*
X135671124Y-126191726D01*
X135498779Y-126268460D01*
X135346144Y-126379354D01*
X135219906Y-126519557D01*
X135125575Y-126682944D01*
X135067277Y-126862369D01*
X135047556Y-127050000D01*
X133529196Y-127050000D01*
X133525644Y-126963921D01*
X133525555Y-126956831D01*
X133525890Y-126935759D01*
X133525500Y-126933146D01*
X133525500Y-124510000D01*
X135047556Y-124510000D01*
X135067277Y-124697630D01*
X135125575Y-124877055D01*
X135219906Y-125040442D01*
X135346144Y-125180645D01*
X135346147Y-125180647D01*
X135498778Y-125291539D01*
X135671124Y-125368273D01*
X135671129Y-125368275D01*
X135855669Y-125407500D01*
X135855670Y-125407500D01*
X136044329Y-125407500D01*
X136044331Y-125407500D01*
X136228871Y-125368275D01*
X136401222Y-125291539D01*
X136553853Y-125180647D01*
X136680093Y-125040443D01*
X136774424Y-124877057D01*
X136832723Y-124697629D01*
X136852444Y-124510000D01*
X136832723Y-124322371D01*
X136774424Y-124142943D01*
X136691893Y-123999995D01*
X137225037Y-123999995D01*
X137225037Y-124000004D01*
X137244860Y-124264535D01*
X137244861Y-124264540D01*
X137303890Y-124523166D01*
X137303896Y-124523185D01*
X137400814Y-124770128D01*
X137400813Y-124770128D01*
X137533457Y-124999871D01*
X137583642Y-125062803D01*
X137583643Y-125062803D01*
X138070868Y-124575577D01*
X138168595Y-124710087D01*
X138289913Y-124831405D01*
X138424420Y-124929130D01*
X137936438Y-125417112D01*
X138112525Y-125537166D01*
X138112526Y-125537167D01*
X138351530Y-125652264D01*
X138351528Y-125652264D01*
X138605025Y-125730458D01*
X138605031Y-125730459D01*
X138867351Y-125769999D01*
X138867358Y-125770000D01*
X139132642Y-125770000D01*
X139132648Y-125769999D01*
X139394968Y-125730459D01*
X139394974Y-125730458D01*
X139648470Y-125652264D01*
X139887479Y-125537164D01*
X140063560Y-125417112D01*
X139575578Y-124929130D01*
X139710087Y-124831405D01*
X139831405Y-124710087D01*
X139929130Y-124575578D01*
X140416355Y-125062803D01*
X140416356Y-125062802D01*
X140466545Y-124999869D01*
X140599185Y-124770128D01*
X140696103Y-124523185D01*
X140696109Y-124523166D01*
X140755138Y-124264540D01*
X140755139Y-124264535D01*
X140774963Y-124000004D01*
X140774963Y-123999995D01*
X169225037Y-123999995D01*
X169225037Y-124000004D01*
X169244860Y-124264535D01*
X169244861Y-124264540D01*
X169303890Y-124523166D01*
X169303896Y-124523185D01*
X169400814Y-124770128D01*
X169400813Y-124770128D01*
X169533457Y-124999871D01*
X169583642Y-125062803D01*
X169583643Y-125062803D01*
X170070868Y-124575577D01*
X170168595Y-124710087D01*
X170289913Y-124831405D01*
X170424420Y-124929130D01*
X169936438Y-125417112D01*
X170112525Y-125537166D01*
X170112526Y-125537167D01*
X170351530Y-125652264D01*
X170351528Y-125652264D01*
X170605025Y-125730458D01*
X170605031Y-125730459D01*
X170867351Y-125769999D01*
X170867358Y-125770000D01*
X171132642Y-125770000D01*
X171132648Y-125769999D01*
X171394968Y-125730459D01*
X171394974Y-125730458D01*
X171648470Y-125652264D01*
X171887479Y-125537164D01*
X172063560Y-125417112D01*
X171575578Y-124929130D01*
X171710087Y-124831405D01*
X171831405Y-124710087D01*
X171929130Y-124575578D01*
X172416355Y-125062803D01*
X172416356Y-125062802D01*
X172466545Y-124999869D01*
X172599185Y-124770128D01*
X172696103Y-124523185D01*
X172696109Y-124523166D01*
X172699114Y-124510000D01*
X173147556Y-124510000D01*
X173167277Y-124697630D01*
X173225575Y-124877055D01*
X173319906Y-125040442D01*
X173446144Y-125180645D01*
X173446147Y-125180647D01*
X173598778Y-125291539D01*
X173771124Y-125368273D01*
X173771129Y-125368275D01*
X173955669Y-125407500D01*
X173955670Y-125407500D01*
X174144329Y-125407500D01*
X174144331Y-125407500D01*
X174328871Y-125368275D01*
X174501222Y-125291539D01*
X174653853Y-125180647D01*
X174780093Y-125040443D01*
X174874424Y-124877057D01*
X174932723Y-124697629D01*
X174952444Y-124510000D01*
X174932723Y-124322371D01*
X174874424Y-124142943D01*
X174780093Y-123979557D01*
X174721259Y-123914215D01*
X174653855Y-123839354D01*
X174523653Y-123744758D01*
X174501222Y-123728461D01*
X174501220Y-123728460D01*
X174501221Y-123728460D01*
X174328875Y-123651726D01*
X174328870Y-123651724D01*
X174183555Y-123620837D01*
X174144331Y-123612500D01*
X173955669Y-123612500D01*
X173923320Y-123619375D01*
X173771129Y-123651724D01*
X173771124Y-123651726D01*
X173598779Y-123728460D01*
X173446144Y-123839354D01*
X173319906Y-123979557D01*
X173225575Y-124142944D01*
X173167277Y-124322369D01*
X173147556Y-124510000D01*
X172699114Y-124510000D01*
X172755138Y-124264540D01*
X172755139Y-124264535D01*
X172774963Y-124000004D01*
X172774963Y-123999995D01*
X172755139Y-123735464D01*
X172755138Y-123735459D01*
X172696109Y-123476833D01*
X172696103Y-123476814D01*
X172599185Y-123229871D01*
X172599186Y-123229871D01*
X172466543Y-123000129D01*
X172466536Y-123000118D01*
X172416356Y-122937196D01*
X172416355Y-122937195D01*
X171929130Y-123424420D01*
X171831405Y-123289913D01*
X171710087Y-123168595D01*
X171575578Y-123070868D01*
X172063560Y-122582886D01*
X171887484Y-122462839D01*
X171887474Y-122462832D01*
X171648469Y-122347735D01*
X171648471Y-122347735D01*
X171394974Y-122269541D01*
X171394968Y-122269540D01*
X171132648Y-122230000D01*
X170867351Y-122230000D01*
X170605031Y-122269540D01*
X170605025Y-122269541D01*
X170351529Y-122347735D01*
X170112526Y-122462832D01*
X170112518Y-122462837D01*
X169936438Y-122582886D01*
X170424421Y-123070869D01*
X170289913Y-123168595D01*
X170168595Y-123289913D01*
X170070868Y-123424421D01*
X169583643Y-122937196D01*
X169533456Y-123000128D01*
X169400814Y-123229871D01*
X169303896Y-123476814D01*
X169303890Y-123476833D01*
X169244861Y-123735459D01*
X169244860Y-123735464D01*
X169225037Y-123999995D01*
X140774963Y-123999995D01*
X140755139Y-123735464D01*
X140755138Y-123735459D01*
X140696109Y-123476833D01*
X140696103Y-123476814D01*
X140599185Y-123229871D01*
X140599186Y-123229871D01*
X140466543Y-123000129D01*
X140466536Y-123000118D01*
X140416356Y-122937196D01*
X140416355Y-122937195D01*
X139929130Y-123424420D01*
X139831405Y-123289913D01*
X139710087Y-123168595D01*
X139575578Y-123070868D01*
X140063560Y-122582886D01*
X139887484Y-122462839D01*
X139887474Y-122462832D01*
X139648469Y-122347735D01*
X139648471Y-122347735D01*
X139394974Y-122269541D01*
X139394968Y-122269540D01*
X139132648Y-122230000D01*
X138867351Y-122230000D01*
X138605031Y-122269540D01*
X138605025Y-122269541D01*
X138351529Y-122347735D01*
X138112526Y-122462832D01*
X138112518Y-122462837D01*
X137936438Y-122582886D01*
X138424421Y-123070869D01*
X138289913Y-123168595D01*
X138168595Y-123289913D01*
X138070868Y-123424421D01*
X137583643Y-122937196D01*
X137533456Y-123000128D01*
X137400814Y-123229871D01*
X137303896Y-123476814D01*
X137303890Y-123476833D01*
X137244861Y-123735459D01*
X137244860Y-123735464D01*
X137225037Y-123999995D01*
X136691893Y-123999995D01*
X136680093Y-123979557D01*
X136621259Y-123914215D01*
X136553855Y-123839354D01*
X136423653Y-123744758D01*
X136401222Y-123728461D01*
X136401220Y-123728460D01*
X136401221Y-123728460D01*
X136228875Y-123651726D01*
X136228870Y-123651724D01*
X136083555Y-123620837D01*
X136044331Y-123612500D01*
X135855669Y-123612500D01*
X135823320Y-123619375D01*
X135671129Y-123651724D01*
X135671124Y-123651726D01*
X135498779Y-123728460D01*
X135346144Y-123839354D01*
X135219906Y-123979557D01*
X135125575Y-124142944D01*
X135067277Y-124322369D01*
X135047556Y-124510000D01*
X133525500Y-124510000D01*
X133525500Y-121970000D01*
X135047556Y-121970000D01*
X135067277Y-122157630D01*
X135125575Y-122337055D01*
X135219906Y-122500442D01*
X135346144Y-122640645D01*
X135346147Y-122640647D01*
X135498778Y-122751539D01*
X135671124Y-122828273D01*
X135671129Y-122828275D01*
X135855669Y-122867500D01*
X135855670Y-122867500D01*
X136044329Y-122867500D01*
X136044331Y-122867500D01*
X136228871Y-122828275D01*
X136401222Y-122751539D01*
X136553853Y-122640647D01*
X136680093Y-122500443D01*
X136774424Y-122337057D01*
X136832723Y-122157629D01*
X136852444Y-121970000D01*
X136852444Y-121969999D01*
X172775149Y-121969999D01*
X172775149Y-121970000D01*
X172794516Y-122191371D01*
X172794518Y-122191381D01*
X172852029Y-122406017D01*
X172852033Y-122406026D01*
X172945949Y-122607429D01*
X172992513Y-122673931D01*
X172992514Y-122673932D01*
X173567037Y-122099409D01*
X173584075Y-122162993D01*
X173649901Y-122277007D01*
X173742993Y-122370099D01*
X173857007Y-122435925D01*
X173920590Y-122452962D01*
X173346066Y-123027484D01*
X173346067Y-123027485D01*
X173412570Y-123074050D01*
X173613973Y-123167966D01*
X173613982Y-123167970D01*
X173828618Y-123225481D01*
X173828628Y-123225483D01*
X174049999Y-123244851D01*
X174050001Y-123244851D01*
X174271371Y-123225483D01*
X174271381Y-123225481D01*
X174486017Y-123167970D01*
X174486026Y-123167966D01*
X174687425Y-123074052D01*
X174753932Y-123027484D01*
X174179409Y-122452962D01*
X174242993Y-122435925D01*
X174357007Y-122370099D01*
X174450099Y-122277007D01*
X174515925Y-122162993D01*
X174532962Y-122099410D01*
X175107484Y-122673932D01*
X175154052Y-122607425D01*
X175247966Y-122406026D01*
X175247970Y-122406017D01*
X175305481Y-122191381D01*
X175305483Y-122191371D01*
X175324851Y-121970000D01*
X175324851Y-121969999D01*
X175305483Y-121748628D01*
X175305481Y-121748618D01*
X175247970Y-121533982D01*
X175247966Y-121533973D01*
X175154054Y-121332577D01*
X175107483Y-121266067D01*
X174532962Y-121840589D01*
X174515925Y-121777007D01*
X174450099Y-121662993D01*
X174357007Y-121569901D01*
X174242993Y-121504075D01*
X174179409Y-121487037D01*
X174753932Y-120912514D01*
X174753931Y-120912513D01*
X174687429Y-120865949D01*
X174486026Y-120772033D01*
X174486017Y-120772029D01*
X174271381Y-120714518D01*
X174271371Y-120714516D01*
X174050001Y-120695149D01*
X174049999Y-120695149D01*
X173828628Y-120714516D01*
X173828618Y-120714518D01*
X173613982Y-120772029D01*
X173613973Y-120772032D01*
X173412576Y-120865946D01*
X173412574Y-120865947D01*
X173346068Y-120912515D01*
X173346067Y-120912515D01*
X173920590Y-121487037D01*
X173857007Y-121504075D01*
X173742993Y-121569901D01*
X173649901Y-121662993D01*
X173584075Y-121777007D01*
X173567037Y-121840589D01*
X172992515Y-121266067D01*
X172992515Y-121266068D01*
X172945947Y-121332574D01*
X172945946Y-121332576D01*
X172852032Y-121533973D01*
X172852029Y-121533982D01*
X172794518Y-121748618D01*
X172794516Y-121748628D01*
X172775149Y-121969999D01*
X136852444Y-121969999D01*
X136832723Y-121782371D01*
X136774424Y-121602943D01*
X136680093Y-121439557D01*
X136553855Y-121299354D01*
X136477537Y-121243907D01*
X136401222Y-121188461D01*
X136401220Y-121188460D01*
X136401221Y-121188460D01*
X136228875Y-121111726D01*
X136228870Y-121111724D01*
X136083555Y-121080837D01*
X136044331Y-121072500D01*
X135855669Y-121072500D01*
X135823320Y-121079375D01*
X135671129Y-121111724D01*
X135671124Y-121111726D01*
X135498779Y-121188460D01*
X135346144Y-121299354D01*
X135219906Y-121439557D01*
X135125575Y-121602944D01*
X135067277Y-121782369D01*
X135047556Y-121970000D01*
X133525500Y-121970000D01*
X133525500Y-119429999D01*
X134675149Y-119429999D01*
X134675149Y-119430000D01*
X134694516Y-119651371D01*
X134694518Y-119651381D01*
X134752029Y-119866017D01*
X134752033Y-119866026D01*
X134845949Y-120067429D01*
X134892513Y-120133931D01*
X134892514Y-120133932D01*
X135467037Y-119559409D01*
X135484075Y-119622993D01*
X135549901Y-119737007D01*
X135642993Y-119830099D01*
X135757007Y-119895925D01*
X135820590Y-119912962D01*
X135246066Y-120487484D01*
X135246067Y-120487485D01*
X135312570Y-120534050D01*
X135513973Y-120627966D01*
X135513982Y-120627970D01*
X135728618Y-120685481D01*
X135728628Y-120685483D01*
X135949999Y-120704851D01*
X135950001Y-120704851D01*
X136171371Y-120685483D01*
X136171381Y-120685481D01*
X136386017Y-120627970D01*
X136386026Y-120627966D01*
X136587425Y-120534052D01*
X136636063Y-120499996D01*
X155117794Y-120499996D01*
X155117794Y-120500003D01*
X155136498Y-120618104D01*
X155136498Y-120618105D01*
X155190790Y-120724657D01*
X155275342Y-120809209D01*
X155275344Y-120809210D01*
X155275345Y-120809211D01*
X155381892Y-120863500D01*
X155381893Y-120863500D01*
X155381895Y-120863501D01*
X155499997Y-120882206D01*
X155500000Y-120882206D01*
X155500003Y-120882206D01*
X155618104Y-120863501D01*
X155618105Y-120863501D01*
X155618106Y-120863500D01*
X155618108Y-120863500D01*
X155724655Y-120809211D01*
X155809211Y-120724655D01*
X155863500Y-120618108D01*
X155863500Y-120618106D01*
X155863501Y-120618105D01*
X155863501Y-120618104D01*
X155882206Y-120500003D01*
X155882206Y-120499996D01*
X155863501Y-120381895D01*
X155863501Y-120381894D01*
X155863500Y-120381892D01*
X155809211Y-120275345D01*
X155809210Y-120275344D01*
X155809209Y-120275342D01*
X155724657Y-120190790D01*
X155618104Y-120136498D01*
X155500003Y-120117794D01*
X155499997Y-120117794D01*
X155381895Y-120136498D01*
X155381894Y-120136498D01*
X155275342Y-120190790D01*
X155190790Y-120275342D01*
X155136498Y-120381894D01*
X155136498Y-120381895D01*
X155117794Y-120499996D01*
X136636063Y-120499996D01*
X136653932Y-120487484D01*
X136079409Y-119912962D01*
X136142993Y-119895925D01*
X136257007Y-119830099D01*
X136350099Y-119737007D01*
X136415925Y-119622993D01*
X136432962Y-119559410D01*
X137007484Y-120133932D01*
X137054052Y-120067425D01*
X137147966Y-119866026D01*
X137147970Y-119866017D01*
X137205481Y-119651381D01*
X137205483Y-119651371D01*
X137224851Y-119430000D01*
X173147556Y-119430000D01*
X173167277Y-119617630D01*
X173225575Y-119797055D01*
X173319906Y-119960442D01*
X173446144Y-120100645D01*
X173446147Y-120100647D01*
X173598778Y-120211539D01*
X173771124Y-120288273D01*
X173771129Y-120288275D01*
X173955669Y-120327500D01*
X173955670Y-120327500D01*
X174144329Y-120327500D01*
X174144331Y-120327500D01*
X174328871Y-120288275D01*
X174501222Y-120211539D01*
X174653853Y-120100647D01*
X174780093Y-119960443D01*
X174874424Y-119797057D01*
X174932723Y-119617629D01*
X174952444Y-119430000D01*
X174932723Y-119242371D01*
X174874424Y-119062943D01*
X174780093Y-118899557D01*
X174653855Y-118759354D01*
X174577537Y-118703907D01*
X174501222Y-118648461D01*
X174501220Y-118648460D01*
X174501221Y-118648460D01*
X174328875Y-118571726D01*
X174328870Y-118571724D01*
X174183555Y-118540837D01*
X174144331Y-118532500D01*
X173955669Y-118532500D01*
X173923320Y-118539375D01*
X173771129Y-118571724D01*
X173771124Y-118571726D01*
X173598779Y-118648460D01*
X173446144Y-118759354D01*
X173319906Y-118899557D01*
X173225575Y-119062944D01*
X173167277Y-119242369D01*
X173147556Y-119430000D01*
X137224851Y-119430000D01*
X137224851Y-119429999D01*
X137205483Y-119208628D01*
X137205481Y-119208618D01*
X137147970Y-118993982D01*
X137147966Y-118993973D01*
X137054054Y-118792577D01*
X137007483Y-118726067D01*
X136432962Y-119300589D01*
X136415925Y-119237007D01*
X136350099Y-119122993D01*
X136257007Y-119029901D01*
X136142993Y-118964075D01*
X136079409Y-118947037D01*
X136653932Y-118372514D01*
X136653931Y-118372513D01*
X136587429Y-118325949D01*
X136386026Y-118232033D01*
X136386017Y-118232029D01*
X136171381Y-118174518D01*
X136171371Y-118174516D01*
X135950001Y-118155149D01*
X135949999Y-118155149D01*
X135728628Y-118174516D01*
X135728618Y-118174518D01*
X135513982Y-118232029D01*
X135513973Y-118232032D01*
X135312576Y-118325946D01*
X135312574Y-118325947D01*
X135246068Y-118372515D01*
X135246067Y-118372515D01*
X135820590Y-118947037D01*
X135757007Y-118964075D01*
X135642993Y-119029901D01*
X135549901Y-119122993D01*
X135484075Y-119237007D01*
X135467037Y-119300589D01*
X134892515Y-118726067D01*
X134892515Y-118726068D01*
X134845947Y-118792574D01*
X134845946Y-118792576D01*
X134752032Y-118993973D01*
X134752029Y-118993982D01*
X134694518Y-119208618D01*
X134694516Y-119208628D01*
X134675149Y-119429999D01*
X133525500Y-119429999D01*
X133525500Y-116890000D01*
X135047556Y-116890000D01*
X135067277Y-117077630D01*
X135117501Y-117232206D01*
X135125576Y-117257057D01*
X135140096Y-117282206D01*
X135219906Y-117420442D01*
X135346144Y-117560645D01*
X135346147Y-117560647D01*
X135498778Y-117671539D01*
X135671124Y-117748273D01*
X135671129Y-117748275D01*
X135855669Y-117787500D01*
X135855670Y-117787500D01*
X136044329Y-117787500D01*
X136044331Y-117787500D01*
X136228871Y-117748275D01*
X136401222Y-117671539D01*
X136553853Y-117560647D01*
X136680093Y-117420443D01*
X136774424Y-117257057D01*
X136832723Y-117077629D01*
X136851393Y-116899996D01*
X141067794Y-116899996D01*
X141067794Y-116900003D01*
X141086498Y-117018104D01*
X141086498Y-117018105D01*
X141140790Y-117124657D01*
X141225342Y-117209209D01*
X141225344Y-117209210D01*
X141225345Y-117209211D01*
X141331892Y-117263500D01*
X141331893Y-117263500D01*
X141331895Y-117263501D01*
X141449997Y-117282206D01*
X141450000Y-117282206D01*
X141450003Y-117282206D01*
X141568104Y-117263501D01*
X141568105Y-117263501D01*
X141568106Y-117263500D01*
X141568108Y-117263500D01*
X141674655Y-117209211D01*
X141759211Y-117124655D01*
X141813500Y-117018108D01*
X141813500Y-117018106D01*
X141813501Y-117018105D01*
X141813501Y-117018104D01*
X141832206Y-116900003D01*
X141832206Y-116899996D01*
X141824287Y-116849996D01*
X153617794Y-116849996D01*
X153617794Y-116850003D01*
X153636498Y-116968104D01*
X153636498Y-116968105D01*
X153690790Y-117074657D01*
X153775342Y-117159209D01*
X153775344Y-117159210D01*
X153775345Y-117159211D01*
X153881892Y-117213500D01*
X153881893Y-117213500D01*
X153881895Y-117213501D01*
X153999997Y-117232206D01*
X154000000Y-117232206D01*
X154000003Y-117232206D01*
X154118104Y-117213501D01*
X154118105Y-117213501D01*
X154118106Y-117213500D01*
X154118108Y-117213500D01*
X154224655Y-117159211D01*
X154309211Y-117074655D01*
X154363500Y-116968108D01*
X154381486Y-116854542D01*
X154391196Y-116834058D01*
X154382922Y-116815940D01*
X154608801Y-116815940D01*
X154626432Y-116854545D01*
X154636498Y-116918105D01*
X154690790Y-117024657D01*
X154775342Y-117109209D01*
X154775344Y-117109210D01*
X154775345Y-117109211D01*
X154881892Y-117163500D01*
X154881893Y-117163500D01*
X154881895Y-117163501D01*
X154999997Y-117182206D01*
X155000000Y-117182206D01*
X155000003Y-117182206D01*
X155118104Y-117163501D01*
X155118105Y-117163501D01*
X155118106Y-117163500D01*
X155118108Y-117163500D01*
X155224655Y-117109211D01*
X155309211Y-117024655D01*
X155363500Y-116918108D01*
X155363500Y-116918106D01*
X155363501Y-116918105D01*
X155363501Y-116918104D01*
X155367952Y-116890000D01*
X173147556Y-116890000D01*
X173167277Y-117077630D01*
X173217501Y-117232206D01*
X173225576Y-117257057D01*
X173240096Y-117282206D01*
X173319906Y-117420442D01*
X173446144Y-117560645D01*
X173446147Y-117560647D01*
X173598778Y-117671539D01*
X173771124Y-117748273D01*
X173771129Y-117748275D01*
X173955669Y-117787500D01*
X173955670Y-117787500D01*
X174144329Y-117787500D01*
X174144331Y-117787500D01*
X174328871Y-117748275D01*
X174501222Y-117671539D01*
X174653853Y-117560647D01*
X174780093Y-117420443D01*
X174874424Y-117257057D01*
X174932723Y-117077629D01*
X174952444Y-116890000D01*
X174932723Y-116702371D01*
X174874424Y-116522943D01*
X174780093Y-116359557D01*
X174653855Y-116219354D01*
X174558390Y-116149996D01*
X174501222Y-116108461D01*
X174501220Y-116108460D01*
X174501221Y-116108460D01*
X174328875Y-116031726D01*
X174328870Y-116031724D01*
X174183555Y-116000837D01*
X174144331Y-115992500D01*
X173955669Y-115992500D01*
X173923320Y-115999375D01*
X173771129Y-116031724D01*
X173771124Y-116031726D01*
X173598779Y-116108460D01*
X173446144Y-116219354D01*
X173319906Y-116359557D01*
X173225575Y-116522944D01*
X173167277Y-116702369D01*
X173147556Y-116890000D01*
X155367952Y-116890000D01*
X155382206Y-116800003D01*
X155382206Y-116799996D01*
X155363501Y-116681895D01*
X155363501Y-116681894D01*
X155360163Y-116675342D01*
X155309211Y-116575345D01*
X155309210Y-116575344D01*
X155309209Y-116575342D01*
X155224657Y-116490790D01*
X155118104Y-116436498D01*
X155000003Y-116417794D01*
X154999997Y-116417794D01*
X154881895Y-116436498D01*
X154881894Y-116436498D01*
X154775342Y-116490790D01*
X154690790Y-116575342D01*
X154636498Y-116681894D01*
X154618513Y-116795454D01*
X154608801Y-116815940D01*
X154382922Y-116815940D01*
X154373567Y-116795454D01*
X154363500Y-116731892D01*
X154309211Y-116625345D01*
X154309210Y-116625344D01*
X154309209Y-116625342D01*
X154224657Y-116540790D01*
X154171098Y-116513500D01*
X154118108Y-116486500D01*
X154118107Y-116486499D01*
X154118104Y-116486498D01*
X154000003Y-116467794D01*
X153999997Y-116467794D01*
X153881895Y-116486498D01*
X153881894Y-116486498D01*
X153775342Y-116540790D01*
X153690790Y-116625342D01*
X153636498Y-116731894D01*
X153636498Y-116731895D01*
X153617794Y-116849996D01*
X141824287Y-116849996D01*
X141813501Y-116781895D01*
X141813501Y-116781894D01*
X141788023Y-116731892D01*
X141759211Y-116675345D01*
X141759210Y-116675344D01*
X141759209Y-116675342D01*
X141674657Y-116590790D01*
X141639139Y-116572692D01*
X141568108Y-116536500D01*
X141568107Y-116536499D01*
X141568104Y-116536498D01*
X141450003Y-116517794D01*
X141449997Y-116517794D01*
X141331895Y-116536498D01*
X141331894Y-116536498D01*
X141225342Y-116590790D01*
X141140790Y-116675342D01*
X141086498Y-116781894D01*
X141086498Y-116781895D01*
X141067794Y-116899996D01*
X136851393Y-116899996D01*
X136852444Y-116890000D01*
X136832723Y-116702371D01*
X136774424Y-116522943D01*
X136680093Y-116359557D01*
X136553855Y-116219354D01*
X136458390Y-116149996D01*
X144417794Y-116149996D01*
X144417794Y-116150003D01*
X144436498Y-116268104D01*
X144436498Y-116268105D01*
X144490790Y-116374657D01*
X144575342Y-116459209D01*
X144575344Y-116459210D01*
X144575345Y-116459211D01*
X144681892Y-116513500D01*
X144681893Y-116513500D01*
X144681895Y-116513501D01*
X144799997Y-116532206D01*
X144800000Y-116532206D01*
X144800003Y-116532206D01*
X144918104Y-116513501D01*
X144918105Y-116513501D01*
X144918106Y-116513500D01*
X144918108Y-116513500D01*
X145024655Y-116459211D01*
X145109211Y-116374655D01*
X145163500Y-116268108D01*
X145163500Y-116268106D01*
X145163501Y-116268105D01*
X145163501Y-116268104D01*
X145182206Y-116150003D01*
X145182206Y-116149996D01*
X145163501Y-116031896D01*
X145162099Y-116027581D01*
X145160100Y-115957740D01*
X145196178Y-115897905D01*
X145258877Y-115867074D01*
X145328292Y-115875035D01*
X145367709Y-115901576D01*
X145375342Y-115909209D01*
X145375344Y-115909210D01*
X145375345Y-115909211D01*
X145481892Y-115963500D01*
X145481893Y-115963500D01*
X145481895Y-115963501D01*
X145599997Y-115982206D01*
X145600000Y-115982206D01*
X145600003Y-115982206D01*
X145718104Y-115963501D01*
X145718105Y-115963501D01*
X145718106Y-115963500D01*
X145718108Y-115963500D01*
X145824655Y-115909211D01*
X145866792Y-115867074D01*
X145912319Y-115821548D01*
X145973642Y-115788063D01*
X146043334Y-115793047D01*
X146087681Y-115821548D01*
X146175342Y-115909209D01*
X146175344Y-115909210D01*
X146175345Y-115909211D01*
X146281892Y-115963500D01*
X146281893Y-115963500D01*
X146281895Y-115963501D01*
X146399997Y-115982206D01*
X146400000Y-115982206D01*
X146400003Y-115982206D01*
X146518104Y-115963501D01*
X146518105Y-115963501D01*
X146518106Y-115963500D01*
X146518108Y-115963500D01*
X146624655Y-115909211D01*
X146709211Y-115824655D01*
X146763500Y-115718108D01*
X146763500Y-115718106D01*
X146763501Y-115718105D01*
X146763501Y-115718104D01*
X146782206Y-115600003D01*
X146782206Y-115599996D01*
X146763501Y-115481895D01*
X146763501Y-115481894D01*
X146731000Y-115418108D01*
X146709211Y-115375345D01*
X146709210Y-115375344D01*
X146709209Y-115375342D01*
X146633863Y-115299996D01*
X160117794Y-115299996D01*
X160117794Y-115300003D01*
X160136498Y-115418104D01*
X160136498Y-115418105D01*
X160190790Y-115524657D01*
X160275342Y-115609209D01*
X160275344Y-115609210D01*
X160275345Y-115609211D01*
X160381892Y-115663500D01*
X160381893Y-115663500D01*
X160381895Y-115663501D01*
X160499997Y-115682206D01*
X160500000Y-115682206D01*
X160500003Y-115682206D01*
X160618104Y-115663501D01*
X160618105Y-115663501D01*
X160618106Y-115663500D01*
X160618108Y-115663500D01*
X160724655Y-115609211D01*
X160809211Y-115524655D01*
X160863500Y-115418108D01*
X160863500Y-115418106D01*
X160863501Y-115418105D01*
X160863501Y-115418104D01*
X160882206Y-115300003D01*
X160882206Y-115299996D01*
X160863501Y-115181895D01*
X160863501Y-115181894D01*
X160863500Y-115181892D01*
X160809211Y-115075345D01*
X160809210Y-115075344D01*
X160809209Y-115075342D01*
X160724657Y-114990790D01*
X160644595Y-114949996D01*
X170567794Y-114949996D01*
X170567794Y-114950003D01*
X170586498Y-115068104D01*
X170586498Y-115068105D01*
X170640790Y-115174657D01*
X170725342Y-115259209D01*
X170725344Y-115259210D01*
X170725345Y-115259211D01*
X170831892Y-115313500D01*
X170831893Y-115313500D01*
X170831895Y-115313501D01*
X170949997Y-115332206D01*
X170950000Y-115332206D01*
X170950003Y-115332206D01*
X171068104Y-115313501D01*
X171068105Y-115313501D01*
X171068106Y-115313500D01*
X171068108Y-115313500D01*
X171174655Y-115259211D01*
X171259211Y-115174655D01*
X171313500Y-115068108D01*
X171313500Y-115068106D01*
X171313501Y-115068105D01*
X171313501Y-115068104D01*
X171332206Y-114950003D01*
X171332206Y-114949996D01*
X171313501Y-114831895D01*
X171313501Y-114831894D01*
X171313500Y-114831892D01*
X171259211Y-114725345D01*
X171259210Y-114725344D01*
X171259209Y-114725342D01*
X171244812Y-114710945D01*
X171211327Y-114649622D01*
X171216311Y-114579930D01*
X171258183Y-114523997D01*
X171308302Y-114501647D01*
X171314068Y-114500500D01*
X171314069Y-114500500D01*
X171439744Y-114475501D01*
X171558127Y-114426465D01*
X171664669Y-114355276D01*
X171755276Y-114264669D01*
X171826465Y-114158127D01*
X171875501Y-114039744D01*
X171883408Y-113999996D01*
X173817794Y-113999996D01*
X173817794Y-114000003D01*
X173836498Y-114118104D01*
X173836498Y-114118105D01*
X173890790Y-114224657D01*
X173975342Y-114309209D01*
X173975344Y-114309210D01*
X173975345Y-114309211D01*
X174081892Y-114363500D01*
X174081893Y-114363500D01*
X174081895Y-114363501D01*
X174199997Y-114382206D01*
X174200000Y-114382206D01*
X174200003Y-114382206D01*
X174318104Y-114363501D01*
X174318105Y-114363501D01*
X174318106Y-114363500D01*
X174318108Y-114363500D01*
X174424655Y-114309211D01*
X174509211Y-114224655D01*
X174563500Y-114118108D01*
X174563500Y-114118106D01*
X174563501Y-114118105D01*
X174563501Y-114118104D01*
X174582206Y-114000003D01*
X174582206Y-113999996D01*
X174563501Y-113881895D01*
X174563501Y-113881894D01*
X174542557Y-113840789D01*
X174509211Y-113775345D01*
X174509210Y-113775344D01*
X174509209Y-113775342D01*
X174424657Y-113690790D01*
X174318104Y-113636498D01*
X174200003Y-113617794D01*
X174199997Y-113617794D01*
X174081895Y-113636498D01*
X174081894Y-113636498D01*
X173975342Y-113690790D01*
X173890790Y-113775342D01*
X173836498Y-113881894D01*
X173836498Y-113881895D01*
X173817794Y-113999996D01*
X171883408Y-113999996D01*
X171900500Y-113914069D01*
X171900500Y-113785931D01*
X171900500Y-113785928D01*
X171875502Y-113660261D01*
X171875501Y-113660260D01*
X171875501Y-113660256D01*
X171826465Y-113541873D01*
X171826464Y-113541872D01*
X171826461Y-113541866D01*
X171755276Y-113435331D01*
X171755273Y-113435327D01*
X171664672Y-113344726D01*
X171664668Y-113344723D01*
X171558133Y-113273538D01*
X171558124Y-113273533D01*
X171439744Y-113224499D01*
X171439738Y-113224497D01*
X171314071Y-113199500D01*
X171314069Y-113199500D01*
X171185931Y-113199500D01*
X171185929Y-113199500D01*
X171060261Y-113224497D01*
X171060255Y-113224499D01*
X170941875Y-113273533D01*
X170941866Y-113273538D01*
X170835331Y-113344723D01*
X170835327Y-113344726D01*
X170744726Y-113435327D01*
X170744723Y-113435331D01*
X170673538Y-113541866D01*
X170673533Y-113541875D01*
X170624499Y-113660255D01*
X170624497Y-113660261D01*
X170599500Y-113785928D01*
X170599500Y-113785931D01*
X170599500Y-113914069D01*
X170599500Y-113914071D01*
X170599499Y-113914071D01*
X170624497Y-114039738D01*
X170624499Y-114039744D01*
X170673533Y-114158124D01*
X170673538Y-114158133D01*
X170744723Y-114264668D01*
X170744726Y-114264672D01*
X170835327Y-114355273D01*
X170835332Y-114355277D01*
X170854468Y-114368063D01*
X170899274Y-114421674D01*
X170907983Y-114490999D01*
X170877829Y-114554027D01*
X170839129Y-114579208D01*
X170840587Y-114582070D01*
X170831892Y-114586499D01*
X170831892Y-114586500D01*
X170805405Y-114599996D01*
X170725342Y-114640790D01*
X170640790Y-114725342D01*
X170586498Y-114831894D01*
X170586498Y-114831895D01*
X170567794Y-114949996D01*
X160644595Y-114949996D01*
X160618104Y-114936498D01*
X160500003Y-114917794D01*
X160499997Y-114917794D01*
X160381895Y-114936498D01*
X160381894Y-114936498D01*
X160275342Y-114990790D01*
X160190790Y-115075342D01*
X160136498Y-115181894D01*
X160136498Y-115181895D01*
X160117794Y-115299996D01*
X146633863Y-115299996D01*
X146624657Y-115290790D01*
X146518104Y-115236498D01*
X146400003Y-115217794D01*
X146399997Y-115217794D01*
X146281895Y-115236498D01*
X146281894Y-115236498D01*
X146175342Y-115290790D01*
X146087681Y-115378452D01*
X146026358Y-115411937D01*
X145956666Y-115406953D01*
X145912319Y-115378452D01*
X145824657Y-115290790D01*
X145718104Y-115236498D01*
X145600003Y-115217794D01*
X145599997Y-115217794D01*
X145481895Y-115236498D01*
X145481894Y-115236498D01*
X145375342Y-115290790D01*
X145290790Y-115375342D01*
X145236498Y-115481894D01*
X145236498Y-115481895D01*
X145217794Y-115599996D01*
X145217794Y-115600003D01*
X145236498Y-115718103D01*
X145237902Y-115722423D01*
X145239897Y-115792265D01*
X145203817Y-115852098D01*
X145141116Y-115882926D01*
X145071702Y-115874962D01*
X145032290Y-115848423D01*
X145024657Y-115840790D01*
X144929422Y-115792265D01*
X144918108Y-115786500D01*
X144918107Y-115786499D01*
X144918104Y-115786498D01*
X144800003Y-115767794D01*
X144799997Y-115767794D01*
X144681895Y-115786498D01*
X144681894Y-115786498D01*
X144575342Y-115840790D01*
X144490790Y-115925342D01*
X144436498Y-116031894D01*
X144436498Y-116031895D01*
X144417794Y-116149996D01*
X136458390Y-116149996D01*
X136401222Y-116108461D01*
X136401220Y-116108460D01*
X136401221Y-116108460D01*
X136228875Y-116031726D01*
X136228870Y-116031724D01*
X136083555Y-116000837D01*
X136044331Y-115992500D01*
X135855669Y-115992500D01*
X135823320Y-115999375D01*
X135671129Y-116031724D01*
X135671124Y-116031726D01*
X135498779Y-116108460D01*
X135346144Y-116219354D01*
X135219906Y-116359557D01*
X135125575Y-116522944D01*
X135067277Y-116702369D01*
X135047556Y-116890000D01*
X133525500Y-116890000D01*
X133525500Y-114599996D01*
X150617794Y-114599996D01*
X150617794Y-114600003D01*
X150636498Y-114718104D01*
X150636498Y-114718105D01*
X150690790Y-114824657D01*
X150775342Y-114909209D01*
X150775344Y-114909210D01*
X150775345Y-114909211D01*
X150881892Y-114963500D01*
X150881893Y-114963500D01*
X150881895Y-114963501D01*
X150999997Y-114982206D01*
X151000000Y-114982206D01*
X151000003Y-114982206D01*
X151118104Y-114963501D01*
X151118105Y-114963501D01*
X151118106Y-114963500D01*
X151118108Y-114963500D01*
X151224655Y-114909211D01*
X151309211Y-114824655D01*
X151363500Y-114718108D01*
X151363500Y-114718106D01*
X151363501Y-114718105D01*
X151363501Y-114718104D01*
X151374288Y-114649996D01*
X155117794Y-114649996D01*
X155117794Y-114650003D01*
X155136498Y-114768104D01*
X155136498Y-114768105D01*
X155190790Y-114874657D01*
X155275342Y-114959209D01*
X155275344Y-114959210D01*
X155275345Y-114959211D01*
X155381892Y-115013500D01*
X155381893Y-115013500D01*
X155381895Y-115013501D01*
X155499997Y-115032206D01*
X155500000Y-115032206D01*
X155500003Y-115032206D01*
X155618104Y-115013501D01*
X155618105Y-115013501D01*
X155618106Y-115013500D01*
X155618108Y-115013500D01*
X155724655Y-114959211D01*
X155809211Y-114874655D01*
X155863500Y-114768108D01*
X155863500Y-114768106D01*
X155863501Y-114768105D01*
X155863501Y-114768104D01*
X155877527Y-114679546D01*
X155891271Y-114650551D01*
X155890767Y-114649448D01*
X156108727Y-114649448D01*
X156122473Y-114679546D01*
X156136498Y-114768104D01*
X156136498Y-114768105D01*
X156190790Y-114874657D01*
X156275342Y-114959209D01*
X156275344Y-114959210D01*
X156275345Y-114959211D01*
X156381892Y-115013500D01*
X156381893Y-115013500D01*
X156381895Y-115013501D01*
X156499997Y-115032206D01*
X156500000Y-115032206D01*
X156500003Y-115032206D01*
X156618104Y-115013501D01*
X156618105Y-115013501D01*
X156618106Y-115013500D01*
X156618108Y-115013500D01*
X156724655Y-114959211D01*
X156809211Y-114874655D01*
X156863500Y-114768108D01*
X156863500Y-114768106D01*
X156863501Y-114768105D01*
X156863501Y-114768104D01*
X156882206Y-114650003D01*
X156882206Y-114649996D01*
X156863501Y-114531895D01*
X156863501Y-114531894D01*
X156838023Y-114481892D01*
X156809211Y-114425345D01*
X156809210Y-114425344D01*
X156809209Y-114425342D01*
X156783863Y-114399996D01*
X157367794Y-114399996D01*
X157367794Y-114400003D01*
X157386498Y-114518104D01*
X157386498Y-114518105D01*
X157440790Y-114624657D01*
X157525342Y-114709209D01*
X157525344Y-114709210D01*
X157525345Y-114709211D01*
X157631892Y-114763500D01*
X157631893Y-114763500D01*
X157631895Y-114763501D01*
X157749997Y-114782206D01*
X157750000Y-114782206D01*
X157750003Y-114782206D01*
X157868104Y-114763501D01*
X157868105Y-114763501D01*
X157868106Y-114763500D01*
X157868108Y-114763500D01*
X157974655Y-114709211D01*
X158059211Y-114624655D01*
X158113500Y-114518108D01*
X158113500Y-114518106D01*
X158113501Y-114518105D01*
X158113501Y-114518104D01*
X158132206Y-114400003D01*
X158132206Y-114399996D01*
X158113501Y-114281895D01*
X158113501Y-114281894D01*
X158059209Y-114175342D01*
X157974657Y-114090790D01*
X157868104Y-114036498D01*
X157750003Y-114017794D01*
X157749997Y-114017794D01*
X157631895Y-114036498D01*
X157631894Y-114036498D01*
X157525342Y-114090790D01*
X157440790Y-114175342D01*
X157386498Y-114281894D01*
X157386498Y-114281895D01*
X157367794Y-114399996D01*
X156783863Y-114399996D01*
X156724657Y-114340790D01*
X156662676Y-114309209D01*
X156618108Y-114286500D01*
X156618107Y-114286499D01*
X156618104Y-114286498D01*
X156500003Y-114267794D01*
X156499997Y-114267794D01*
X156381895Y-114286498D01*
X156381894Y-114286498D01*
X156275342Y-114340790D01*
X156190790Y-114425342D01*
X156136498Y-114531894D01*
X156136498Y-114531895D01*
X156122473Y-114620453D01*
X156108727Y-114649448D01*
X155890767Y-114649448D01*
X155877527Y-114620453D01*
X155863501Y-114531895D01*
X155863501Y-114531894D01*
X155838023Y-114481892D01*
X155809211Y-114425345D01*
X155809210Y-114425344D01*
X155809209Y-114425342D01*
X155724657Y-114340790D01*
X155662676Y-114309209D01*
X155618108Y-114286500D01*
X155618107Y-114286499D01*
X155618104Y-114286498D01*
X155500003Y-114267794D01*
X155499997Y-114267794D01*
X155381895Y-114286498D01*
X155381894Y-114286498D01*
X155275342Y-114340790D01*
X155190790Y-114425342D01*
X155136498Y-114531894D01*
X155136498Y-114531895D01*
X155117794Y-114649996D01*
X151374288Y-114649996D01*
X151382206Y-114600003D01*
X151382206Y-114599996D01*
X151363501Y-114481895D01*
X151363501Y-114481894D01*
X151351942Y-114459209D01*
X151309211Y-114375345D01*
X151309210Y-114375344D01*
X151309209Y-114375342D01*
X151224657Y-114290790D01*
X151118104Y-114236498D01*
X151000003Y-114217794D01*
X150999997Y-114217794D01*
X150881895Y-114236498D01*
X150881894Y-114236498D01*
X150775342Y-114290790D01*
X150690790Y-114375342D01*
X150636498Y-114481894D01*
X150636498Y-114481895D01*
X150617794Y-114599996D01*
X133525500Y-114599996D01*
X133525500Y-114149996D01*
X154167794Y-114149996D01*
X154167794Y-114150003D01*
X154186498Y-114268104D01*
X154186498Y-114268105D01*
X154240790Y-114374657D01*
X154325342Y-114459209D01*
X154325344Y-114459210D01*
X154325345Y-114459211D01*
X154431892Y-114513500D01*
X154431893Y-114513500D01*
X154431895Y-114513501D01*
X154549997Y-114532206D01*
X154550000Y-114532206D01*
X154550003Y-114532206D01*
X154668104Y-114513501D01*
X154668105Y-114513501D01*
X154668106Y-114513500D01*
X154668108Y-114513500D01*
X154774655Y-114459211D01*
X154859211Y-114374655D01*
X154913500Y-114268108D01*
X154913500Y-114268106D01*
X154913501Y-114268105D01*
X154913501Y-114268104D01*
X154932206Y-114150003D01*
X154932206Y-114149996D01*
X154913501Y-114031895D01*
X154913501Y-114031894D01*
X154906317Y-114017794D01*
X154859211Y-113925345D01*
X154859210Y-113925344D01*
X154859209Y-113925342D01*
X154774657Y-113840790D01*
X154668104Y-113786498D01*
X154550003Y-113767794D01*
X154549997Y-113767794D01*
X154431895Y-113786498D01*
X154431894Y-113786498D01*
X154325342Y-113840790D01*
X154240790Y-113925342D01*
X154186498Y-114031894D01*
X154186498Y-114031895D01*
X154167794Y-114149996D01*
X133525500Y-114149996D01*
X133525500Y-113749996D01*
X158617794Y-113749996D01*
X158617794Y-113750003D01*
X158636498Y-113868104D01*
X158636498Y-113868105D01*
X158690790Y-113974657D01*
X158775342Y-114059209D01*
X158775344Y-114059210D01*
X158775345Y-114059211D01*
X158881892Y-114113500D01*
X158881893Y-114113500D01*
X158881895Y-114113501D01*
X158999997Y-114132206D01*
X159000000Y-114132206D01*
X159000003Y-114132206D01*
X159118104Y-114113501D01*
X159118105Y-114113501D01*
X159118106Y-114113500D01*
X159118108Y-114113500D01*
X159224655Y-114059211D01*
X159309211Y-113974655D01*
X159363500Y-113868108D01*
X159363500Y-113868106D01*
X159363501Y-113868105D01*
X159363501Y-113868104D01*
X159382206Y-113750003D01*
X159382206Y-113749996D01*
X159363501Y-113631895D01*
X159363501Y-113631894D01*
X159338183Y-113582206D01*
X159309211Y-113525345D01*
X159309210Y-113525344D01*
X159309209Y-113525342D01*
X159224657Y-113440790D01*
X159118104Y-113386498D01*
X159000003Y-113367794D01*
X158999997Y-113367794D01*
X158881895Y-113386498D01*
X158881894Y-113386498D01*
X158775342Y-113440790D01*
X158690790Y-113525342D01*
X158636498Y-113631894D01*
X158636498Y-113631895D01*
X158617794Y-113749996D01*
X133525500Y-113749996D01*
X133525500Y-112999996D01*
X146667794Y-112999996D01*
X146667794Y-113000003D01*
X146686498Y-113118104D01*
X146686498Y-113118105D01*
X146740790Y-113224657D01*
X146825342Y-113309209D01*
X146825344Y-113309210D01*
X146825345Y-113309211D01*
X146931892Y-113363500D01*
X146931893Y-113363500D01*
X146931895Y-113363501D01*
X147049997Y-113382206D01*
X147050000Y-113382206D01*
X147050003Y-113382206D01*
X147168104Y-113363501D01*
X147168105Y-113363501D01*
X147168106Y-113363500D01*
X147168108Y-113363500D01*
X147274655Y-113309211D01*
X147359211Y-113224655D01*
X147371776Y-113199996D01*
X163017794Y-113199996D01*
X163017794Y-113200003D01*
X163036498Y-113318104D01*
X163036498Y-113318105D01*
X163090790Y-113424657D01*
X163175342Y-113509209D01*
X163175344Y-113509210D01*
X163175345Y-113509211D01*
X163281892Y-113563500D01*
X163281893Y-113563500D01*
X163281895Y-113563501D01*
X163399997Y-113582206D01*
X163400000Y-113582206D01*
X163400003Y-113582206D01*
X163518104Y-113563501D01*
X163518105Y-113563501D01*
X163518106Y-113563500D01*
X163518108Y-113563500D01*
X163624655Y-113509211D01*
X163709211Y-113424655D01*
X163763500Y-113318108D01*
X163763500Y-113318106D01*
X163763501Y-113318105D01*
X163763501Y-113318104D01*
X163782206Y-113200003D01*
X163782206Y-113199996D01*
X163763501Y-113081895D01*
X163763501Y-113081894D01*
X163709209Y-112975342D01*
X163624657Y-112890790D01*
X163518104Y-112836498D01*
X163400003Y-112817794D01*
X163399997Y-112817794D01*
X163281895Y-112836498D01*
X163281894Y-112836498D01*
X163175342Y-112890790D01*
X163090790Y-112975342D01*
X163036498Y-113081894D01*
X163036498Y-113081895D01*
X163017794Y-113199996D01*
X147371776Y-113199996D01*
X147413500Y-113118108D01*
X147413500Y-113118106D01*
X147413501Y-113118105D01*
X147413501Y-113118104D01*
X147432206Y-113000003D01*
X147432206Y-112999996D01*
X147413501Y-112881895D01*
X147413501Y-112881894D01*
X147380840Y-112817794D01*
X147359211Y-112775345D01*
X147359210Y-112775344D01*
X147359209Y-112775342D01*
X147274657Y-112690790D01*
X147168104Y-112636498D01*
X147050003Y-112617794D01*
X147049997Y-112617794D01*
X146931895Y-112636498D01*
X146931894Y-112636498D01*
X146825342Y-112690790D01*
X146740790Y-112775342D01*
X146686498Y-112881894D01*
X146686498Y-112881895D01*
X146667794Y-112999996D01*
X133525500Y-112999996D01*
X133525500Y-112381805D01*
X135282499Y-112381805D01*
X135306613Y-112503029D01*
X135306616Y-112503039D01*
X135353913Y-112617226D01*
X135353920Y-112617239D01*
X135422588Y-112720007D01*
X135422591Y-112720011D01*
X135509988Y-112807408D01*
X135509992Y-112807411D01*
X135612760Y-112876079D01*
X135612773Y-112876086D01*
X135726960Y-112923383D01*
X135726965Y-112923385D01*
X135726969Y-112923385D01*
X135726970Y-112923386D01*
X135848194Y-112947500D01*
X135848197Y-112947500D01*
X136571805Y-112947500D01*
X136653361Y-112931276D01*
X136693035Y-112923385D01*
X136792451Y-112882206D01*
X136807226Y-112876086D01*
X136807226Y-112876085D01*
X136807233Y-112876083D01*
X136910008Y-112807411D01*
X136997411Y-112720008D01*
X137066083Y-112617233D01*
X137113385Y-112503035D01*
X137137482Y-112381894D01*
X137137500Y-112381805D01*
X139212499Y-112381805D01*
X139236613Y-112503029D01*
X139236616Y-112503039D01*
X139283913Y-112617226D01*
X139283920Y-112617239D01*
X139352588Y-112720007D01*
X139352591Y-112720011D01*
X139439988Y-112807408D01*
X139439992Y-112807411D01*
X139542760Y-112876079D01*
X139542773Y-112876086D01*
X139656960Y-112923383D01*
X139656965Y-112923385D01*
X139656969Y-112923385D01*
X139656970Y-112923386D01*
X139778194Y-112947500D01*
X139778197Y-112947500D01*
X141001805Y-112947500D01*
X141083361Y-112931276D01*
X141123035Y-112923385D01*
X141222451Y-112882206D01*
X141237226Y-112876086D01*
X141237226Y-112876085D01*
X141237233Y-112876083D01*
X141340008Y-112807411D01*
X141427411Y-112720008D01*
X141496083Y-112617233D01*
X141543385Y-112503035D01*
X141567482Y-112381894D01*
X141567500Y-112381805D01*
X141567500Y-112258194D01*
X141543386Y-112136970D01*
X141543385Y-112136969D01*
X141543385Y-112136965D01*
X141524553Y-112091499D01*
X141496086Y-112022773D01*
X141496079Y-112022760D01*
X141427411Y-111919992D01*
X141427408Y-111919988D01*
X141340011Y-111832591D01*
X141340007Y-111832588D01*
X141237239Y-111763920D01*
X141237226Y-111763913D01*
X141123039Y-111716616D01*
X141123029Y-111716613D01*
X141001805Y-111692500D01*
X141001803Y-111692500D01*
X140060464Y-111692500D01*
X139993425Y-111672815D01*
X139947670Y-111620011D01*
X139937726Y-111550853D01*
X139966751Y-111487297D01*
X140025529Y-111449523D01*
X140028352Y-111448730D01*
X140112135Y-111426281D01*
X140243365Y-111350515D01*
X140350515Y-111243365D01*
X140426281Y-111112135D01*
X140465500Y-110965766D01*
X140465500Y-110814234D01*
X140426281Y-110667865D01*
X140350515Y-110536635D01*
X140243365Y-110429485D01*
X140160937Y-110381895D01*
X140112136Y-110353719D01*
X140038950Y-110334109D01*
X139965766Y-110314500D01*
X139814234Y-110314500D01*
X139667863Y-110353719D01*
X139536635Y-110429485D01*
X139536632Y-110429487D01*
X139429487Y-110536632D01*
X139429485Y-110536635D01*
X139353719Y-110667863D01*
X139328094Y-110763500D01*
X139314500Y-110814234D01*
X139314500Y-110965766D01*
X139323663Y-110999964D01*
X139353719Y-111112136D01*
X139375578Y-111149996D01*
X139429485Y-111243365D01*
X139536635Y-111350515D01*
X139650281Y-111416129D01*
X139666238Y-111425342D01*
X139667865Y-111426281D01*
X139771419Y-111454028D01*
X139831079Y-111490392D01*
X139861608Y-111553238D01*
X139853314Y-111622614D01*
X139808828Y-111676492D01*
X139763517Y-111695419D01*
X139656970Y-111716613D01*
X139656960Y-111716616D01*
X139542773Y-111763913D01*
X139542760Y-111763920D01*
X139439992Y-111832588D01*
X139439988Y-111832591D01*
X139352591Y-111919988D01*
X139352588Y-111919992D01*
X139283920Y-112022760D01*
X139283913Y-112022773D01*
X139236616Y-112136960D01*
X139236613Y-112136970D01*
X139212500Y-112258194D01*
X139212500Y-112258197D01*
X139212500Y-112381803D01*
X139212500Y-112381805D01*
X139212499Y-112381805D01*
X137137500Y-112381805D01*
X137137500Y-112258194D01*
X137113386Y-112136970D01*
X137113385Y-112136969D01*
X137113385Y-112136965D01*
X137094553Y-112091499D01*
X137066086Y-112022773D01*
X137066079Y-112022760D01*
X136997411Y-111919992D01*
X136997408Y-111919988D01*
X136910011Y-111832591D01*
X136910007Y-111832588D01*
X136807239Y-111763920D01*
X136807226Y-111763913D01*
X136693039Y-111716616D01*
X136693029Y-111716613D01*
X136571805Y-111692500D01*
X136571803Y-111692500D01*
X135848197Y-111692500D01*
X135848195Y-111692500D01*
X135726970Y-111716613D01*
X135726960Y-111716616D01*
X135612773Y-111763913D01*
X135612760Y-111763920D01*
X135509992Y-111832588D01*
X135509988Y-111832591D01*
X135422591Y-111919988D01*
X135422588Y-111919992D01*
X135353920Y-112022760D01*
X135353913Y-112022773D01*
X135306616Y-112136960D01*
X135306613Y-112136970D01*
X135282500Y-112258194D01*
X135282500Y-112258197D01*
X135282500Y-112381803D01*
X135282500Y-112381805D01*
X135282499Y-112381805D01*
X133525500Y-112381805D01*
X133525500Y-109999996D01*
X145967794Y-109999996D01*
X145967794Y-110000003D01*
X145986498Y-110118104D01*
X145986498Y-110118105D01*
X146040790Y-110224657D01*
X146125342Y-110309209D01*
X146125344Y-110309210D01*
X146125345Y-110309211D01*
X146231892Y-110363500D01*
X146313193Y-110376376D01*
X146376325Y-110406304D01*
X146413257Y-110465615D01*
X146417794Y-110498849D01*
X146417794Y-110500003D01*
X146436498Y-110618104D01*
X146436498Y-110618105D01*
X146490790Y-110724657D01*
X146575342Y-110809209D01*
X146575344Y-110809210D01*
X146575345Y-110809211D01*
X146681892Y-110863500D01*
X146681893Y-110863500D01*
X146681895Y-110863501D01*
X146799997Y-110882206D01*
X146800000Y-110882206D01*
X146824396Y-110878342D01*
X146893688Y-110887296D01*
X146947141Y-110932292D01*
X146965151Y-110990538D01*
X146966267Y-110990362D01*
X146967495Y-110998120D01*
X146967781Y-110999043D01*
X146967787Y-110999964D01*
X146986498Y-111118104D01*
X146986498Y-111118105D01*
X147040790Y-111224657D01*
X147125342Y-111309209D01*
X147125344Y-111309210D01*
X147125345Y-111309211D01*
X147231892Y-111363500D01*
X147231893Y-111363500D01*
X147231895Y-111363501D01*
X147349997Y-111382206D01*
X147350000Y-111382206D01*
X147350003Y-111382206D01*
X147468104Y-111363501D01*
X147468105Y-111363501D01*
X147468106Y-111363500D01*
X147468108Y-111363500D01*
X147574655Y-111309211D01*
X147659211Y-111224655D01*
X147713500Y-111118108D01*
X147713500Y-111118106D01*
X147713501Y-111118105D01*
X147713501Y-111118104D01*
X147732206Y-111000003D01*
X147732206Y-110999996D01*
X147713501Y-110881895D01*
X147713501Y-110881894D01*
X147676860Y-110809983D01*
X147659211Y-110775345D01*
X147659210Y-110775344D01*
X147659209Y-110775342D01*
X147574657Y-110690790D01*
X147468104Y-110636498D01*
X147350003Y-110617794D01*
X147350001Y-110617794D01*
X147350000Y-110617794D01*
X147338109Y-110619677D01*
X147325602Y-110621658D01*
X147256308Y-110612702D01*
X147202857Y-110567704D01*
X147184849Y-110509461D01*
X147183733Y-110509638D01*
X147182502Y-110501869D01*
X147182219Y-110500952D01*
X147182212Y-110500036D01*
X147182206Y-110499996D01*
X157517794Y-110499996D01*
X157517794Y-110500003D01*
X157536498Y-110618104D01*
X157536498Y-110618105D01*
X157590790Y-110724657D01*
X157675342Y-110809209D01*
X157675344Y-110809210D01*
X157675345Y-110809211D01*
X157781892Y-110863500D01*
X157781893Y-110863500D01*
X157781895Y-110863501D01*
X157899997Y-110882206D01*
X157900000Y-110882206D01*
X157900003Y-110882206D01*
X158000748Y-110866250D01*
X158070041Y-110875205D01*
X158123493Y-110920201D01*
X158144132Y-110986953D01*
X158138075Y-111027043D01*
X158136499Y-111031892D01*
X158117794Y-111149996D01*
X158117794Y-111150003D01*
X158136498Y-111268104D01*
X158136498Y-111268105D01*
X158190790Y-111374657D01*
X158275342Y-111459209D01*
X158275344Y-111459210D01*
X158275345Y-111459211D01*
X158381892Y-111513500D01*
X158381893Y-111513500D01*
X158381895Y-111513501D01*
X158499997Y-111532206D01*
X158500000Y-111532206D01*
X158500002Y-111532206D01*
X158553117Y-111523793D01*
X158574396Y-111520423D01*
X158643689Y-111529377D01*
X158697141Y-111574374D01*
X158717781Y-111641125D01*
X158717794Y-111642896D01*
X158717794Y-111650003D01*
X158736498Y-111768104D01*
X158736498Y-111768105D01*
X158790790Y-111874657D01*
X158875342Y-111959209D01*
X158875344Y-111959210D01*
X158875345Y-111959211D01*
X158981892Y-112013500D01*
X158981893Y-112013500D01*
X158981895Y-112013501D01*
X159099997Y-112032206D01*
X159100000Y-112032206D01*
X159100003Y-112032206D01*
X159218104Y-112013501D01*
X159218105Y-112013501D01*
X159218106Y-112013500D01*
X159218108Y-112013500D01*
X159324655Y-111959211D01*
X159409211Y-111874655D01*
X159463500Y-111768108D01*
X159463500Y-111768106D01*
X159463501Y-111768105D01*
X159463501Y-111768104D01*
X159474288Y-111699996D01*
X161467794Y-111699996D01*
X161467794Y-111700003D01*
X161486498Y-111818104D01*
X161486498Y-111818105D01*
X161540790Y-111924657D01*
X161625342Y-112009209D01*
X161625344Y-112009210D01*
X161625345Y-112009211D01*
X161726056Y-112060526D01*
X161776851Y-112108499D01*
X161793646Y-112176320D01*
X161771109Y-112242455D01*
X161757443Y-112258689D01*
X161740790Y-112275342D01*
X161686498Y-112381894D01*
X161686498Y-112381895D01*
X161667794Y-112499996D01*
X161667794Y-112500003D01*
X161686498Y-112618104D01*
X161686498Y-112618105D01*
X161740790Y-112724657D01*
X161825342Y-112809209D01*
X161825344Y-112809210D01*
X161825345Y-112809211D01*
X161931892Y-112863500D01*
X161931893Y-112863500D01*
X161931895Y-112863501D01*
X162049997Y-112882206D01*
X162050000Y-112882206D01*
X162050003Y-112882206D01*
X162168104Y-112863501D01*
X162168105Y-112863501D01*
X162168106Y-112863500D01*
X162168108Y-112863500D01*
X162274655Y-112809211D01*
X162359211Y-112724655D01*
X162413500Y-112618108D01*
X162413500Y-112618106D01*
X162413501Y-112618105D01*
X162413501Y-112618104D01*
X162432206Y-112500003D01*
X162432206Y-112499996D01*
X162413501Y-112381895D01*
X162413501Y-112381894D01*
X162359209Y-112275342D01*
X162274657Y-112190790D01*
X162246258Y-112176320D01*
X162173943Y-112139473D01*
X162123148Y-112091499D01*
X162106353Y-112023678D01*
X162128891Y-111957543D01*
X162142560Y-111941306D01*
X162159211Y-111924655D01*
X162213500Y-111818108D01*
X162213500Y-111818106D01*
X162213501Y-111818105D01*
X162213501Y-111818104D01*
X162232206Y-111700003D01*
X162232206Y-111699996D01*
X162224287Y-111649996D01*
X164217794Y-111649996D01*
X164217794Y-111650003D01*
X164236498Y-111768104D01*
X164236498Y-111768105D01*
X164290790Y-111874657D01*
X164375342Y-111959209D01*
X164375344Y-111959210D01*
X164375345Y-111959211D01*
X164481892Y-112013500D01*
X164481893Y-112013500D01*
X164481895Y-112013501D01*
X164599997Y-112032206D01*
X164600000Y-112032206D01*
X164600003Y-112032206D01*
X164718104Y-112013501D01*
X164718105Y-112013501D01*
X164718106Y-112013500D01*
X164718108Y-112013500D01*
X164824655Y-111959211D01*
X164909211Y-111874655D01*
X164963500Y-111768108D01*
X164963500Y-111768106D01*
X164963501Y-111768105D01*
X164963501Y-111768104D01*
X164966369Y-111749996D01*
X171817794Y-111749996D01*
X171817794Y-111750003D01*
X171836498Y-111868104D01*
X171836498Y-111868105D01*
X171890790Y-111974657D01*
X171975342Y-112059209D01*
X171975344Y-112059210D01*
X171975345Y-112059211D01*
X172081892Y-112113500D01*
X172081893Y-112113500D01*
X172081895Y-112113501D01*
X172199997Y-112132206D01*
X172200000Y-112132206D01*
X172200003Y-112132206D01*
X172318104Y-112113501D01*
X172318105Y-112113501D01*
X172318106Y-112113500D01*
X172318108Y-112113500D01*
X172424655Y-112059211D01*
X172509211Y-111974655D01*
X172563500Y-111868108D01*
X172563500Y-111868106D01*
X172563501Y-111868105D01*
X172563501Y-111868104D01*
X172582206Y-111750003D01*
X172582206Y-111749996D01*
X172867794Y-111749996D01*
X172867794Y-111750003D01*
X172886498Y-111868104D01*
X172886498Y-111868105D01*
X172940790Y-111974657D01*
X173025342Y-112059209D01*
X173025344Y-112059210D01*
X173025345Y-112059211D01*
X173131892Y-112113500D01*
X173131893Y-112113500D01*
X173131895Y-112113501D01*
X173249997Y-112132206D01*
X173250000Y-112132206D01*
X173250003Y-112132206D01*
X173368104Y-112113501D01*
X173368105Y-112113501D01*
X173368106Y-112113500D01*
X173368108Y-112113500D01*
X173474655Y-112059211D01*
X173559211Y-111974655D01*
X173613500Y-111868108D01*
X173613500Y-111868106D01*
X173613501Y-111868105D01*
X173613501Y-111868104D01*
X173632206Y-111750003D01*
X173632206Y-111749996D01*
X173613501Y-111631895D01*
X173613501Y-111631894D01*
X173572208Y-111550853D01*
X173559211Y-111525345D01*
X173559210Y-111525344D01*
X173559209Y-111525342D01*
X173474657Y-111440790D01*
X173439139Y-111422692D01*
X173368108Y-111386500D01*
X173368107Y-111386499D01*
X173368104Y-111386498D01*
X173250003Y-111367794D01*
X173249997Y-111367794D01*
X173131895Y-111386498D01*
X173131894Y-111386498D01*
X173025342Y-111440790D01*
X172940790Y-111525342D01*
X172886498Y-111631894D01*
X172886498Y-111631895D01*
X172867794Y-111749996D01*
X172582206Y-111749996D01*
X172563501Y-111631895D01*
X172563501Y-111631894D01*
X172522208Y-111550853D01*
X172509211Y-111525345D01*
X172509210Y-111525344D01*
X172509209Y-111525342D01*
X172424657Y-111440790D01*
X172389139Y-111422692D01*
X172318108Y-111386500D01*
X172318107Y-111386499D01*
X172318104Y-111386498D01*
X172200003Y-111367794D01*
X172199997Y-111367794D01*
X172081895Y-111386498D01*
X172081894Y-111386498D01*
X171975342Y-111440790D01*
X171890790Y-111525342D01*
X171836498Y-111631894D01*
X171836498Y-111631895D01*
X171817794Y-111749996D01*
X164966369Y-111749996D01*
X164982206Y-111650003D01*
X164982206Y-111649996D01*
X164963501Y-111531895D01*
X164963501Y-111531894D01*
X164963500Y-111531892D01*
X164909211Y-111425345D01*
X164909210Y-111425344D01*
X164909209Y-111425342D01*
X164824657Y-111340790D01*
X164718104Y-111286498D01*
X164600003Y-111267794D01*
X164599997Y-111267794D01*
X164481895Y-111286498D01*
X164481894Y-111286498D01*
X164375342Y-111340790D01*
X164290790Y-111425342D01*
X164236498Y-111531894D01*
X164236498Y-111531895D01*
X164217794Y-111649996D01*
X162224287Y-111649996D01*
X162213501Y-111581895D01*
X162213501Y-111581894D01*
X162186742Y-111529377D01*
X162159211Y-111475345D01*
X162159210Y-111475344D01*
X162159209Y-111475342D01*
X162074657Y-111390790D01*
X161995608Y-111350512D01*
X161968108Y-111336500D01*
X161968107Y-111336499D01*
X161968104Y-111336498D01*
X161850003Y-111317794D01*
X161849997Y-111317794D01*
X161731895Y-111336498D01*
X161731894Y-111336498D01*
X161625342Y-111390790D01*
X161540790Y-111475342D01*
X161486498Y-111581894D01*
X161486498Y-111581895D01*
X161467794Y-111699996D01*
X159474288Y-111699996D01*
X159482206Y-111650003D01*
X159482206Y-111649996D01*
X159463501Y-111531895D01*
X159463501Y-111531894D01*
X159463500Y-111531892D01*
X159409211Y-111425345D01*
X159409210Y-111425344D01*
X159409209Y-111425342D01*
X159324657Y-111340790D01*
X159218104Y-111286498D01*
X159100003Y-111267794D01*
X159100001Y-111267794D01*
X159100000Y-111267794D01*
X159025603Y-111279577D01*
X158956309Y-111270621D01*
X158902858Y-111225624D01*
X158882219Y-111158872D01*
X158882206Y-111157103D01*
X158882206Y-111149996D01*
X158863501Y-111031895D01*
X158863501Y-111031894D01*
X158861029Y-111027043D01*
X158809211Y-110925345D01*
X158809210Y-110925344D01*
X158809209Y-110925342D01*
X158801502Y-110917635D01*
X158768017Y-110856312D01*
X158768927Y-110843580D01*
X158704521Y-110830530D01*
X158618104Y-110786498D01*
X158500003Y-110767794D01*
X158500001Y-110767794D01*
X158500000Y-110767794D01*
X158483887Y-110770345D01*
X158399250Y-110783750D01*
X158329957Y-110774794D01*
X158276506Y-110729797D01*
X158255867Y-110663045D01*
X158261927Y-110622946D01*
X158263495Y-110618116D01*
X158263500Y-110618108D01*
X158281910Y-110501869D01*
X158282206Y-110500003D01*
X158282206Y-110499996D01*
X158266368Y-110399996D01*
X158767794Y-110399996D01*
X158767794Y-110400003D01*
X158786498Y-110518104D01*
X158786498Y-110518105D01*
X158840790Y-110624657D01*
X158848497Y-110632364D01*
X158881982Y-110693687D01*
X158881071Y-110706418D01*
X158945476Y-110719468D01*
X159031892Y-110763500D01*
X159031893Y-110763500D01*
X159031895Y-110763501D01*
X159149997Y-110782206D01*
X159150000Y-110782206D01*
X159150003Y-110782206D01*
X159268104Y-110763501D01*
X159268105Y-110763501D01*
X159268106Y-110763500D01*
X159268108Y-110763500D01*
X159374655Y-110709211D01*
X159459211Y-110624655D01*
X159513500Y-110518108D01*
X159513500Y-110518106D01*
X159513501Y-110518105D01*
X159513501Y-110518104D01*
X159532206Y-110400003D01*
X159532206Y-110399996D01*
X159513501Y-110281895D01*
X159513501Y-110281894D01*
X159481000Y-110218108D01*
X159459211Y-110175345D01*
X159459210Y-110175344D01*
X159459209Y-110175342D01*
X159374657Y-110090790D01*
X159268104Y-110036498D01*
X159150003Y-110017794D01*
X159149997Y-110017794D01*
X159031895Y-110036498D01*
X159031894Y-110036498D01*
X158925342Y-110090790D01*
X158840790Y-110175342D01*
X158786498Y-110281894D01*
X158786498Y-110281895D01*
X158767794Y-110399996D01*
X158266368Y-110399996D01*
X158263501Y-110381895D01*
X158263501Y-110381894D01*
X158234336Y-110324655D01*
X158209211Y-110275345D01*
X158209210Y-110275344D01*
X158209209Y-110275342D01*
X158124657Y-110190790D01*
X158018104Y-110136498D01*
X157900003Y-110117794D01*
X157899997Y-110117794D01*
X157781895Y-110136498D01*
X157781894Y-110136498D01*
X157675342Y-110190790D01*
X157590790Y-110275342D01*
X157536498Y-110381894D01*
X157536498Y-110381895D01*
X157517794Y-110499996D01*
X147182206Y-110499996D01*
X147163501Y-110381895D01*
X147163501Y-110381894D01*
X147134336Y-110324655D01*
X147109211Y-110275345D01*
X147109210Y-110275344D01*
X147109209Y-110275342D01*
X147024657Y-110190790D01*
X146918104Y-110136498D01*
X146836809Y-110123623D01*
X146773674Y-110093694D01*
X146736742Y-110034383D01*
X146732206Y-110001150D01*
X146732206Y-109999996D01*
X146713501Y-109881895D01*
X146713501Y-109881894D01*
X146688183Y-109832206D01*
X146659211Y-109775345D01*
X146659210Y-109775344D01*
X146659209Y-109775342D01*
X146574657Y-109690790D01*
X146468104Y-109636498D01*
X146350003Y-109617794D01*
X146349997Y-109617794D01*
X146231895Y-109636498D01*
X146231894Y-109636498D01*
X146125342Y-109690790D01*
X146040790Y-109775342D01*
X145986498Y-109881894D01*
X145986498Y-109881895D01*
X145967794Y-109999996D01*
X133525500Y-109999996D01*
X133525500Y-109449996D01*
X157017794Y-109449996D01*
X157017794Y-109450003D01*
X157036498Y-109568104D01*
X157036498Y-109568105D01*
X157090790Y-109674657D01*
X157175342Y-109759209D01*
X157175344Y-109759210D01*
X157175345Y-109759211D01*
X157281892Y-109813500D01*
X157281893Y-109813500D01*
X157281895Y-109813501D01*
X157399997Y-109832206D01*
X157400000Y-109832206D01*
X157400003Y-109832206D01*
X157518104Y-109813501D01*
X157518105Y-109813501D01*
X157518106Y-109813500D01*
X157518108Y-109813500D01*
X157624655Y-109759211D01*
X157633870Y-109749996D01*
X161767794Y-109749996D01*
X161767794Y-109750003D01*
X161786498Y-109868104D01*
X161786498Y-109868105D01*
X161840790Y-109974657D01*
X161925342Y-110059209D01*
X161925344Y-110059210D01*
X161925345Y-110059211D01*
X162031892Y-110113500D01*
X162031893Y-110113500D01*
X162031895Y-110113501D01*
X162149997Y-110132206D01*
X162150000Y-110132206D01*
X162150003Y-110132206D01*
X162268104Y-110113501D01*
X162268105Y-110113501D01*
X162268106Y-110113500D01*
X162268108Y-110113500D01*
X162294611Y-110099996D01*
X167517794Y-110099996D01*
X167517794Y-110100003D01*
X167536498Y-110218104D01*
X167536498Y-110218105D01*
X167590790Y-110324657D01*
X167675342Y-110409209D01*
X167675344Y-110409210D01*
X167675345Y-110409211D01*
X167781892Y-110463500D01*
X167781893Y-110463500D01*
X167781895Y-110463501D01*
X167899997Y-110482206D01*
X167900000Y-110482206D01*
X167900003Y-110482206D01*
X168018104Y-110463501D01*
X168018105Y-110463501D01*
X168018106Y-110463500D01*
X168018108Y-110463500D01*
X168124655Y-110409211D01*
X168209211Y-110324655D01*
X168263500Y-110218108D01*
X168263500Y-110218106D01*
X168263501Y-110218105D01*
X168263501Y-110218104D01*
X168282206Y-110100003D01*
X168282206Y-110099996D01*
X168263501Y-109981895D01*
X168263501Y-109981894D01*
X168263500Y-109981892D01*
X168209211Y-109875345D01*
X168209210Y-109875344D01*
X168209209Y-109875342D01*
X168133863Y-109799996D01*
X171917794Y-109799996D01*
X171917794Y-109800003D01*
X171936498Y-109918104D01*
X171936498Y-109918105D01*
X171990790Y-110024657D01*
X172075342Y-110109209D01*
X172075344Y-110109210D01*
X172075345Y-110109211D01*
X172181892Y-110163500D01*
X172181893Y-110163500D01*
X172181895Y-110163501D01*
X172299997Y-110182206D01*
X172300000Y-110182206D01*
X172300003Y-110182206D01*
X172418104Y-110163501D01*
X172418105Y-110163501D01*
X172418106Y-110163500D01*
X172418108Y-110163500D01*
X172524655Y-110109211D01*
X172609211Y-110024655D01*
X172663500Y-109918108D01*
X172663500Y-109918106D01*
X172663501Y-109918105D01*
X172663501Y-109918104D01*
X172682206Y-109800003D01*
X172682206Y-109799996D01*
X172663501Y-109681895D01*
X172663501Y-109681894D01*
X172663500Y-109681892D01*
X172609211Y-109575345D01*
X172609210Y-109575344D01*
X172609209Y-109575342D01*
X172524657Y-109490790D01*
X172444595Y-109449996D01*
X172418108Y-109436500D01*
X172418107Y-109436499D01*
X172418104Y-109436498D01*
X172300003Y-109417794D01*
X172299997Y-109417794D01*
X172181895Y-109436498D01*
X172181894Y-109436498D01*
X172075342Y-109490790D01*
X171990790Y-109575342D01*
X171936498Y-109681894D01*
X171936498Y-109681895D01*
X171917794Y-109799996D01*
X168133863Y-109799996D01*
X168124657Y-109790790D01*
X168018104Y-109736498D01*
X167900003Y-109717794D01*
X167899997Y-109717794D01*
X167781895Y-109736498D01*
X167781894Y-109736498D01*
X167675342Y-109790790D01*
X167590790Y-109875342D01*
X167536498Y-109981894D01*
X167536498Y-109981895D01*
X167517794Y-110099996D01*
X162294611Y-110099996D01*
X162374655Y-110059211D01*
X162459211Y-109974655D01*
X162513500Y-109868108D01*
X162513500Y-109868106D01*
X162513501Y-109868105D01*
X162513501Y-109868104D01*
X162532206Y-109750003D01*
X162532206Y-109749996D01*
X162513501Y-109631895D01*
X162513501Y-109631894D01*
X162504129Y-109613500D01*
X162459211Y-109525345D01*
X162459210Y-109525344D01*
X162459209Y-109525342D01*
X162374657Y-109440790D01*
X162268104Y-109386498D01*
X162150003Y-109367794D01*
X162149997Y-109367794D01*
X162031895Y-109386498D01*
X162031894Y-109386498D01*
X161925342Y-109440790D01*
X161840790Y-109525342D01*
X161786498Y-109631894D01*
X161786498Y-109631895D01*
X161767794Y-109749996D01*
X157633870Y-109749996D01*
X157709211Y-109674655D01*
X157763500Y-109568108D01*
X157763500Y-109568106D01*
X157763501Y-109568105D01*
X157763501Y-109568104D01*
X157782206Y-109450003D01*
X157782206Y-109449996D01*
X157763501Y-109331895D01*
X157763501Y-109331894D01*
X157721771Y-109249996D01*
X172767794Y-109249996D01*
X172767794Y-109250003D01*
X172786498Y-109368104D01*
X172786498Y-109368105D01*
X172840790Y-109474657D01*
X172925342Y-109559209D01*
X172925344Y-109559210D01*
X172925345Y-109559211D01*
X173031892Y-109613500D01*
X173031893Y-109613500D01*
X173031895Y-109613501D01*
X173149997Y-109632206D01*
X173150000Y-109632206D01*
X173150003Y-109632206D01*
X173268104Y-109613501D01*
X173268105Y-109613501D01*
X173268106Y-109613500D01*
X173268108Y-109613500D01*
X173374655Y-109559211D01*
X173459211Y-109474655D01*
X173513500Y-109368108D01*
X173513500Y-109368106D01*
X173513501Y-109368105D01*
X173513501Y-109368104D01*
X173532206Y-109250003D01*
X173532206Y-109249996D01*
X173513501Y-109131895D01*
X173513501Y-109131894D01*
X173459209Y-109025342D01*
X173374657Y-108940790D01*
X173268104Y-108886498D01*
X173150003Y-108867794D01*
X173149997Y-108867794D01*
X173031895Y-108886498D01*
X173031894Y-108886498D01*
X172925342Y-108940790D01*
X172840790Y-109025342D01*
X172786498Y-109131894D01*
X172786498Y-109131895D01*
X172767794Y-109249996D01*
X157721771Y-109249996D01*
X157709209Y-109225342D01*
X157624657Y-109140790D01*
X157518104Y-109086498D01*
X157400003Y-109067794D01*
X157399997Y-109067794D01*
X157281895Y-109086498D01*
X157281894Y-109086498D01*
X157175342Y-109140790D01*
X157090790Y-109225342D01*
X157036498Y-109331894D01*
X157036498Y-109331895D01*
X157017794Y-109449996D01*
X133525500Y-109449996D01*
X133525500Y-107724996D01*
X156692794Y-107724996D01*
X156692794Y-107725003D01*
X156711498Y-107843104D01*
X156711498Y-107843105D01*
X156765790Y-107949657D01*
X156850342Y-108034209D01*
X156850344Y-108034210D01*
X156850345Y-108034211D01*
X156956892Y-108088500D01*
X156956893Y-108088500D01*
X156956895Y-108088501D01*
X157074997Y-108107206D01*
X157075000Y-108107206D01*
X157075003Y-108107206D01*
X157193104Y-108088501D01*
X157193105Y-108088501D01*
X157193106Y-108088500D01*
X157193108Y-108088500D01*
X157299655Y-108034211D01*
X157333870Y-107999996D01*
X168567794Y-107999996D01*
X168567794Y-108000003D01*
X168586498Y-108118104D01*
X168586498Y-108118105D01*
X168640790Y-108224657D01*
X168725342Y-108309209D01*
X168725344Y-108309210D01*
X168725345Y-108309211D01*
X168831892Y-108363500D01*
X168831893Y-108363500D01*
X168831895Y-108363501D01*
X168949997Y-108382206D01*
X168950000Y-108382206D01*
X168950003Y-108382206D01*
X169068104Y-108363501D01*
X169068105Y-108363501D01*
X169068106Y-108363500D01*
X169068108Y-108363500D01*
X169174655Y-108309211D01*
X169259211Y-108224655D01*
X169313500Y-108118108D01*
X169313500Y-108118106D01*
X169313501Y-108118105D01*
X169313501Y-108118104D01*
X169332206Y-108000003D01*
X169332206Y-107999996D01*
X169313501Y-107881895D01*
X169313501Y-107881894D01*
X169259209Y-107775342D01*
X169174657Y-107690790D01*
X169068104Y-107636498D01*
X168950003Y-107617794D01*
X168949997Y-107617794D01*
X168831895Y-107636498D01*
X168831894Y-107636498D01*
X168725342Y-107690790D01*
X168640790Y-107775342D01*
X168586498Y-107881894D01*
X168586498Y-107881895D01*
X168567794Y-107999996D01*
X157333870Y-107999996D01*
X157384211Y-107949655D01*
X157438500Y-107843108D01*
X157438500Y-107843106D01*
X157438501Y-107843105D01*
X157438501Y-107843104D01*
X157457206Y-107725003D01*
X157457206Y-107724996D01*
X157438501Y-107606895D01*
X157438501Y-107606894D01*
X157423758Y-107577960D01*
X157384211Y-107500345D01*
X157384210Y-107500344D01*
X157384209Y-107500342D01*
X157299657Y-107415790D01*
X157193104Y-107361498D01*
X157075003Y-107342794D01*
X157074997Y-107342794D01*
X156956895Y-107361498D01*
X156956894Y-107361498D01*
X156850342Y-107415790D01*
X156765790Y-107500342D01*
X156711498Y-107606894D01*
X156711498Y-107606895D01*
X156692794Y-107724996D01*
X133525500Y-107724996D01*
X133525500Y-107299996D01*
X157967794Y-107299996D01*
X157967794Y-107300003D01*
X157986498Y-107418104D01*
X157986498Y-107418105D01*
X158040790Y-107524657D01*
X158125342Y-107609209D01*
X158125344Y-107609210D01*
X158125345Y-107609211D01*
X158231892Y-107663500D01*
X158231893Y-107663500D01*
X158231895Y-107663501D01*
X158349997Y-107682206D01*
X158350000Y-107682206D01*
X158350003Y-107682206D01*
X158468104Y-107663501D01*
X158468105Y-107663501D01*
X158468106Y-107663500D01*
X158468108Y-107663500D01*
X158574655Y-107609211D01*
X158659211Y-107524655D01*
X158713500Y-107418108D01*
X158713500Y-107418106D01*
X158713501Y-107418105D01*
X158713501Y-107418104D01*
X158716369Y-107399996D01*
X172967794Y-107399996D01*
X172967794Y-107400003D01*
X172986498Y-107518104D01*
X172986498Y-107518105D01*
X173040790Y-107624657D01*
X173094194Y-107678061D01*
X173127679Y-107739384D01*
X173122695Y-107809076D01*
X173116998Y-107822037D01*
X173086498Y-107881894D01*
X173086498Y-107881895D01*
X173067794Y-107999996D01*
X173067794Y-108000003D01*
X173086498Y-108118104D01*
X173086498Y-108118105D01*
X173140790Y-108224657D01*
X173225342Y-108309209D01*
X173225344Y-108309210D01*
X173225345Y-108309211D01*
X173331892Y-108363500D01*
X173331893Y-108363500D01*
X173331895Y-108363501D01*
X173449997Y-108382206D01*
X173450000Y-108382206D01*
X173450003Y-108382206D01*
X173568104Y-108363501D01*
X173568105Y-108363501D01*
X173568106Y-108363500D01*
X173568108Y-108363500D01*
X173674655Y-108309211D01*
X173759211Y-108224655D01*
X173813500Y-108118108D01*
X173813500Y-108118106D01*
X173813501Y-108118105D01*
X173813501Y-108118104D01*
X173832206Y-108000003D01*
X173832206Y-107999996D01*
X173813501Y-107881895D01*
X173813501Y-107881894D01*
X173759209Y-107775342D01*
X173705805Y-107721938D01*
X173672320Y-107660615D01*
X173677304Y-107590923D01*
X173682992Y-107577982D01*
X173713500Y-107518108D01*
X173713501Y-107518104D01*
X173732206Y-107400003D01*
X173732206Y-107399996D01*
X173713501Y-107281895D01*
X173713501Y-107281894D01*
X173662548Y-107181895D01*
X173659211Y-107175345D01*
X173659210Y-107175344D01*
X173659209Y-107175342D01*
X173574657Y-107090790D01*
X173468104Y-107036498D01*
X173350003Y-107017794D01*
X173349997Y-107017794D01*
X173231895Y-107036498D01*
X173231894Y-107036498D01*
X173125342Y-107090790D01*
X173040790Y-107175342D01*
X172986498Y-107281894D01*
X172986498Y-107281895D01*
X172967794Y-107399996D01*
X158716369Y-107399996D01*
X158732206Y-107300003D01*
X158732206Y-107299996D01*
X158713501Y-107181895D01*
X158713501Y-107181894D01*
X158681000Y-107118108D01*
X158659211Y-107075345D01*
X158659210Y-107075344D01*
X158659209Y-107075342D01*
X158583863Y-106999996D01*
X161367794Y-106999996D01*
X161367794Y-107000003D01*
X161386498Y-107118104D01*
X161386498Y-107118105D01*
X161440790Y-107224657D01*
X161525342Y-107309209D01*
X161525344Y-107309210D01*
X161525345Y-107309211D01*
X161631892Y-107363500D01*
X161631893Y-107363500D01*
X161631895Y-107363501D01*
X161749997Y-107382206D01*
X161750000Y-107382206D01*
X161750003Y-107382206D01*
X161868104Y-107363501D01*
X161868105Y-107363501D01*
X161868106Y-107363500D01*
X161868108Y-107363500D01*
X161974655Y-107309211D01*
X162059211Y-107224655D01*
X162113500Y-107118108D01*
X162113500Y-107118106D01*
X162113501Y-107118105D01*
X162113501Y-107118104D01*
X162132206Y-107000003D01*
X162132206Y-106999996D01*
X162113501Y-106881895D01*
X162113501Y-106881894D01*
X162059209Y-106775342D01*
X162033863Y-106749996D01*
X168517794Y-106749996D01*
X168517794Y-106750003D01*
X168536498Y-106868104D01*
X168536498Y-106868105D01*
X168590790Y-106974657D01*
X168675342Y-107059209D01*
X168675344Y-107059210D01*
X168675345Y-107059211D01*
X168781892Y-107113500D01*
X168781893Y-107113500D01*
X168781895Y-107113501D01*
X168899997Y-107132206D01*
X168900000Y-107132206D01*
X168900003Y-107132206D01*
X169018104Y-107113501D01*
X169018105Y-107113501D01*
X169018106Y-107113500D01*
X169018108Y-107113500D01*
X169124655Y-107059211D01*
X169209211Y-106974655D01*
X169263500Y-106868108D01*
X169263500Y-106868106D01*
X169263501Y-106868105D01*
X169263501Y-106868104D01*
X169282206Y-106750003D01*
X169282206Y-106749996D01*
X169263501Y-106631895D01*
X169263501Y-106631894D01*
X169209209Y-106525342D01*
X169124657Y-106440790D01*
X169018104Y-106386498D01*
X168900003Y-106367794D01*
X168899997Y-106367794D01*
X168781895Y-106386498D01*
X168781894Y-106386498D01*
X168675342Y-106440790D01*
X168590790Y-106525342D01*
X168536498Y-106631894D01*
X168536498Y-106631895D01*
X168517794Y-106749996D01*
X162033863Y-106749996D01*
X161974657Y-106690790D01*
X161868104Y-106636498D01*
X161750003Y-106617794D01*
X161749997Y-106617794D01*
X161631895Y-106636498D01*
X161631894Y-106636498D01*
X161525342Y-106690790D01*
X161440790Y-106775342D01*
X161386498Y-106881894D01*
X161386498Y-106881895D01*
X161367794Y-106999996D01*
X158583863Y-106999996D01*
X158574657Y-106990790D01*
X158468104Y-106936498D01*
X158350003Y-106917794D01*
X158349997Y-106917794D01*
X158231895Y-106936498D01*
X158231894Y-106936498D01*
X158125342Y-106990790D01*
X158040790Y-107075342D01*
X157986498Y-107181894D01*
X157986498Y-107181895D01*
X157967794Y-107299996D01*
X133525500Y-107299996D01*
X133525500Y-103741805D01*
X135282499Y-103741805D01*
X135306613Y-103863029D01*
X135306616Y-103863039D01*
X135353913Y-103977226D01*
X135353920Y-103977239D01*
X135422588Y-104080007D01*
X135422591Y-104080011D01*
X135509988Y-104167408D01*
X135509992Y-104167411D01*
X135612760Y-104236079D01*
X135612773Y-104236086D01*
X135726960Y-104283383D01*
X135726965Y-104283385D01*
X135726969Y-104283385D01*
X135726970Y-104283386D01*
X135848194Y-104307500D01*
X135848197Y-104307500D01*
X136571805Y-104307500D01*
X136653361Y-104291276D01*
X136693035Y-104283385D01*
X136807233Y-104236083D01*
X136910008Y-104167411D01*
X136997411Y-104080008D01*
X137066083Y-103977233D01*
X137113385Y-103863035D01*
X137121276Y-103823361D01*
X137137500Y-103741805D01*
X139212499Y-103741805D01*
X139236613Y-103863029D01*
X139236616Y-103863039D01*
X139283913Y-103977226D01*
X139283920Y-103977239D01*
X139352588Y-104080007D01*
X139352591Y-104080011D01*
X139439988Y-104167408D01*
X139439992Y-104167411D01*
X139542760Y-104236079D01*
X139542773Y-104236086D01*
X139656960Y-104283383D01*
X139656965Y-104283385D01*
X139718448Y-104295615D01*
X139763516Y-104304580D01*
X139825427Y-104336965D01*
X139860001Y-104397681D01*
X139856262Y-104467450D01*
X139815395Y-104524122D01*
X139771418Y-104545972D01*
X139667865Y-104573719D01*
X139667863Y-104573719D01*
X139667863Y-104573720D01*
X139536635Y-104649485D01*
X139536632Y-104649487D01*
X139429487Y-104756632D01*
X139429485Y-104756635D01*
X139353719Y-104887863D01*
X139314500Y-105034234D01*
X139314500Y-105185765D01*
X139353719Y-105332136D01*
X139382446Y-105381892D01*
X139429485Y-105463365D01*
X139536635Y-105570515D01*
X139667865Y-105646281D01*
X139814234Y-105685500D01*
X139814236Y-105685500D01*
X139965764Y-105685500D01*
X139965766Y-105685500D01*
X140112135Y-105646281D01*
X140243365Y-105570515D01*
X140313884Y-105499996D01*
X171967794Y-105499996D01*
X171967794Y-105500003D01*
X171986498Y-105618104D01*
X171986498Y-105618105D01*
X172040790Y-105724657D01*
X172125342Y-105809209D01*
X172125344Y-105809210D01*
X172125345Y-105809211D01*
X172231892Y-105863500D01*
X172231893Y-105863500D01*
X172231895Y-105863501D01*
X172349997Y-105882206D01*
X172350000Y-105882206D01*
X172350003Y-105882206D01*
X172468104Y-105863501D01*
X172468105Y-105863501D01*
X172468106Y-105863500D01*
X172468108Y-105863500D01*
X172574655Y-105809211D01*
X172659211Y-105724655D01*
X172713500Y-105618108D01*
X172713500Y-105618106D01*
X172713501Y-105618105D01*
X172713501Y-105618104D01*
X172732206Y-105500003D01*
X172732206Y-105499996D01*
X173017794Y-105499996D01*
X173017794Y-105500003D01*
X173036498Y-105618104D01*
X173036498Y-105618105D01*
X173090790Y-105724657D01*
X173175342Y-105809209D01*
X173175344Y-105809210D01*
X173175345Y-105809211D01*
X173281892Y-105863500D01*
X173281893Y-105863500D01*
X173281895Y-105863501D01*
X173399997Y-105882206D01*
X173400000Y-105882206D01*
X173400003Y-105882206D01*
X173518104Y-105863501D01*
X173518105Y-105863501D01*
X173518106Y-105863500D01*
X173518108Y-105863500D01*
X173624655Y-105809211D01*
X173709211Y-105724655D01*
X173763500Y-105618108D01*
X173763500Y-105618106D01*
X173763501Y-105618105D01*
X173763501Y-105618104D01*
X173782206Y-105500003D01*
X173782206Y-105499996D01*
X173763501Y-105381895D01*
X173763501Y-105381894D01*
X173709209Y-105275342D01*
X173624657Y-105190790D01*
X173518104Y-105136498D01*
X173400003Y-105117794D01*
X173399997Y-105117794D01*
X173281895Y-105136498D01*
X173281894Y-105136498D01*
X173175342Y-105190790D01*
X173090790Y-105275342D01*
X173036498Y-105381894D01*
X173036498Y-105381895D01*
X173017794Y-105499996D01*
X172732206Y-105499996D01*
X172713501Y-105381895D01*
X172713501Y-105381894D01*
X172659209Y-105275342D01*
X172574657Y-105190790D01*
X172468104Y-105136498D01*
X172350003Y-105117794D01*
X172349997Y-105117794D01*
X172231895Y-105136498D01*
X172231894Y-105136498D01*
X172125342Y-105190790D01*
X172040790Y-105275342D01*
X171986498Y-105381894D01*
X171986498Y-105381895D01*
X171967794Y-105499996D01*
X140313884Y-105499996D01*
X140350515Y-105463365D01*
X140426281Y-105332135D01*
X140465500Y-105185766D01*
X140465500Y-105034234D01*
X140426281Y-104887865D01*
X140350515Y-104756635D01*
X140243365Y-104649485D01*
X140177750Y-104611602D01*
X140112136Y-104573719D01*
X140057982Y-104559209D01*
X140028370Y-104551274D01*
X139968710Y-104514910D01*
X139938181Y-104452063D01*
X139946476Y-104382688D01*
X139990961Y-104328810D01*
X140057513Y-104307535D01*
X140060464Y-104307500D01*
X141001805Y-104307500D01*
X141083361Y-104291276D01*
X141123035Y-104283385D01*
X141203644Y-104249996D01*
X168617794Y-104249996D01*
X168617794Y-104250003D01*
X168636498Y-104368104D01*
X168636498Y-104368105D01*
X168690790Y-104474657D01*
X168775342Y-104559209D01*
X168775344Y-104559210D01*
X168775345Y-104559211D01*
X168881892Y-104613500D01*
X168881893Y-104613500D01*
X168881895Y-104613501D01*
X168999997Y-104632206D01*
X169000000Y-104632206D01*
X169000003Y-104632206D01*
X169118104Y-104613501D01*
X169118105Y-104613501D01*
X169118106Y-104613500D01*
X169118108Y-104613500D01*
X169224655Y-104559211D01*
X169309211Y-104474655D01*
X169363500Y-104368108D01*
X169363500Y-104368106D01*
X169363501Y-104368105D01*
X169363501Y-104368104D01*
X169382206Y-104250003D01*
X169382206Y-104249996D01*
X169363501Y-104131895D01*
X169363501Y-104131894D01*
X169309209Y-104025342D01*
X169224657Y-103940790D01*
X169118104Y-103886498D01*
X169000003Y-103867794D01*
X168999997Y-103867794D01*
X168881895Y-103886498D01*
X168881894Y-103886498D01*
X168775342Y-103940790D01*
X168690790Y-104025342D01*
X168636498Y-104131894D01*
X168636498Y-104131895D01*
X168617794Y-104249996D01*
X141203644Y-104249996D01*
X141237233Y-104236083D01*
X141340008Y-104167411D01*
X141427411Y-104080008D01*
X141496083Y-103977233D01*
X141543385Y-103863035D01*
X141551276Y-103823361D01*
X141567500Y-103741805D01*
X141567500Y-103618194D01*
X141543988Y-103499996D01*
X172467794Y-103499996D01*
X172467794Y-103500003D01*
X172486498Y-103618104D01*
X172486498Y-103618105D01*
X172540790Y-103724657D01*
X172625342Y-103809209D01*
X172625344Y-103809210D01*
X172625345Y-103809211D01*
X172731892Y-103863500D01*
X172731893Y-103863500D01*
X172731895Y-103863501D01*
X172849997Y-103882206D01*
X172850000Y-103882206D01*
X172850003Y-103882206D01*
X172968104Y-103863501D01*
X172968105Y-103863501D01*
X172968106Y-103863500D01*
X172968108Y-103863500D01*
X173074655Y-103809211D01*
X173159211Y-103724655D01*
X173213500Y-103618108D01*
X173213500Y-103618106D01*
X173213501Y-103618105D01*
X173213501Y-103618104D01*
X173232206Y-103500003D01*
X173232206Y-103499996D01*
X173213501Y-103381895D01*
X173213501Y-103381894D01*
X173213500Y-103381892D01*
X173159211Y-103275345D01*
X173159210Y-103275344D01*
X173159209Y-103275342D01*
X173074657Y-103190790D01*
X172968104Y-103136498D01*
X172850003Y-103117794D01*
X172849997Y-103117794D01*
X172731895Y-103136498D01*
X172731894Y-103136498D01*
X172625342Y-103190790D01*
X172540790Y-103275342D01*
X172486498Y-103381894D01*
X172486498Y-103381895D01*
X172467794Y-103499996D01*
X141543988Y-103499996D01*
X141543386Y-103496970D01*
X141543385Y-103496969D01*
X141543385Y-103496965D01*
X141543383Y-103496960D01*
X141496086Y-103382773D01*
X141496079Y-103382760D01*
X141427411Y-103279992D01*
X141427408Y-103279988D01*
X141340011Y-103192591D01*
X141340007Y-103192588D01*
X141237239Y-103123920D01*
X141237226Y-103123913D01*
X141123039Y-103076616D01*
X141123029Y-103076613D01*
X141001805Y-103052500D01*
X141001803Y-103052500D01*
X139778197Y-103052500D01*
X139778195Y-103052500D01*
X139656970Y-103076613D01*
X139656960Y-103076616D01*
X139542773Y-103123913D01*
X139542760Y-103123920D01*
X139439992Y-103192588D01*
X139439988Y-103192591D01*
X139352591Y-103279988D01*
X139352588Y-103279992D01*
X139283920Y-103382760D01*
X139283913Y-103382773D01*
X139236616Y-103496960D01*
X139236613Y-103496970D01*
X139212500Y-103618194D01*
X139212500Y-103618197D01*
X139212500Y-103741803D01*
X139212500Y-103741805D01*
X139212499Y-103741805D01*
X137137500Y-103741805D01*
X137137500Y-103618194D01*
X137113386Y-103496970D01*
X137113385Y-103496969D01*
X137113385Y-103496965D01*
X137113383Y-103496960D01*
X137066086Y-103382773D01*
X137066079Y-103382760D01*
X136997411Y-103279992D01*
X136997408Y-103279988D01*
X136910011Y-103192591D01*
X136910007Y-103192588D01*
X136807239Y-103123920D01*
X136807226Y-103123913D01*
X136693039Y-103076616D01*
X136693029Y-103076613D01*
X136571805Y-103052500D01*
X136571803Y-103052500D01*
X135848197Y-103052500D01*
X135848195Y-103052500D01*
X135726970Y-103076613D01*
X135726960Y-103076616D01*
X135612773Y-103123913D01*
X135612760Y-103123920D01*
X135509992Y-103192588D01*
X135509988Y-103192591D01*
X135422591Y-103279988D01*
X135422588Y-103279992D01*
X135353920Y-103382760D01*
X135353913Y-103382773D01*
X135306616Y-103496960D01*
X135306613Y-103496970D01*
X135282500Y-103618194D01*
X135282500Y-103618197D01*
X135282500Y-103741803D01*
X135282500Y-103741805D01*
X135282499Y-103741805D01*
X133525500Y-103741805D01*
X133525500Y-102499996D01*
X146367794Y-102499996D01*
X146367794Y-102500003D01*
X146386498Y-102618104D01*
X146386498Y-102618105D01*
X146440790Y-102724657D01*
X146525342Y-102809209D01*
X146525344Y-102809210D01*
X146525345Y-102809211D01*
X146631892Y-102863500D01*
X146631893Y-102863500D01*
X146631895Y-102863501D01*
X146749997Y-102882206D01*
X146750000Y-102882206D01*
X146750003Y-102882206D01*
X146868104Y-102863501D01*
X146868105Y-102863501D01*
X146868106Y-102863500D01*
X146868108Y-102863500D01*
X146974655Y-102809211D01*
X147059211Y-102724655D01*
X147113500Y-102618108D01*
X147113500Y-102618106D01*
X147113501Y-102618105D01*
X147113501Y-102618104D01*
X147132206Y-102500003D01*
X147132206Y-102499996D01*
X147113501Y-102381895D01*
X147113501Y-102381894D01*
X147059209Y-102275342D01*
X146997938Y-102214071D01*
X170599499Y-102214071D01*
X170624497Y-102339738D01*
X170624499Y-102339744D01*
X170673533Y-102458124D01*
X170673538Y-102458133D01*
X170744723Y-102564668D01*
X170744726Y-102564672D01*
X170835327Y-102655273D01*
X170835331Y-102655276D01*
X170941866Y-102726461D01*
X170941872Y-102726464D01*
X170941873Y-102726465D01*
X171060256Y-102775501D01*
X171060260Y-102775501D01*
X171060261Y-102775502D01*
X171185928Y-102800500D01*
X171185931Y-102800500D01*
X171314071Y-102800500D01*
X171398615Y-102783682D01*
X171439744Y-102775501D01*
X171558127Y-102726465D01*
X171664669Y-102655276D01*
X171755276Y-102564669D01*
X171826465Y-102458127D01*
X171875501Y-102339744D01*
X171900500Y-102214069D01*
X171900500Y-102085931D01*
X171900500Y-102085928D01*
X171875502Y-101960261D01*
X171875501Y-101960260D01*
X171875501Y-101960256D01*
X171826465Y-101841873D01*
X171826464Y-101841872D01*
X171826461Y-101841866D01*
X171755276Y-101735331D01*
X171755273Y-101735327D01*
X171664672Y-101644726D01*
X171664668Y-101644723D01*
X171558133Y-101573538D01*
X171558124Y-101573533D01*
X171439744Y-101524499D01*
X171439738Y-101524497D01*
X171314071Y-101499500D01*
X171314069Y-101499500D01*
X171185931Y-101499500D01*
X171185929Y-101499500D01*
X171060261Y-101524497D01*
X171060255Y-101524499D01*
X170941875Y-101573533D01*
X170941866Y-101573538D01*
X170835331Y-101644723D01*
X170835327Y-101644726D01*
X170744726Y-101735327D01*
X170744723Y-101735331D01*
X170673538Y-101841866D01*
X170673533Y-101841875D01*
X170624499Y-101960255D01*
X170624497Y-101960261D01*
X170599500Y-102085928D01*
X170599500Y-102085931D01*
X170599500Y-102214069D01*
X170599500Y-102214071D01*
X170599499Y-102214071D01*
X146997938Y-102214071D01*
X146974657Y-102190790D01*
X146868104Y-102136498D01*
X146750003Y-102117794D01*
X146749997Y-102117794D01*
X146631895Y-102136498D01*
X146631894Y-102136498D01*
X146525342Y-102190790D01*
X146440790Y-102275342D01*
X146386498Y-102381894D01*
X146386498Y-102381895D01*
X146367794Y-102499996D01*
X133525500Y-102499996D01*
X133525500Y-101299996D01*
X144867794Y-101299996D01*
X144867794Y-101300003D01*
X144886498Y-101418104D01*
X144886498Y-101418105D01*
X144940790Y-101524657D01*
X145025342Y-101609209D01*
X145025344Y-101609210D01*
X145025345Y-101609211D01*
X145131892Y-101663500D01*
X145131893Y-101663500D01*
X145131895Y-101663501D01*
X145249997Y-101682206D01*
X145250000Y-101682206D01*
X145250003Y-101682206D01*
X145368104Y-101663501D01*
X145368105Y-101663501D01*
X145368106Y-101663500D01*
X145368108Y-101663500D01*
X145474655Y-101609211D01*
X145559211Y-101524655D01*
X145613500Y-101418108D01*
X145613500Y-101418106D01*
X145613501Y-101418105D01*
X145613501Y-101418104D01*
X145624288Y-101349996D01*
X147617794Y-101349996D01*
X147617794Y-101350003D01*
X147636498Y-101468104D01*
X147636498Y-101468105D01*
X147690790Y-101574657D01*
X147775342Y-101659209D01*
X147775344Y-101659210D01*
X147775345Y-101659211D01*
X147881892Y-101713500D01*
X147881893Y-101713500D01*
X147881895Y-101713501D01*
X147999997Y-101732206D01*
X148001150Y-101732206D01*
X148002500Y-101732602D01*
X148009638Y-101733733D01*
X148009491Y-101734655D01*
X148068189Y-101751891D01*
X148113944Y-101804695D01*
X148123623Y-101836809D01*
X148136498Y-101918104D01*
X148136498Y-101918105D01*
X148190790Y-102024657D01*
X148275342Y-102109209D01*
X148275344Y-102109210D01*
X148275345Y-102109211D01*
X148381892Y-102163500D01*
X148381893Y-102163500D01*
X148381895Y-102163501D01*
X148499997Y-102182206D01*
X148500000Y-102182206D01*
X148500003Y-102182206D01*
X148618104Y-102163501D01*
X148618105Y-102163501D01*
X148618106Y-102163500D01*
X148618108Y-102163500D01*
X148724655Y-102109211D01*
X148809211Y-102024655D01*
X148863500Y-101918108D01*
X148863500Y-101918106D01*
X148863501Y-101918105D01*
X148863501Y-101918104D01*
X148882206Y-101800003D01*
X148882206Y-101799996D01*
X148863501Y-101681895D01*
X148863501Y-101681894D01*
X148851942Y-101659209D01*
X148809211Y-101575345D01*
X148809210Y-101575344D01*
X148809209Y-101575342D01*
X148724657Y-101490790D01*
X148618104Y-101436498D01*
X148500003Y-101417794D01*
X148498850Y-101417794D01*
X148497499Y-101417397D01*
X148490362Y-101416267D01*
X148490508Y-101415344D01*
X148431811Y-101398109D01*
X148390121Y-101349996D01*
X156117794Y-101349996D01*
X156117794Y-101350003D01*
X156136498Y-101468104D01*
X156136498Y-101468105D01*
X156190790Y-101574657D01*
X156275342Y-101659209D01*
X156275344Y-101659210D01*
X156275345Y-101659211D01*
X156381892Y-101713500D01*
X156381893Y-101713500D01*
X156381895Y-101713501D01*
X156499997Y-101732206D01*
X156500000Y-101732206D01*
X156500003Y-101732206D01*
X156618104Y-101713501D01*
X156618105Y-101713501D01*
X156618106Y-101713500D01*
X156618108Y-101713500D01*
X156724655Y-101659211D01*
X156809211Y-101574655D01*
X156863500Y-101468108D01*
X156881486Y-101354542D01*
X156891196Y-101334058D01*
X156882922Y-101315940D01*
X157108801Y-101315940D01*
X157126432Y-101354545D01*
X157136498Y-101418105D01*
X157190790Y-101524657D01*
X157275342Y-101609209D01*
X157275344Y-101609210D01*
X157275345Y-101609211D01*
X157381892Y-101663500D01*
X157381893Y-101663500D01*
X157381895Y-101663501D01*
X157499997Y-101682206D01*
X157500000Y-101682206D01*
X157500003Y-101682206D01*
X157618104Y-101663501D01*
X157618105Y-101663501D01*
X157618106Y-101663500D01*
X157618108Y-101663500D01*
X157644611Y-101649996D01*
X169217794Y-101649996D01*
X169217794Y-101650003D01*
X169236498Y-101768104D01*
X169236498Y-101768105D01*
X169290790Y-101874657D01*
X169375342Y-101959209D01*
X169375344Y-101959210D01*
X169375345Y-101959211D01*
X169481892Y-102013500D01*
X169481893Y-102013500D01*
X169481895Y-102013501D01*
X169599997Y-102032206D01*
X169600000Y-102032206D01*
X169600003Y-102032206D01*
X169718104Y-102013501D01*
X169718105Y-102013501D01*
X169718106Y-102013500D01*
X169718108Y-102013500D01*
X169824655Y-101959211D01*
X169909211Y-101874655D01*
X169963500Y-101768108D01*
X169963500Y-101768106D01*
X169963501Y-101768105D01*
X169963501Y-101768104D01*
X169982206Y-101650003D01*
X169982206Y-101649996D01*
X169963501Y-101531895D01*
X169963501Y-101531894D01*
X169963500Y-101531892D01*
X169909211Y-101425345D01*
X169909210Y-101425344D01*
X169909209Y-101425342D01*
X169824657Y-101340790D01*
X169718104Y-101286498D01*
X169600003Y-101267794D01*
X169599997Y-101267794D01*
X169481895Y-101286498D01*
X169481894Y-101286498D01*
X169375342Y-101340790D01*
X169290790Y-101425342D01*
X169236498Y-101531894D01*
X169236498Y-101531895D01*
X169217794Y-101649996D01*
X157644611Y-101649996D01*
X157724655Y-101609211D01*
X157809211Y-101524655D01*
X157863500Y-101418108D01*
X157863500Y-101418106D01*
X157863501Y-101418105D01*
X157863501Y-101418104D01*
X157882206Y-101300003D01*
X157882206Y-101299996D01*
X157863501Y-101181895D01*
X157863501Y-101181894D01*
X157863500Y-101181892D01*
X157809211Y-101075345D01*
X157809210Y-101075344D01*
X157809209Y-101075342D01*
X157724657Y-100990790D01*
X157618104Y-100936498D01*
X157500003Y-100917794D01*
X157499997Y-100917794D01*
X157381895Y-100936498D01*
X157381894Y-100936498D01*
X157275342Y-100990790D01*
X157190790Y-101075342D01*
X157136498Y-101181894D01*
X157118513Y-101295454D01*
X157108801Y-101315940D01*
X156882922Y-101315940D01*
X156873567Y-101295454D01*
X156863500Y-101231892D01*
X156809211Y-101125345D01*
X156809210Y-101125344D01*
X156809209Y-101125342D01*
X156724657Y-101040790D01*
X156689139Y-101022692D01*
X156618108Y-100986500D01*
X156618107Y-100986499D01*
X156618104Y-100986498D01*
X156500003Y-100967794D01*
X156499997Y-100967794D01*
X156381895Y-100986498D01*
X156381894Y-100986498D01*
X156275342Y-101040790D01*
X156190790Y-101125342D01*
X156136498Y-101231894D01*
X156136498Y-101231895D01*
X156117794Y-101349996D01*
X148390121Y-101349996D01*
X148386056Y-101345305D01*
X148376377Y-101313191D01*
X148363501Y-101231895D01*
X148363501Y-101231894D01*
X148309209Y-101125342D01*
X148224657Y-101040790D01*
X148189139Y-101022692D01*
X148118108Y-100986500D01*
X148118107Y-100986499D01*
X148118104Y-100986498D01*
X148000003Y-100967794D01*
X147999997Y-100967794D01*
X147881895Y-100986498D01*
X147881894Y-100986498D01*
X147775342Y-101040790D01*
X147690790Y-101125342D01*
X147636498Y-101231894D01*
X147636498Y-101231895D01*
X147617794Y-101349996D01*
X145624288Y-101349996D01*
X145632206Y-101300003D01*
X145632206Y-101299996D01*
X145613501Y-101181895D01*
X145613501Y-101181894D01*
X145613500Y-101181892D01*
X145559211Y-101075345D01*
X145559210Y-101075344D01*
X145559209Y-101075342D01*
X145474657Y-100990790D01*
X145368104Y-100936498D01*
X145250003Y-100917794D01*
X145249997Y-100917794D01*
X145131895Y-100936498D01*
X145131894Y-100936498D01*
X145025342Y-100990790D01*
X144940790Y-101075342D01*
X144886498Y-101181894D01*
X144886498Y-101181895D01*
X144867794Y-101299996D01*
X133525500Y-101299996D01*
X133525500Y-99110000D01*
X135047556Y-99110000D01*
X135067277Y-99297630D01*
X135125575Y-99477055D01*
X135219906Y-99640442D01*
X135346144Y-99780645D01*
X135346147Y-99780647D01*
X135498778Y-99891539D01*
X135671124Y-99968273D01*
X135671129Y-99968275D01*
X135855669Y-100007500D01*
X135855670Y-100007500D01*
X136044329Y-100007500D01*
X136044331Y-100007500D01*
X136228871Y-99968275D01*
X136401222Y-99891539D01*
X136553853Y-99780647D01*
X136680093Y-99640443D01*
X136721054Y-99569496D01*
X161948294Y-99569496D01*
X161948294Y-99569503D01*
X161966998Y-99687604D01*
X161966998Y-99687605D01*
X162021290Y-99794157D01*
X162105842Y-99878709D01*
X162105844Y-99878710D01*
X162105845Y-99878711D01*
X162212392Y-99933000D01*
X162212393Y-99933000D01*
X162212395Y-99933001D01*
X162330497Y-99951706D01*
X162330500Y-99951706D01*
X162330503Y-99951706D01*
X162448604Y-99933001D01*
X162448605Y-99933001D01*
X162448606Y-99933000D01*
X162448608Y-99933000D01*
X162555155Y-99878711D01*
X162639711Y-99794155D01*
X162694000Y-99687608D01*
X162694000Y-99687606D01*
X162694001Y-99687605D01*
X162694001Y-99687604D01*
X162712706Y-99569503D01*
X162712706Y-99569496D01*
X162694001Y-99451395D01*
X162694001Y-99451394D01*
X162639709Y-99344842D01*
X162555157Y-99260290D01*
X162448604Y-99205998D01*
X162330503Y-99187294D01*
X162330497Y-99187294D01*
X162212395Y-99205998D01*
X162212394Y-99205998D01*
X162105842Y-99260290D01*
X162021290Y-99344842D01*
X161966998Y-99451394D01*
X161966998Y-99451395D01*
X161948294Y-99569496D01*
X136721054Y-99569496D01*
X136774424Y-99477057D01*
X136832723Y-99297629D01*
X136852444Y-99110000D01*
X136835627Y-98949996D01*
X150667794Y-98949996D01*
X150667794Y-98950003D01*
X150686498Y-99068104D01*
X150686498Y-99068105D01*
X150740790Y-99174657D01*
X150825342Y-99259209D01*
X150825344Y-99259210D01*
X150825345Y-99259211D01*
X150931892Y-99313500D01*
X150931893Y-99313500D01*
X150931895Y-99313501D01*
X151049997Y-99332206D01*
X151050000Y-99332206D01*
X151050003Y-99332206D01*
X151168104Y-99313501D01*
X151168105Y-99313501D01*
X151168106Y-99313500D01*
X151168108Y-99313500D01*
X151274655Y-99259211D01*
X151359211Y-99174655D01*
X151413500Y-99068108D01*
X151413500Y-99068106D01*
X151413501Y-99068105D01*
X151413501Y-99068104D01*
X151432206Y-98950003D01*
X151432206Y-98949996D01*
X151424287Y-98899996D01*
X152517794Y-98899996D01*
X152517794Y-98900003D01*
X152536498Y-99018104D01*
X152536498Y-99018105D01*
X152590790Y-99124657D01*
X152675342Y-99209209D01*
X152675344Y-99209210D01*
X152675345Y-99209211D01*
X152781892Y-99263500D01*
X152781893Y-99263500D01*
X152781895Y-99263501D01*
X152899997Y-99282206D01*
X152900000Y-99282206D01*
X152900003Y-99282206D01*
X153018104Y-99263501D01*
X153018105Y-99263501D01*
X153018106Y-99263500D01*
X153018108Y-99263500D01*
X153124655Y-99209211D01*
X153183870Y-99149996D01*
X158117794Y-99149996D01*
X158117794Y-99150003D01*
X158136498Y-99268104D01*
X158136498Y-99268105D01*
X158190790Y-99374657D01*
X158275342Y-99459209D01*
X158275344Y-99459210D01*
X158275345Y-99459211D01*
X158381892Y-99513500D01*
X158381893Y-99513500D01*
X158381895Y-99513501D01*
X158499997Y-99532206D01*
X158500000Y-99532206D01*
X158500003Y-99532206D01*
X158618104Y-99513501D01*
X158618105Y-99513501D01*
X158618106Y-99513500D01*
X158618108Y-99513500D01*
X158724655Y-99459211D01*
X158809211Y-99374655D01*
X158863500Y-99268108D01*
X158863500Y-99268106D01*
X158863501Y-99268105D01*
X158863501Y-99268104D01*
X158882206Y-99150003D01*
X158882206Y-99149996D01*
X158863501Y-99031895D01*
X158863501Y-99031894D01*
X158831000Y-98968108D01*
X158809211Y-98925345D01*
X158809210Y-98925344D01*
X158809209Y-98925342D01*
X158733863Y-98849996D01*
X168267794Y-98849996D01*
X168267794Y-98850003D01*
X168286498Y-98968104D01*
X168286498Y-98968105D01*
X168340790Y-99074657D01*
X168425342Y-99159209D01*
X168425344Y-99159210D01*
X168425345Y-99159211D01*
X168531892Y-99213500D01*
X168531893Y-99213500D01*
X168531895Y-99213501D01*
X168649997Y-99232206D01*
X168650000Y-99232206D01*
X168650003Y-99232206D01*
X168768104Y-99213501D01*
X168768105Y-99213501D01*
X168768106Y-99213500D01*
X168768108Y-99213500D01*
X168874655Y-99159211D01*
X168923866Y-99110000D01*
X173147556Y-99110000D01*
X173167277Y-99297630D01*
X173225575Y-99477055D01*
X173319906Y-99640442D01*
X173446144Y-99780645D01*
X173446147Y-99780647D01*
X173598778Y-99891539D01*
X173771124Y-99968273D01*
X173771129Y-99968275D01*
X173955669Y-100007500D01*
X173955670Y-100007500D01*
X174144329Y-100007500D01*
X174144331Y-100007500D01*
X174328871Y-99968275D01*
X174501222Y-99891539D01*
X174653853Y-99780647D01*
X174780093Y-99640443D01*
X174874424Y-99477057D01*
X174932723Y-99297629D01*
X174952444Y-99110000D01*
X174932723Y-98922371D01*
X174874424Y-98742943D01*
X174780093Y-98579557D01*
X174745187Y-98540790D01*
X174653855Y-98439354D01*
X174577537Y-98383907D01*
X174501222Y-98328461D01*
X174501220Y-98328460D01*
X174501221Y-98328460D01*
X174328875Y-98251726D01*
X174328870Y-98251724D01*
X174183555Y-98220837D01*
X174144331Y-98212500D01*
X173955669Y-98212500D01*
X173929285Y-98218108D01*
X173771129Y-98251724D01*
X173771124Y-98251726D01*
X173598779Y-98328460D01*
X173446144Y-98439354D01*
X173319906Y-98579557D01*
X173225575Y-98742944D01*
X173167277Y-98922369D01*
X173147556Y-99110000D01*
X168923866Y-99110000D01*
X168959211Y-99074655D01*
X169013500Y-98968108D01*
X169013500Y-98968106D01*
X169013501Y-98968105D01*
X169013501Y-98968104D01*
X169032206Y-98850003D01*
X169032206Y-98849996D01*
X169013501Y-98731895D01*
X169013501Y-98731894D01*
X169010163Y-98725342D01*
X168959211Y-98625345D01*
X168959210Y-98625344D01*
X168959209Y-98625342D01*
X168874657Y-98540790D01*
X168768104Y-98486498D01*
X168650003Y-98467794D01*
X168649997Y-98467794D01*
X168531895Y-98486498D01*
X168531894Y-98486498D01*
X168425342Y-98540790D01*
X168340790Y-98625342D01*
X168286498Y-98731894D01*
X168286498Y-98731895D01*
X168267794Y-98849996D01*
X158733863Y-98849996D01*
X158724657Y-98840790D01*
X158618104Y-98786498D01*
X158500003Y-98767794D01*
X158499997Y-98767794D01*
X158381895Y-98786498D01*
X158381894Y-98786498D01*
X158275342Y-98840790D01*
X158190790Y-98925342D01*
X158136498Y-99031894D01*
X158136498Y-99031895D01*
X158117794Y-99149996D01*
X153183870Y-99149996D01*
X153209211Y-99124655D01*
X153263500Y-99018108D01*
X153263500Y-99018106D01*
X153263501Y-99018105D01*
X153263501Y-99018104D01*
X153282206Y-98900003D01*
X153282206Y-98899996D01*
X153263501Y-98781895D01*
X153263501Y-98781894D01*
X153238023Y-98731892D01*
X153209211Y-98675345D01*
X153209210Y-98675344D01*
X153209209Y-98675342D01*
X153124657Y-98590790D01*
X153079525Y-98567794D01*
X153018108Y-98536500D01*
X153018107Y-98536499D01*
X153018104Y-98536498D01*
X152900003Y-98517794D01*
X152899997Y-98517794D01*
X152781895Y-98536498D01*
X152781894Y-98536498D01*
X152675342Y-98590790D01*
X152590790Y-98675342D01*
X152536498Y-98781894D01*
X152536498Y-98781895D01*
X152517794Y-98899996D01*
X151424287Y-98899996D01*
X151413501Y-98831895D01*
X151413501Y-98831894D01*
X151368178Y-98742944D01*
X151359211Y-98725345D01*
X151359210Y-98725344D01*
X151359209Y-98725342D01*
X151274657Y-98640790D01*
X151239139Y-98622692D01*
X151168108Y-98586500D01*
X151168107Y-98586499D01*
X151168104Y-98586498D01*
X151050003Y-98567794D01*
X151049997Y-98567794D01*
X150931895Y-98586498D01*
X150931894Y-98586498D01*
X150825342Y-98640790D01*
X150740790Y-98725342D01*
X150686498Y-98831894D01*
X150686498Y-98831895D01*
X150667794Y-98949996D01*
X136835627Y-98949996D01*
X136832723Y-98922371D01*
X136774424Y-98742943D01*
X136680093Y-98579557D01*
X136645187Y-98540790D01*
X136553855Y-98439354D01*
X136477537Y-98383907D01*
X136401222Y-98328461D01*
X136401220Y-98328460D01*
X136401221Y-98328460D01*
X136228875Y-98251726D01*
X136228870Y-98251724D01*
X136083555Y-98220837D01*
X136044331Y-98212500D01*
X135855669Y-98212500D01*
X135829285Y-98218108D01*
X135671129Y-98251724D01*
X135671124Y-98251726D01*
X135498779Y-98328460D01*
X135346144Y-98439354D01*
X135219906Y-98579557D01*
X135125575Y-98742944D01*
X135067277Y-98922369D01*
X135047556Y-99110000D01*
X133525500Y-99110000D01*
X133525500Y-98099996D01*
X145567794Y-98099996D01*
X145567794Y-98100003D01*
X145586498Y-98218104D01*
X145586498Y-98218105D01*
X145640790Y-98324657D01*
X145725342Y-98409209D01*
X145725344Y-98409210D01*
X145725345Y-98409211D01*
X145831892Y-98463500D01*
X145831893Y-98463500D01*
X145831895Y-98463501D01*
X145949997Y-98482206D01*
X145950000Y-98482206D01*
X145950003Y-98482206D01*
X146068104Y-98463501D01*
X146068105Y-98463501D01*
X146068106Y-98463500D01*
X146068108Y-98463500D01*
X146174655Y-98409211D01*
X146259211Y-98324655D01*
X146313500Y-98218108D01*
X146313500Y-98218106D01*
X146313501Y-98218105D01*
X146313501Y-98218104D01*
X146332206Y-98100003D01*
X146332206Y-98099996D01*
X146313501Y-97981895D01*
X146313501Y-97981894D01*
X146259209Y-97875342D01*
X146233863Y-97849996D01*
X163567794Y-97849996D01*
X163567794Y-97850003D01*
X163586498Y-97968104D01*
X163586498Y-97968105D01*
X163640790Y-98074657D01*
X163725342Y-98159209D01*
X163725344Y-98159210D01*
X163725345Y-98159211D01*
X163831892Y-98213500D01*
X163831893Y-98213500D01*
X163831895Y-98213501D01*
X163949997Y-98232206D01*
X163950000Y-98232206D01*
X163950003Y-98232206D01*
X164068104Y-98213501D01*
X164068105Y-98213501D01*
X164068106Y-98213500D01*
X164068108Y-98213500D01*
X164174655Y-98159211D01*
X164259211Y-98074655D01*
X164313500Y-97968108D01*
X164313500Y-97968106D01*
X164313501Y-97968105D01*
X164313501Y-97968104D01*
X164332206Y-97850003D01*
X164332206Y-97849996D01*
X164313501Y-97731895D01*
X164313501Y-97731894D01*
X164306317Y-97717794D01*
X164259211Y-97625345D01*
X164259210Y-97625344D01*
X164259209Y-97625342D01*
X164174657Y-97540790D01*
X164068104Y-97486498D01*
X163950003Y-97467794D01*
X163949997Y-97467794D01*
X163831895Y-97486498D01*
X163831894Y-97486498D01*
X163725342Y-97540790D01*
X163640790Y-97625342D01*
X163586498Y-97731894D01*
X163586498Y-97731895D01*
X163567794Y-97849996D01*
X146233863Y-97849996D01*
X146174657Y-97790790D01*
X146068104Y-97736498D01*
X145950003Y-97717794D01*
X145949997Y-97717794D01*
X145831895Y-97736498D01*
X145831894Y-97736498D01*
X145725342Y-97790790D01*
X145640790Y-97875342D01*
X145586498Y-97981894D01*
X145586498Y-97981895D01*
X145567794Y-98099996D01*
X133525500Y-98099996D01*
X133525500Y-96569999D01*
X134675149Y-96569999D01*
X134675149Y-96570000D01*
X134694516Y-96791371D01*
X134694518Y-96791381D01*
X134752029Y-97006017D01*
X134752033Y-97006026D01*
X134845949Y-97207429D01*
X134892513Y-97273931D01*
X134892514Y-97273932D01*
X135467037Y-96699409D01*
X135484075Y-96762993D01*
X135549901Y-96877007D01*
X135642993Y-96970099D01*
X135757007Y-97035925D01*
X135820590Y-97052962D01*
X135246066Y-97627484D01*
X135246067Y-97627485D01*
X135312570Y-97674050D01*
X135513973Y-97767966D01*
X135513982Y-97767970D01*
X135728618Y-97825481D01*
X135728628Y-97825483D01*
X135949999Y-97844851D01*
X135950001Y-97844851D01*
X136171371Y-97825483D01*
X136171381Y-97825481D01*
X136386017Y-97767970D01*
X136386026Y-97767966D01*
X136587425Y-97674052D01*
X136653932Y-97627484D01*
X136079409Y-97052962D01*
X136142993Y-97035925D01*
X136257007Y-96970099D01*
X136350099Y-96877007D01*
X136415925Y-96762993D01*
X136432962Y-96699410D01*
X137007484Y-97273932D01*
X137054052Y-97207425D01*
X137147966Y-97006026D01*
X137147970Y-97006017D01*
X137205481Y-96791381D01*
X137205483Y-96791371D01*
X137224851Y-96570000D01*
X173147556Y-96570000D01*
X173167277Y-96757630D01*
X173225575Y-96937055D01*
X173319906Y-97100442D01*
X173446144Y-97240645D01*
X173446147Y-97240647D01*
X173598778Y-97351539D01*
X173771124Y-97428273D01*
X173771129Y-97428275D01*
X173955669Y-97467500D01*
X173955670Y-97467500D01*
X174144329Y-97467500D01*
X174144331Y-97467500D01*
X174328871Y-97428275D01*
X174501222Y-97351539D01*
X174653853Y-97240647D01*
X174780093Y-97100443D01*
X174874424Y-96937057D01*
X174932723Y-96757629D01*
X174952444Y-96570000D01*
X174932723Y-96382371D01*
X174874424Y-96202943D01*
X174780093Y-96039557D01*
X174653855Y-95899354D01*
X174577537Y-95843907D01*
X174501222Y-95788461D01*
X174501220Y-95788460D01*
X174501221Y-95788460D01*
X174328875Y-95711726D01*
X174328870Y-95711724D01*
X174183555Y-95680837D01*
X174144331Y-95672500D01*
X173955669Y-95672500D01*
X173923320Y-95679375D01*
X173771129Y-95711724D01*
X173771124Y-95711726D01*
X173598779Y-95788460D01*
X173446144Y-95899354D01*
X173319906Y-96039557D01*
X173225575Y-96202944D01*
X173167277Y-96382369D01*
X173147556Y-96570000D01*
X137224851Y-96570000D01*
X137224851Y-96569999D01*
X137205483Y-96348628D01*
X137205481Y-96348618D01*
X137147970Y-96133982D01*
X137147966Y-96133973D01*
X137054054Y-95932577D01*
X137007483Y-95866067D01*
X136432962Y-96440589D01*
X136415925Y-96377007D01*
X136350099Y-96262993D01*
X136257007Y-96169901D01*
X136142993Y-96104075D01*
X136079409Y-96087037D01*
X136653932Y-95512514D01*
X136653931Y-95512513D01*
X136587429Y-95465949D01*
X136386026Y-95372033D01*
X136386017Y-95372029D01*
X136171381Y-95314518D01*
X136171371Y-95314516D01*
X135950001Y-95295149D01*
X135949999Y-95295149D01*
X135728628Y-95314516D01*
X135728618Y-95314518D01*
X135513982Y-95372029D01*
X135513973Y-95372032D01*
X135312576Y-95465946D01*
X135312574Y-95465947D01*
X135246068Y-95512515D01*
X135246067Y-95512515D01*
X135820590Y-96087037D01*
X135757007Y-96104075D01*
X135642993Y-96169901D01*
X135549901Y-96262993D01*
X135484075Y-96377007D01*
X135467037Y-96440589D01*
X134892515Y-95866067D01*
X134892515Y-95866068D01*
X134845947Y-95932574D01*
X134845946Y-95932576D01*
X134752032Y-96133973D01*
X134752029Y-96133982D01*
X134694518Y-96348618D01*
X134694516Y-96348628D01*
X134675149Y-96569999D01*
X133525500Y-96569999D01*
X133525500Y-95199996D01*
X156017794Y-95199996D01*
X156017794Y-95200003D01*
X156036498Y-95318104D01*
X156036498Y-95318105D01*
X156090790Y-95424657D01*
X156175342Y-95509209D01*
X156175344Y-95509210D01*
X156175345Y-95509211D01*
X156281892Y-95563500D01*
X156281893Y-95563500D01*
X156281895Y-95563501D01*
X156399997Y-95582206D01*
X156400000Y-95582206D01*
X156400003Y-95582206D01*
X156518104Y-95563501D01*
X156518105Y-95563501D01*
X156518106Y-95563500D01*
X156518108Y-95563500D01*
X156624655Y-95509211D01*
X156709211Y-95424655D01*
X156763500Y-95318108D01*
X156763500Y-95318106D01*
X156763501Y-95318105D01*
X156763501Y-95318104D01*
X156782206Y-95200003D01*
X156782206Y-95199996D01*
X156763501Y-95081895D01*
X156763501Y-95081894D01*
X156763500Y-95081892D01*
X156747248Y-95049996D01*
X159417794Y-95049996D01*
X159417794Y-95050003D01*
X159436498Y-95168104D01*
X159436498Y-95168105D01*
X159490790Y-95274657D01*
X159575342Y-95359209D01*
X159575344Y-95359210D01*
X159575345Y-95359211D01*
X159681892Y-95413500D01*
X159681893Y-95413500D01*
X159681895Y-95413501D01*
X159799997Y-95432206D01*
X159800000Y-95432206D01*
X159800003Y-95432206D01*
X159918104Y-95413501D01*
X159918105Y-95413501D01*
X159918106Y-95413500D01*
X159918108Y-95413500D01*
X160024655Y-95359211D01*
X160109211Y-95274655D01*
X160163500Y-95168108D01*
X160163500Y-95168106D01*
X160163501Y-95168105D01*
X160163501Y-95168104D01*
X160182206Y-95050003D01*
X160182206Y-95049996D01*
X160163501Y-94931895D01*
X160163501Y-94931894D01*
X160141275Y-94888273D01*
X160109211Y-94825345D01*
X160109210Y-94825344D01*
X160109209Y-94825342D01*
X160024657Y-94740790D01*
X159918104Y-94686498D01*
X159800003Y-94667794D01*
X159799997Y-94667794D01*
X159681895Y-94686498D01*
X159681894Y-94686498D01*
X159575342Y-94740790D01*
X159490790Y-94825342D01*
X159436498Y-94931894D01*
X159436498Y-94931895D01*
X159417794Y-95049996D01*
X156747248Y-95049996D01*
X156709211Y-94975345D01*
X156709210Y-94975344D01*
X156709209Y-94975342D01*
X156624657Y-94890790D01*
X156518104Y-94836498D01*
X156400003Y-94817794D01*
X156399997Y-94817794D01*
X156281895Y-94836498D01*
X156281894Y-94836498D01*
X156175342Y-94890790D01*
X156090790Y-94975342D01*
X156036498Y-95081894D01*
X156036498Y-95081895D01*
X156017794Y-95199996D01*
X133525500Y-95199996D01*
X133525500Y-94030000D01*
X135047556Y-94030000D01*
X135067277Y-94217630D01*
X135125575Y-94397055D01*
X135219906Y-94560442D01*
X135346144Y-94700645D01*
X135346147Y-94700647D01*
X135498778Y-94811539D01*
X135671124Y-94888273D01*
X135671129Y-94888275D01*
X135855669Y-94927500D01*
X135855670Y-94927500D01*
X136044329Y-94927500D01*
X136044331Y-94927500D01*
X136228871Y-94888275D01*
X136401222Y-94811539D01*
X136553853Y-94700647D01*
X136644479Y-94599996D01*
X168017794Y-94599996D01*
X168017794Y-94600003D01*
X168036498Y-94718104D01*
X168036498Y-94718105D01*
X168090790Y-94824657D01*
X168175342Y-94909209D01*
X168175344Y-94909210D01*
X168175345Y-94909211D01*
X168281892Y-94963500D01*
X168281893Y-94963500D01*
X168281895Y-94963501D01*
X168399997Y-94982206D01*
X168400000Y-94982206D01*
X168400003Y-94982206D01*
X168518104Y-94963501D01*
X168518105Y-94963501D01*
X168518106Y-94963500D01*
X168518108Y-94963500D01*
X168624655Y-94909211D01*
X168709211Y-94824655D01*
X168763500Y-94718108D01*
X168763500Y-94718106D01*
X168763501Y-94718105D01*
X168763501Y-94718104D01*
X168782206Y-94600003D01*
X168782206Y-94599996D01*
X168763501Y-94481895D01*
X168763501Y-94481894D01*
X168709209Y-94375342D01*
X168624657Y-94290790D01*
X168518104Y-94236498D01*
X168400003Y-94217794D01*
X168399997Y-94217794D01*
X168281895Y-94236498D01*
X168281894Y-94236498D01*
X168175342Y-94290790D01*
X168090790Y-94375342D01*
X168036498Y-94481894D01*
X168036498Y-94481895D01*
X168017794Y-94599996D01*
X136644479Y-94599996D01*
X136680093Y-94560443D01*
X136774424Y-94397057D01*
X136832723Y-94217629D01*
X136852444Y-94030000D01*
X136832723Y-93842371D01*
X136774424Y-93662943D01*
X136680093Y-93499557D01*
X136553855Y-93359354D01*
X136437275Y-93274655D01*
X136401222Y-93248461D01*
X136401220Y-93248460D01*
X136401221Y-93248460D01*
X136228875Y-93171726D01*
X136228870Y-93171724D01*
X136083555Y-93140837D01*
X136044331Y-93132500D01*
X135855669Y-93132500D01*
X135823320Y-93139375D01*
X135671129Y-93171724D01*
X135671124Y-93171726D01*
X135498779Y-93248460D01*
X135346144Y-93359354D01*
X135219906Y-93499557D01*
X135125575Y-93662944D01*
X135067277Y-93842369D01*
X135047556Y-94030000D01*
X133525500Y-94030000D01*
X133525500Y-91490000D01*
X135047556Y-91490000D01*
X135067277Y-91677630D01*
X135125575Y-91857055D01*
X135219906Y-92020442D01*
X135346144Y-92160645D01*
X135346147Y-92160647D01*
X135498778Y-92271539D01*
X135671124Y-92348273D01*
X135671129Y-92348275D01*
X135855669Y-92387500D01*
X135855670Y-92387500D01*
X136044329Y-92387500D01*
X136044331Y-92387500D01*
X136228871Y-92348275D01*
X136401222Y-92271539D01*
X136553853Y-92160647D01*
X136680093Y-92020443D01*
X136691899Y-91999995D01*
X137225037Y-91999995D01*
X137225037Y-92000004D01*
X137244860Y-92264535D01*
X137244861Y-92264540D01*
X137303890Y-92523166D01*
X137303896Y-92523185D01*
X137400814Y-92770128D01*
X137400813Y-92770128D01*
X137533457Y-92999871D01*
X137583642Y-93062803D01*
X137583643Y-93062803D01*
X138070868Y-92575577D01*
X138168595Y-92710087D01*
X138289913Y-92831405D01*
X138424420Y-92929130D01*
X137936438Y-93417112D01*
X138112525Y-93537166D01*
X138112526Y-93537167D01*
X138351530Y-93652264D01*
X138351528Y-93652264D01*
X138605025Y-93730458D01*
X138605031Y-93730459D01*
X138867351Y-93769999D01*
X138867358Y-93770000D01*
X139132642Y-93770000D01*
X139132648Y-93769999D01*
X139265354Y-93749996D01*
X159417794Y-93749996D01*
X159417794Y-93750003D01*
X159436498Y-93868104D01*
X159436498Y-93868105D01*
X159490790Y-93974657D01*
X159575342Y-94059209D01*
X159575344Y-94059210D01*
X159575345Y-94059211D01*
X159681892Y-94113500D01*
X159681893Y-94113500D01*
X159681895Y-94113501D01*
X159799997Y-94132206D01*
X159800000Y-94132206D01*
X159800003Y-94132206D01*
X159918104Y-94113501D01*
X159918105Y-94113501D01*
X159918106Y-94113500D01*
X159918108Y-94113500D01*
X160024655Y-94059211D01*
X160053866Y-94030000D01*
X173147556Y-94030000D01*
X173167277Y-94217630D01*
X173225575Y-94397055D01*
X173319906Y-94560442D01*
X173446144Y-94700645D01*
X173446147Y-94700647D01*
X173598778Y-94811539D01*
X173771124Y-94888273D01*
X173771129Y-94888275D01*
X173955669Y-94927500D01*
X173955670Y-94927500D01*
X174144329Y-94927500D01*
X174144331Y-94927500D01*
X174328871Y-94888275D01*
X174501222Y-94811539D01*
X174653853Y-94700647D01*
X174780093Y-94560443D01*
X174874424Y-94397057D01*
X174932723Y-94217629D01*
X174952444Y-94030000D01*
X174932723Y-93842371D01*
X174874424Y-93662943D01*
X174780093Y-93499557D01*
X174653855Y-93359354D01*
X174537275Y-93274655D01*
X174501222Y-93248461D01*
X174501220Y-93248460D01*
X174501221Y-93248460D01*
X174328875Y-93171726D01*
X174328870Y-93171724D01*
X174183555Y-93140837D01*
X174144331Y-93132500D01*
X173955669Y-93132500D01*
X173923320Y-93139375D01*
X173771129Y-93171724D01*
X173771124Y-93171726D01*
X173598779Y-93248460D01*
X173446144Y-93359354D01*
X173319906Y-93499557D01*
X173225575Y-93662944D01*
X173167277Y-93842369D01*
X173147556Y-94030000D01*
X160053866Y-94030000D01*
X160109211Y-93974655D01*
X160163500Y-93868108D01*
X160163500Y-93868106D01*
X160163501Y-93868105D01*
X160163501Y-93868104D01*
X160182206Y-93750003D01*
X160182206Y-93749996D01*
X160163501Y-93631895D01*
X160163501Y-93631894D01*
X160163500Y-93631892D01*
X160109211Y-93525345D01*
X160109210Y-93525344D01*
X160109209Y-93525342D01*
X160024657Y-93440790D01*
X159918104Y-93386498D01*
X159800003Y-93367794D01*
X159799997Y-93367794D01*
X159681895Y-93386498D01*
X159681894Y-93386498D01*
X159575342Y-93440790D01*
X159490790Y-93525342D01*
X159436498Y-93631894D01*
X159436498Y-93631895D01*
X159417794Y-93749996D01*
X139265354Y-93749996D01*
X139394968Y-93730459D01*
X139394974Y-93730458D01*
X139648470Y-93652264D01*
X139887479Y-93537164D01*
X140063560Y-93417112D01*
X139575578Y-92929130D01*
X139710087Y-92831405D01*
X139831405Y-92710087D01*
X139929130Y-92575578D01*
X140416355Y-93062803D01*
X140416356Y-93062802D01*
X140426569Y-93049996D01*
X156017794Y-93049996D01*
X156017794Y-93050003D01*
X156036498Y-93168104D01*
X156036498Y-93168105D01*
X156090790Y-93274657D01*
X156175342Y-93359209D01*
X156175344Y-93359210D01*
X156175345Y-93359211D01*
X156281892Y-93413500D01*
X156281893Y-93413500D01*
X156281895Y-93413501D01*
X156399997Y-93432206D01*
X156400000Y-93432206D01*
X156400003Y-93432206D01*
X156518104Y-93413501D01*
X156518105Y-93413501D01*
X156518106Y-93413500D01*
X156518108Y-93413500D01*
X156624655Y-93359211D01*
X156709211Y-93274655D01*
X156763500Y-93168108D01*
X156763500Y-93168106D01*
X156763501Y-93168105D01*
X156763501Y-93168104D01*
X156782206Y-93050003D01*
X156782206Y-93049996D01*
X156763501Y-92931895D01*
X156763501Y-92931894D01*
X156738183Y-92882206D01*
X156709211Y-92825345D01*
X156709210Y-92825344D01*
X156709209Y-92825342D01*
X156624657Y-92740790D01*
X156518104Y-92686498D01*
X156400003Y-92667794D01*
X156399997Y-92667794D01*
X156281895Y-92686498D01*
X156281894Y-92686498D01*
X156175342Y-92740790D01*
X156090790Y-92825342D01*
X156036498Y-92931894D01*
X156036498Y-92931895D01*
X156017794Y-93049996D01*
X140426569Y-93049996D01*
X140466545Y-92999869D01*
X140599185Y-92770128D01*
X140696103Y-92523185D01*
X140696109Y-92523166D01*
X140701397Y-92499996D01*
X166517794Y-92499996D01*
X166517794Y-92500003D01*
X166536498Y-92618104D01*
X166536498Y-92618105D01*
X166590790Y-92724657D01*
X166675342Y-92809209D01*
X166675344Y-92809210D01*
X166675345Y-92809211D01*
X166781892Y-92863500D01*
X166781893Y-92863500D01*
X166781895Y-92863501D01*
X166899997Y-92882206D01*
X166900000Y-92882206D01*
X166900003Y-92882206D01*
X167018104Y-92863501D01*
X167018105Y-92863501D01*
X167018106Y-92863500D01*
X167018108Y-92863500D01*
X167124655Y-92809211D01*
X167209211Y-92724655D01*
X167263500Y-92618108D01*
X167263500Y-92618106D01*
X167263501Y-92618105D01*
X167263501Y-92618104D01*
X167282206Y-92500003D01*
X167282206Y-92499996D01*
X167263501Y-92381895D01*
X167263501Y-92381894D01*
X167209209Y-92275342D01*
X167124657Y-92190790D01*
X167018104Y-92136498D01*
X166900003Y-92117794D01*
X166899997Y-92117794D01*
X166781895Y-92136498D01*
X166781894Y-92136498D01*
X166675342Y-92190790D01*
X166590790Y-92275342D01*
X166536498Y-92381894D01*
X166536498Y-92381895D01*
X166517794Y-92499996D01*
X140701397Y-92499996D01*
X140755138Y-92264540D01*
X140755139Y-92264535D01*
X140774963Y-92000004D01*
X140774963Y-91999995D01*
X169225037Y-91999995D01*
X169225037Y-92000004D01*
X169244860Y-92264535D01*
X169244861Y-92264540D01*
X169303890Y-92523166D01*
X169303896Y-92523185D01*
X169400814Y-92770128D01*
X169400813Y-92770128D01*
X169533457Y-92999871D01*
X169583642Y-93062803D01*
X169583643Y-93062803D01*
X170070868Y-92575577D01*
X170168595Y-92710087D01*
X170289913Y-92831405D01*
X170424420Y-92929130D01*
X169936438Y-93417112D01*
X170112525Y-93537166D01*
X170112526Y-93537167D01*
X170351530Y-93652264D01*
X170351528Y-93652264D01*
X170605025Y-93730458D01*
X170605031Y-93730459D01*
X170867351Y-93769999D01*
X170867358Y-93770000D01*
X171132642Y-93770000D01*
X171132648Y-93769999D01*
X171394968Y-93730459D01*
X171394974Y-93730458D01*
X171648470Y-93652264D01*
X171887479Y-93537164D01*
X172063560Y-93417112D01*
X171575578Y-92929130D01*
X171710087Y-92831405D01*
X171831405Y-92710087D01*
X171929130Y-92575578D01*
X172416355Y-93062803D01*
X172416356Y-93062802D01*
X172466545Y-92999869D01*
X172599185Y-92770128D01*
X172696103Y-92523185D01*
X172696109Y-92523166D01*
X172755138Y-92264540D01*
X172755139Y-92264535D01*
X172774963Y-92000004D01*
X172774963Y-91999995D01*
X172755139Y-91735464D01*
X172755138Y-91735459D01*
X172699114Y-91490000D01*
X173147556Y-91490000D01*
X173167277Y-91677630D01*
X173225575Y-91857055D01*
X173319906Y-92020442D01*
X173446144Y-92160645D01*
X173446147Y-92160647D01*
X173598778Y-92271539D01*
X173771124Y-92348273D01*
X173771129Y-92348275D01*
X173955669Y-92387500D01*
X173955670Y-92387500D01*
X174144329Y-92387500D01*
X174144331Y-92387500D01*
X174328871Y-92348275D01*
X174501222Y-92271539D01*
X174653853Y-92160647D01*
X174780093Y-92020443D01*
X174874424Y-91857057D01*
X174932723Y-91677629D01*
X174952444Y-91490000D01*
X174932723Y-91302371D01*
X174874424Y-91122943D01*
X174780093Y-90959557D01*
X174735472Y-90910000D01*
X174653855Y-90819354D01*
X174577537Y-90763907D01*
X174501222Y-90708461D01*
X174501220Y-90708460D01*
X174501221Y-90708460D01*
X174328875Y-90631726D01*
X174328870Y-90631724D01*
X174183555Y-90600837D01*
X174144331Y-90592500D01*
X173955669Y-90592500D01*
X173923320Y-90599375D01*
X173771129Y-90631724D01*
X173771124Y-90631726D01*
X173598779Y-90708460D01*
X173446144Y-90819354D01*
X173319906Y-90959557D01*
X173225575Y-91122944D01*
X173167277Y-91302369D01*
X173147556Y-91490000D01*
X172699114Y-91490000D01*
X172696109Y-91476833D01*
X172696103Y-91476814D01*
X172599185Y-91229871D01*
X172599186Y-91229871D01*
X172466543Y-91000129D01*
X172466536Y-91000118D01*
X172416356Y-90937196D01*
X172416355Y-90937195D01*
X171929130Y-91424420D01*
X171831405Y-91289913D01*
X171710087Y-91168595D01*
X171575578Y-91070868D01*
X172063560Y-90582886D01*
X171887484Y-90462839D01*
X171887474Y-90462832D01*
X171648469Y-90347735D01*
X171648471Y-90347735D01*
X171394974Y-90269541D01*
X171394968Y-90269540D01*
X171132648Y-90230000D01*
X170867351Y-90230000D01*
X170605031Y-90269540D01*
X170605025Y-90269541D01*
X170351529Y-90347735D01*
X170112526Y-90462832D01*
X170112518Y-90462837D01*
X169936438Y-90582886D01*
X170424421Y-91070869D01*
X170289913Y-91168595D01*
X170168595Y-91289913D01*
X170070868Y-91424421D01*
X169583643Y-90937196D01*
X169533456Y-91000128D01*
X169400814Y-91229871D01*
X169303896Y-91476814D01*
X169303890Y-91476833D01*
X169244861Y-91735459D01*
X169244860Y-91735464D01*
X169225037Y-91999995D01*
X140774963Y-91999995D01*
X140755139Y-91735464D01*
X140755138Y-91735459D01*
X140696109Y-91476833D01*
X140696103Y-91476814D01*
X140665954Y-91399996D01*
X157817794Y-91399996D01*
X157817794Y-91400003D01*
X157836498Y-91518104D01*
X157836498Y-91518105D01*
X157890790Y-91624657D01*
X157975342Y-91709209D01*
X157975344Y-91709210D01*
X157975345Y-91709211D01*
X158081892Y-91763500D01*
X158081893Y-91763500D01*
X158081895Y-91763501D01*
X158199997Y-91782206D01*
X158200000Y-91782206D01*
X158200003Y-91782206D01*
X158318104Y-91763501D01*
X158318105Y-91763501D01*
X158318106Y-91763500D01*
X158318108Y-91763500D01*
X158424655Y-91709211D01*
X158509211Y-91624655D01*
X158563500Y-91518108D01*
X158563500Y-91518106D01*
X158563501Y-91518105D01*
X158563501Y-91518104D01*
X158582206Y-91400003D01*
X158582206Y-91399996D01*
X158563501Y-91281895D01*
X158563501Y-91281894D01*
X158563500Y-91281892D01*
X158509211Y-91175345D01*
X158509210Y-91175344D01*
X158509209Y-91175342D01*
X158424657Y-91090790D01*
X158318104Y-91036498D01*
X158200003Y-91017794D01*
X158199997Y-91017794D01*
X158081895Y-91036498D01*
X158081894Y-91036498D01*
X157975342Y-91090790D01*
X157890790Y-91175342D01*
X157836498Y-91281894D01*
X157836498Y-91281895D01*
X157817794Y-91399996D01*
X140665954Y-91399996D01*
X140599185Y-91229871D01*
X140599186Y-91229871D01*
X140466543Y-91000129D01*
X140466536Y-91000118D01*
X140416356Y-90937196D01*
X140416355Y-90937195D01*
X139929130Y-91424420D01*
X139831405Y-91289913D01*
X139710087Y-91168595D01*
X139575578Y-91070868D01*
X140063560Y-90582886D01*
X139887484Y-90462839D01*
X139887474Y-90462832D01*
X139648469Y-90347735D01*
X139648471Y-90347735D01*
X139394974Y-90269541D01*
X139394968Y-90269540D01*
X139132648Y-90230000D01*
X138867351Y-90230000D01*
X138605031Y-90269540D01*
X138605025Y-90269541D01*
X138351529Y-90347735D01*
X138112526Y-90462832D01*
X138112518Y-90462837D01*
X137936438Y-90582886D01*
X138424421Y-91070869D01*
X138289913Y-91168595D01*
X138168595Y-91289913D01*
X138070868Y-91424421D01*
X137583643Y-90937196D01*
X137533456Y-91000128D01*
X137400814Y-91229871D01*
X137303896Y-91476814D01*
X137303890Y-91476833D01*
X137244861Y-91735459D01*
X137244860Y-91735464D01*
X137225037Y-91999995D01*
X136691899Y-91999995D01*
X136774424Y-91857057D01*
X136832723Y-91677629D01*
X136852444Y-91490000D01*
X136832723Y-91302371D01*
X136774424Y-91122943D01*
X136680093Y-90959557D01*
X136635472Y-90910000D01*
X136553855Y-90819354D01*
X136477537Y-90763907D01*
X136401222Y-90708461D01*
X136401220Y-90708460D01*
X136401221Y-90708460D01*
X136228875Y-90631726D01*
X136228870Y-90631724D01*
X136083555Y-90600837D01*
X136044331Y-90592500D01*
X135855669Y-90592500D01*
X135823320Y-90599375D01*
X135671129Y-90631724D01*
X135671124Y-90631726D01*
X135498779Y-90708460D01*
X135346144Y-90819354D01*
X135219906Y-90959557D01*
X135125575Y-91122944D01*
X135067277Y-91302369D01*
X135047556Y-91490000D01*
X133525500Y-91490000D01*
X133525500Y-89066930D01*
X133525891Y-89064323D01*
X133525628Y-89047877D01*
X133525630Y-89047876D01*
X133525554Y-89043135D01*
X133525642Y-89036112D01*
X133529196Y-88950000D01*
X135047556Y-88950000D01*
X135067277Y-89137630D01*
X135125575Y-89317055D01*
X135219906Y-89480442D01*
X135346144Y-89620645D01*
X135346147Y-89620647D01*
X135498778Y-89731539D01*
X135671124Y-89808273D01*
X135671129Y-89808275D01*
X135855669Y-89847500D01*
X135855670Y-89847500D01*
X136044329Y-89847500D01*
X136044331Y-89847500D01*
X136228871Y-89808275D01*
X136401222Y-89731539D01*
X136553853Y-89620647D01*
X136680093Y-89480443D01*
X136774424Y-89317057D01*
X136832723Y-89137629D01*
X136852444Y-88950000D01*
X137587556Y-88950000D01*
X137607277Y-89137630D01*
X137665575Y-89317055D01*
X137759906Y-89480442D01*
X137886144Y-89620645D01*
X137886147Y-89620647D01*
X138038778Y-89731539D01*
X138211124Y-89808273D01*
X138211129Y-89808275D01*
X138395669Y-89847500D01*
X138395670Y-89847500D01*
X138584329Y-89847500D01*
X138584331Y-89847500D01*
X138768871Y-89808275D01*
X138941222Y-89731539D01*
X139093853Y-89620647D01*
X139220093Y-89480443D01*
X139314424Y-89317057D01*
X139372723Y-89137629D01*
X139392444Y-88950000D01*
X139392444Y-88949999D01*
X139755149Y-88949999D01*
X139755149Y-88950000D01*
X139774516Y-89171371D01*
X139774518Y-89171381D01*
X139832029Y-89386017D01*
X139832033Y-89386026D01*
X139925949Y-89587429D01*
X139972513Y-89653931D01*
X139972514Y-89653932D01*
X140547037Y-89079409D01*
X140564075Y-89142993D01*
X140629901Y-89257007D01*
X140722993Y-89350099D01*
X140837007Y-89415925D01*
X140900590Y-89432962D01*
X140326066Y-90007484D01*
X140326067Y-90007485D01*
X140392570Y-90054050D01*
X140593973Y-90147966D01*
X140593982Y-90147970D01*
X140808618Y-90205481D01*
X140808628Y-90205483D01*
X141029999Y-90224851D01*
X141030001Y-90224851D01*
X141251371Y-90205483D01*
X141251381Y-90205481D01*
X141466017Y-90147970D01*
X141466026Y-90147966D01*
X141667425Y-90054052D01*
X141733932Y-90007484D01*
X141159409Y-89432962D01*
X141222993Y-89415925D01*
X141337007Y-89350099D01*
X141430099Y-89257007D01*
X141495925Y-89142993D01*
X141512962Y-89079409D01*
X142087484Y-89653932D01*
X142134052Y-89587425D01*
X142227966Y-89386026D01*
X142227970Y-89386017D01*
X142285481Y-89171381D01*
X142285483Y-89171371D01*
X142304851Y-88950000D01*
X142667556Y-88950000D01*
X142687277Y-89137630D01*
X142745575Y-89317055D01*
X142839906Y-89480442D01*
X142966144Y-89620645D01*
X142966147Y-89620647D01*
X143118778Y-89731539D01*
X143291124Y-89808273D01*
X143291129Y-89808275D01*
X143475669Y-89847500D01*
X143475670Y-89847500D01*
X143664329Y-89847500D01*
X143664331Y-89847500D01*
X143848871Y-89808275D01*
X144021222Y-89731539D01*
X144173853Y-89620647D01*
X144300093Y-89480443D01*
X144394424Y-89317057D01*
X144452723Y-89137629D01*
X144472444Y-88950000D01*
X145207556Y-88950000D01*
X145227277Y-89137630D01*
X145285575Y-89317055D01*
X145379906Y-89480442D01*
X145506144Y-89620645D01*
X145506147Y-89620647D01*
X145658778Y-89731539D01*
X145831124Y-89808273D01*
X145831129Y-89808275D01*
X146015669Y-89847500D01*
X146015670Y-89847500D01*
X146204329Y-89847500D01*
X146204331Y-89847500D01*
X146388871Y-89808275D01*
X146561222Y-89731539D01*
X146713853Y-89620647D01*
X146840093Y-89480443D01*
X146934424Y-89317057D01*
X146992723Y-89137629D01*
X147012444Y-88950000D01*
X147747556Y-88950000D01*
X147767277Y-89137630D01*
X147825575Y-89317055D01*
X147919906Y-89480442D01*
X148046144Y-89620645D01*
X148046147Y-89620647D01*
X148198778Y-89731539D01*
X148371124Y-89808273D01*
X148371129Y-89808275D01*
X148555669Y-89847500D01*
X148555670Y-89847500D01*
X148744329Y-89847500D01*
X148744331Y-89847500D01*
X148928871Y-89808275D01*
X149101222Y-89731539D01*
X149253853Y-89620647D01*
X149380093Y-89480443D01*
X149474424Y-89317057D01*
X149532723Y-89137629D01*
X149552444Y-88950000D01*
X150287556Y-88950000D01*
X150307277Y-89137630D01*
X150365575Y-89317055D01*
X150459906Y-89480442D01*
X150586144Y-89620645D01*
X150586147Y-89620647D01*
X150738778Y-89731539D01*
X150911124Y-89808273D01*
X150911129Y-89808275D01*
X151095669Y-89847500D01*
X151095670Y-89847500D01*
X151284329Y-89847500D01*
X151284331Y-89847500D01*
X151468871Y-89808275D01*
X151641222Y-89731539D01*
X151793853Y-89620647D01*
X151920093Y-89480443D01*
X152014424Y-89317057D01*
X152072723Y-89137629D01*
X152092444Y-88950000D01*
X152827556Y-88950000D01*
X152847277Y-89137630D01*
X152905575Y-89317055D01*
X152999906Y-89480442D01*
X153126144Y-89620645D01*
X153126147Y-89620647D01*
X153278778Y-89731539D01*
X153451124Y-89808273D01*
X153451129Y-89808275D01*
X153635669Y-89847500D01*
X153635670Y-89847500D01*
X153824329Y-89847500D01*
X153824331Y-89847500D01*
X154008871Y-89808275D01*
X154181222Y-89731539D01*
X154333853Y-89620647D01*
X154460093Y-89480443D01*
X154554424Y-89317057D01*
X154612723Y-89137629D01*
X154632444Y-88950000D01*
X155367556Y-88950000D01*
X155387277Y-89137630D01*
X155445575Y-89317055D01*
X155539906Y-89480442D01*
X155666144Y-89620645D01*
X155666147Y-89620647D01*
X155818778Y-89731539D01*
X155991124Y-89808273D01*
X155991129Y-89808275D01*
X156175669Y-89847500D01*
X156175670Y-89847500D01*
X156364329Y-89847500D01*
X156364331Y-89847500D01*
X156548871Y-89808275D01*
X156721222Y-89731539D01*
X156873853Y-89620647D01*
X157000093Y-89480443D01*
X157094424Y-89317057D01*
X157152723Y-89137629D01*
X157172444Y-88950000D01*
X157907556Y-88950000D01*
X157927277Y-89137630D01*
X157985575Y-89317055D01*
X158079906Y-89480442D01*
X158206144Y-89620645D01*
X158206147Y-89620647D01*
X158358778Y-89731539D01*
X158531124Y-89808273D01*
X158531129Y-89808275D01*
X158715669Y-89847500D01*
X158715670Y-89847500D01*
X158904329Y-89847500D01*
X158904331Y-89847500D01*
X159088871Y-89808275D01*
X159261222Y-89731539D01*
X159413853Y-89620647D01*
X159540093Y-89480443D01*
X159634424Y-89317057D01*
X159692723Y-89137629D01*
X159712444Y-88950000D01*
X160447556Y-88950000D01*
X160467277Y-89137630D01*
X160525575Y-89317055D01*
X160619906Y-89480442D01*
X160746144Y-89620645D01*
X160746147Y-89620647D01*
X160898778Y-89731539D01*
X161071124Y-89808273D01*
X161071129Y-89808275D01*
X161255669Y-89847500D01*
X161255670Y-89847500D01*
X161444329Y-89847500D01*
X161444331Y-89847500D01*
X161628871Y-89808275D01*
X161801222Y-89731539D01*
X161953853Y-89620647D01*
X162080093Y-89480443D01*
X162174424Y-89317057D01*
X162232723Y-89137629D01*
X162252444Y-88950000D01*
X162987556Y-88950000D01*
X163007277Y-89137630D01*
X163065575Y-89317055D01*
X163159906Y-89480442D01*
X163286144Y-89620645D01*
X163286147Y-89620647D01*
X163438778Y-89731539D01*
X163611124Y-89808273D01*
X163611129Y-89808275D01*
X163795669Y-89847500D01*
X163795670Y-89847500D01*
X163984329Y-89847500D01*
X163984331Y-89847500D01*
X164168871Y-89808275D01*
X164341222Y-89731539D01*
X164493853Y-89620647D01*
X164620093Y-89480443D01*
X164714424Y-89317057D01*
X164772723Y-89137629D01*
X164792444Y-88950000D01*
X165527556Y-88950000D01*
X165547277Y-89137630D01*
X165605575Y-89317055D01*
X165699906Y-89480442D01*
X165826144Y-89620645D01*
X165826147Y-89620647D01*
X165978778Y-89731539D01*
X166151124Y-89808273D01*
X166151129Y-89808275D01*
X166335669Y-89847500D01*
X166335670Y-89847500D01*
X166524329Y-89847500D01*
X166524331Y-89847500D01*
X166708871Y-89808275D01*
X166881222Y-89731539D01*
X167033853Y-89620647D01*
X167160093Y-89480443D01*
X167254424Y-89317057D01*
X167312723Y-89137629D01*
X167332444Y-88950000D01*
X168067556Y-88950000D01*
X168087277Y-89137630D01*
X168145575Y-89317055D01*
X168239906Y-89480442D01*
X168366144Y-89620645D01*
X168366147Y-89620647D01*
X168518778Y-89731539D01*
X168691124Y-89808273D01*
X168691129Y-89808275D01*
X168875669Y-89847500D01*
X168875670Y-89847500D01*
X169064329Y-89847500D01*
X169064331Y-89847500D01*
X169248871Y-89808275D01*
X169421222Y-89731539D01*
X169573853Y-89620647D01*
X169700093Y-89480443D01*
X169794424Y-89317057D01*
X169852723Y-89137629D01*
X169872444Y-88950000D01*
X170607556Y-88950000D01*
X170627277Y-89137630D01*
X170685575Y-89317055D01*
X170779906Y-89480442D01*
X170906144Y-89620645D01*
X170906147Y-89620647D01*
X171058778Y-89731539D01*
X171231124Y-89808273D01*
X171231129Y-89808275D01*
X171415669Y-89847500D01*
X171415670Y-89847500D01*
X171604329Y-89847500D01*
X171604331Y-89847500D01*
X171788871Y-89808275D01*
X171961222Y-89731539D01*
X172113853Y-89620647D01*
X172240093Y-89480443D01*
X172334424Y-89317057D01*
X172392723Y-89137629D01*
X172412444Y-88950000D01*
X173147556Y-88950000D01*
X173167277Y-89137630D01*
X173225575Y-89317055D01*
X173319906Y-89480442D01*
X173446144Y-89620645D01*
X173446147Y-89620647D01*
X173598778Y-89731539D01*
X173771124Y-89808273D01*
X173771129Y-89808275D01*
X173955669Y-89847500D01*
X173955670Y-89847500D01*
X174144329Y-89847500D01*
X174144331Y-89847500D01*
X174328871Y-89808275D01*
X174501222Y-89731539D01*
X174653853Y-89620647D01*
X174780093Y-89480443D01*
X174874424Y-89317057D01*
X174932723Y-89137629D01*
X174952444Y-88950000D01*
X174932723Y-88762371D01*
X174874424Y-88582943D01*
X174780093Y-88419557D01*
X174653855Y-88279354D01*
X174541089Y-88197426D01*
X174501222Y-88168461D01*
X174501220Y-88168460D01*
X174501221Y-88168460D01*
X174328875Y-88091726D01*
X174328870Y-88091724D01*
X174183555Y-88060837D01*
X174144331Y-88052500D01*
X173955669Y-88052500D01*
X173923320Y-88059375D01*
X173771129Y-88091724D01*
X173771124Y-88091726D01*
X173598779Y-88168460D01*
X173446144Y-88279354D01*
X173319906Y-88419557D01*
X173225575Y-88582944D01*
X173167277Y-88762369D01*
X173147556Y-88950000D01*
X172412444Y-88950000D01*
X172392723Y-88762371D01*
X172334424Y-88582943D01*
X172240093Y-88419557D01*
X172113855Y-88279354D01*
X172001089Y-88197426D01*
X171961222Y-88168461D01*
X171961220Y-88168460D01*
X171961221Y-88168460D01*
X171788875Y-88091726D01*
X171788870Y-88091724D01*
X171643555Y-88060837D01*
X171604331Y-88052500D01*
X171415669Y-88052500D01*
X171383320Y-88059375D01*
X171231129Y-88091724D01*
X171231124Y-88091726D01*
X171058779Y-88168460D01*
X170906144Y-88279354D01*
X170779906Y-88419557D01*
X170685575Y-88582944D01*
X170627277Y-88762369D01*
X170607556Y-88950000D01*
X169872444Y-88950000D01*
X169852723Y-88762371D01*
X169794424Y-88582943D01*
X169700093Y-88419557D01*
X169573855Y-88279354D01*
X169461089Y-88197426D01*
X169421222Y-88168461D01*
X169421220Y-88168460D01*
X169421221Y-88168460D01*
X169248875Y-88091726D01*
X169248870Y-88091724D01*
X169103555Y-88060837D01*
X169064331Y-88052500D01*
X168875669Y-88052500D01*
X168843320Y-88059375D01*
X168691129Y-88091724D01*
X168691124Y-88091726D01*
X168518779Y-88168460D01*
X168366144Y-88279354D01*
X168239906Y-88419557D01*
X168145575Y-88582944D01*
X168087277Y-88762369D01*
X168067556Y-88950000D01*
X167332444Y-88950000D01*
X167312723Y-88762371D01*
X167254424Y-88582943D01*
X167160093Y-88419557D01*
X167033855Y-88279354D01*
X166921089Y-88197426D01*
X166881222Y-88168461D01*
X166881220Y-88168460D01*
X166881221Y-88168460D01*
X166708875Y-88091726D01*
X166708870Y-88091724D01*
X166563555Y-88060837D01*
X166524331Y-88052500D01*
X166335669Y-88052500D01*
X166303320Y-88059375D01*
X166151129Y-88091724D01*
X166151124Y-88091726D01*
X165978779Y-88168460D01*
X165826144Y-88279354D01*
X165699906Y-88419557D01*
X165605575Y-88582944D01*
X165547277Y-88762369D01*
X165527556Y-88950000D01*
X164792444Y-88950000D01*
X164772723Y-88762371D01*
X164714424Y-88582943D01*
X164620093Y-88419557D01*
X164493855Y-88279354D01*
X164381089Y-88197426D01*
X164341222Y-88168461D01*
X164341220Y-88168460D01*
X164341221Y-88168460D01*
X164168875Y-88091726D01*
X164168870Y-88091724D01*
X164023555Y-88060837D01*
X163984331Y-88052500D01*
X163795669Y-88052500D01*
X163763320Y-88059375D01*
X163611129Y-88091724D01*
X163611124Y-88091726D01*
X163438779Y-88168460D01*
X163286144Y-88279354D01*
X163159906Y-88419557D01*
X163065575Y-88582944D01*
X163007277Y-88762369D01*
X162987556Y-88950000D01*
X162252444Y-88950000D01*
X162232723Y-88762371D01*
X162174424Y-88582943D01*
X162080093Y-88419557D01*
X161953855Y-88279354D01*
X161841089Y-88197426D01*
X161801222Y-88168461D01*
X161801220Y-88168460D01*
X161801221Y-88168460D01*
X161628875Y-88091726D01*
X161628870Y-88091724D01*
X161483555Y-88060837D01*
X161444331Y-88052500D01*
X161255669Y-88052500D01*
X161223320Y-88059375D01*
X161071129Y-88091724D01*
X161071124Y-88091726D01*
X160898779Y-88168460D01*
X160746144Y-88279354D01*
X160619906Y-88419557D01*
X160525575Y-88582944D01*
X160467277Y-88762369D01*
X160447556Y-88950000D01*
X159712444Y-88950000D01*
X159692723Y-88762371D01*
X159634424Y-88582943D01*
X159540093Y-88419557D01*
X159413855Y-88279354D01*
X159301089Y-88197426D01*
X159261222Y-88168461D01*
X159261220Y-88168460D01*
X159261221Y-88168460D01*
X159088875Y-88091726D01*
X159088870Y-88091724D01*
X158943555Y-88060837D01*
X158904331Y-88052500D01*
X158715669Y-88052500D01*
X158683320Y-88059375D01*
X158531129Y-88091724D01*
X158531124Y-88091726D01*
X158358779Y-88168460D01*
X158206144Y-88279354D01*
X158079906Y-88419557D01*
X157985575Y-88582944D01*
X157927277Y-88762369D01*
X157907556Y-88950000D01*
X157172444Y-88950000D01*
X157152723Y-88762371D01*
X157094424Y-88582943D01*
X157000093Y-88419557D01*
X156873855Y-88279354D01*
X156761089Y-88197426D01*
X156721222Y-88168461D01*
X156721220Y-88168460D01*
X156721221Y-88168460D01*
X156548875Y-88091726D01*
X156548870Y-88091724D01*
X156403555Y-88060837D01*
X156364331Y-88052500D01*
X156175669Y-88052500D01*
X156143320Y-88059375D01*
X155991129Y-88091724D01*
X155991124Y-88091726D01*
X155818779Y-88168460D01*
X155666144Y-88279354D01*
X155539906Y-88419557D01*
X155445575Y-88582944D01*
X155387277Y-88762369D01*
X155367556Y-88950000D01*
X154632444Y-88950000D01*
X154612723Y-88762371D01*
X154554424Y-88582943D01*
X154460093Y-88419557D01*
X154333855Y-88279354D01*
X154221089Y-88197426D01*
X154181222Y-88168461D01*
X154181220Y-88168460D01*
X154181221Y-88168460D01*
X154008875Y-88091726D01*
X154008870Y-88091724D01*
X153863555Y-88060837D01*
X153824331Y-88052500D01*
X153635669Y-88052500D01*
X153603320Y-88059375D01*
X153451129Y-88091724D01*
X153451124Y-88091726D01*
X153278779Y-88168460D01*
X153126144Y-88279354D01*
X152999906Y-88419557D01*
X152905575Y-88582944D01*
X152847277Y-88762369D01*
X152827556Y-88950000D01*
X152092444Y-88950000D01*
X152072723Y-88762371D01*
X152014424Y-88582943D01*
X151920093Y-88419557D01*
X151793855Y-88279354D01*
X151681089Y-88197426D01*
X151641222Y-88168461D01*
X151641220Y-88168460D01*
X151641221Y-88168460D01*
X151468875Y-88091726D01*
X151468870Y-88091724D01*
X151323555Y-88060837D01*
X151284331Y-88052500D01*
X151095669Y-88052500D01*
X151063320Y-88059375D01*
X150911129Y-88091724D01*
X150911124Y-88091726D01*
X150738779Y-88168460D01*
X150586144Y-88279354D01*
X150459906Y-88419557D01*
X150365575Y-88582944D01*
X150307277Y-88762369D01*
X150287556Y-88950000D01*
X149552444Y-88950000D01*
X149532723Y-88762371D01*
X149474424Y-88582943D01*
X149380093Y-88419557D01*
X149253855Y-88279354D01*
X149141089Y-88197426D01*
X149101222Y-88168461D01*
X149101220Y-88168460D01*
X149101221Y-88168460D01*
X148928875Y-88091726D01*
X148928870Y-88091724D01*
X148783555Y-88060837D01*
X148744331Y-88052500D01*
X148555669Y-88052500D01*
X148523320Y-88059375D01*
X148371129Y-88091724D01*
X148371124Y-88091726D01*
X148198779Y-88168460D01*
X148046144Y-88279354D01*
X147919906Y-88419557D01*
X147825575Y-88582944D01*
X147767277Y-88762369D01*
X147747556Y-88950000D01*
X147012444Y-88950000D01*
X146992723Y-88762371D01*
X146934424Y-88582943D01*
X146840093Y-88419557D01*
X146713855Y-88279354D01*
X146601089Y-88197426D01*
X146561222Y-88168461D01*
X146561220Y-88168460D01*
X146561221Y-88168460D01*
X146388875Y-88091726D01*
X146388870Y-88091724D01*
X146243555Y-88060837D01*
X146204331Y-88052500D01*
X146015669Y-88052500D01*
X145983320Y-88059375D01*
X145831129Y-88091724D01*
X145831124Y-88091726D01*
X145658779Y-88168460D01*
X145506144Y-88279354D01*
X145379906Y-88419557D01*
X145285575Y-88582944D01*
X145227277Y-88762369D01*
X145207556Y-88950000D01*
X144472444Y-88950000D01*
X144452723Y-88762371D01*
X144394424Y-88582943D01*
X144300093Y-88419557D01*
X144173855Y-88279354D01*
X144061089Y-88197426D01*
X144021222Y-88168461D01*
X144021220Y-88168460D01*
X144021221Y-88168460D01*
X143848875Y-88091726D01*
X143848870Y-88091724D01*
X143703555Y-88060837D01*
X143664331Y-88052500D01*
X143475669Y-88052500D01*
X143443320Y-88059375D01*
X143291129Y-88091724D01*
X143291124Y-88091726D01*
X143118779Y-88168460D01*
X142966144Y-88279354D01*
X142839906Y-88419557D01*
X142745575Y-88582944D01*
X142687277Y-88762369D01*
X142667556Y-88950000D01*
X142304851Y-88950000D01*
X142304851Y-88949999D01*
X142285483Y-88728628D01*
X142285481Y-88728618D01*
X142227970Y-88513982D01*
X142227966Y-88513973D01*
X142134054Y-88312577D01*
X142087483Y-88246067D01*
X141512962Y-88820589D01*
X141495925Y-88757007D01*
X141430099Y-88642993D01*
X141337007Y-88549901D01*
X141222993Y-88484075D01*
X141159409Y-88467037D01*
X141733932Y-87892514D01*
X141733931Y-87892513D01*
X141667429Y-87845949D01*
X141466026Y-87752033D01*
X141466017Y-87752029D01*
X141251381Y-87694518D01*
X141251371Y-87694516D01*
X141030001Y-87675149D01*
X141029999Y-87675149D01*
X140808628Y-87694516D01*
X140808618Y-87694518D01*
X140593982Y-87752029D01*
X140593973Y-87752032D01*
X140392576Y-87845946D01*
X140392574Y-87845947D01*
X140326068Y-87892515D01*
X140326067Y-87892515D01*
X140900590Y-88467037D01*
X140837007Y-88484075D01*
X140722993Y-88549901D01*
X140629901Y-88642993D01*
X140564075Y-88757007D01*
X140547037Y-88820589D01*
X139972515Y-88246067D01*
X139972515Y-88246068D01*
X139925947Y-88312574D01*
X139925946Y-88312576D01*
X139832032Y-88513973D01*
X139832029Y-88513982D01*
X139774518Y-88728618D01*
X139774516Y-88728628D01*
X139755149Y-88949999D01*
X139392444Y-88949999D01*
X139372723Y-88762371D01*
X139314424Y-88582943D01*
X139220093Y-88419557D01*
X139093855Y-88279354D01*
X138981089Y-88197426D01*
X138941222Y-88168461D01*
X138941220Y-88168460D01*
X138941221Y-88168460D01*
X138768875Y-88091726D01*
X138768870Y-88091724D01*
X138623555Y-88060837D01*
X138584331Y-88052500D01*
X138395669Y-88052500D01*
X138363320Y-88059375D01*
X138211129Y-88091724D01*
X138211124Y-88091726D01*
X138038779Y-88168460D01*
X137886144Y-88279354D01*
X137759906Y-88419557D01*
X137665575Y-88582944D01*
X137607277Y-88762369D01*
X137587556Y-88950000D01*
X136852444Y-88950000D01*
X136832723Y-88762371D01*
X136774424Y-88582943D01*
X136680093Y-88419557D01*
X136553855Y-88279354D01*
X136441089Y-88197426D01*
X136401222Y-88168461D01*
X136401220Y-88168460D01*
X136401221Y-88168460D01*
X136228875Y-88091726D01*
X136228870Y-88091724D01*
X136083555Y-88060837D01*
X136044331Y-88052500D01*
X135855669Y-88052500D01*
X135823320Y-88059375D01*
X135671129Y-88091724D01*
X135671124Y-88091726D01*
X135498779Y-88168460D01*
X135346144Y-88279354D01*
X135219906Y-88419557D01*
X135125575Y-88582944D01*
X135067277Y-88762369D01*
X135047556Y-88950000D01*
X133529196Y-88950000D01*
X133536882Y-88763741D01*
X133538278Y-88749629D01*
X133579994Y-88483921D01*
X133582989Y-88470071D01*
X133654791Y-88210849D01*
X133659351Y-88197426D01*
X133671078Y-88168461D01*
X133760292Y-87948107D01*
X133766347Y-87935309D01*
X133895120Y-87699134D01*
X133902600Y-87687109D01*
X134057503Y-87467200D01*
X134066309Y-87456106D01*
X134245326Y-87255324D01*
X134255324Y-87245326D01*
X134456106Y-87066309D01*
X134467200Y-87057503D01*
X134687109Y-86902600D01*
X134699134Y-86895120D01*
X134935309Y-86766347D01*
X134948107Y-86760292D01*
X135197430Y-86659349D01*
X135210849Y-86654791D01*
X135470071Y-86582989D01*
X135483921Y-86579994D01*
X135749635Y-86538277D01*
X135763741Y-86536882D01*
X136036113Y-86525642D01*
X136043135Y-86525554D01*
X136047876Y-86525630D01*
X136047877Y-86525628D01*
X136064322Y-86525891D01*
X136066931Y-86525500D01*
X153264789Y-86525500D01*
X153331828Y-86545185D01*
G37*
%TD.AperFunction*%
%TD*%
M02*
