%TF.GenerationSoftware,KiCad,Pcbnew,8.0.6-8.0.6-0~ubuntu24.04.1*%
%TF.CreationDate,2024-10-23T10:13:36-04:00*%
%TF.ProjectId,ta-expt-v2,74612d65-7870-4742-9d76-322e6b696361,rev?*%
%TF.SameCoordinates,Original*%
%TF.FileFunction,Soldermask,Bot*%
%TF.FilePolarity,Negative*%
%FSLAX46Y46*%
G04 Gerber Fmt 4.6, Leading zero omitted, Abs format (unit mm)*
G04 Created by KiCad (PCBNEW 8.0.6-8.0.6-0~ubuntu24.04.1) date 2024-10-23 10:13:36*
%MOMM*%
%LPD*%
G01*
G04 APERTURE LIST*
%ADD10C,0.800000*%
%ADD11C,0.650000*%
%ADD12O,2.100000X1.000000*%
%ADD13O,1.600000X1.000000*%
%ADD14C,1.540000*%
%ADD15C,2.540000*%
G04 APERTURE END LIST*
D10*
%TO.C,J5*%
X171250000Y-102150000D03*
X171250000Y-113850000D03*
%TD*%
D11*
%TO.C,J3*%
X139890000Y-105110000D03*
X139890000Y-110890000D03*
D12*
X140390000Y-103680000D03*
D13*
X136210000Y-103680000D03*
D12*
X140390000Y-112320000D03*
D13*
X136210000Y-112320000D03*
%TD*%
D14*
%TO.C,J7*%
X135950000Y-116890000D03*
X135950000Y-119430000D03*
X135950000Y-121970000D03*
X135950000Y-124510000D03*
%TD*%
%TO.C,J8*%
X135950000Y-127050000D03*
X138490000Y-127050000D03*
X141030000Y-127050000D03*
X143570000Y-127050000D03*
X146110000Y-127050000D03*
X148650000Y-127050000D03*
X151190000Y-127050000D03*
X153730000Y-127050000D03*
X156270000Y-127050000D03*
X158810000Y-127050000D03*
X161350000Y-127050000D03*
X163890000Y-127050000D03*
X166430000Y-127050000D03*
X168970000Y-127050000D03*
X171510000Y-127050000D03*
X174050000Y-127050000D03*
%TD*%
%TO.C,J1*%
X174050000Y-124510000D03*
X174050000Y-121970000D03*
X174050000Y-119430000D03*
X174050000Y-116890000D03*
%TD*%
%TO.C,J2*%
X135950000Y-99110000D03*
X135950000Y-96570000D03*
X135950000Y-94030000D03*
X135950000Y-91490000D03*
%TD*%
D15*
%TO.C,J6*%
X139000000Y-92000000D03*
X171000000Y-92000000D03*
X139000000Y-124000000D03*
X171000000Y-124000000D03*
%TD*%
D14*
%TO.C,J4*%
X174050000Y-99110000D03*
X174050000Y-96570000D03*
X174050000Y-94030000D03*
X174050000Y-91490000D03*
%TD*%
%TO.C,J9*%
X135950000Y-88950000D03*
X138490000Y-88950000D03*
X141030000Y-88950000D03*
X143570000Y-88950000D03*
X146110000Y-88950000D03*
X148650000Y-88950000D03*
X151190000Y-88950000D03*
X153730000Y-88950000D03*
X156270000Y-88950000D03*
X158810000Y-88950000D03*
X161350000Y-88950000D03*
X163890000Y-88950000D03*
X166430000Y-88950000D03*
X168970000Y-88950000D03*
X171510000Y-88950000D03*
X174050000Y-88950000D03*
%TD*%
M02*
