%TF.GenerationSoftware,KiCad,Pcbnew,8.0.6-8.0.6-0~ubuntu24.04.1*%
%TF.CreationDate,2024-10-22T17:04:15-04:00*%
%TF.ProjectId,ta-expt-v2,74612d65-7870-4742-9d76-322e6b696361,rev?*%
%TF.SameCoordinates,Original*%
%TF.FileFunction,Copper,L4,Bot*%
%TF.FilePolarity,Positive*%
%FSLAX46Y46*%
G04 Gerber Fmt 4.6, Leading zero omitted, Abs format (unit mm)*
G04 Created by KiCad (PCBNEW 8.0.6-8.0.6-0~ubuntu24.04.1) date 2024-10-22 17:04:15*
%MOMM*%
%LPD*%
G01*
G04 APERTURE LIST*
%TA.AperFunction,ComponentPad*%
%ADD10O,2.100000X1.000000*%
%TD*%
%TA.AperFunction,ComponentPad*%
%ADD11O,1.600000X1.000000*%
%TD*%
%TA.AperFunction,ComponentPad*%
%ADD12C,1.540000*%
%TD*%
%TA.AperFunction,ComponentPad*%
%ADD13C,2.540000*%
%TD*%
%TA.AperFunction,ViaPad*%
%ADD14C,0.457200*%
%TD*%
%TA.AperFunction,Conductor*%
%ADD15C,0.127000*%
%TD*%
%TA.AperFunction,Conductor*%
%ADD16C,0.203200*%
%TD*%
G04 APERTURE END LIST*
D10*
%TO.P,J3,S1,SHIELD*%
%TO.N,unconnected-(J3-SHIELD-PadS1)*%
X140390000Y-103680000D03*
D11*
X136210000Y-103680000D03*
D10*
X140390000Y-112320000D03*
D11*
X136210000Y-112320000D03*
%TD*%
D12*
%TO.P,J7,1,Pin_1*%
%TO.N,VDD*%
X135950000Y-116890000D03*
%TO.P,J7,2,Pin_2*%
%TO.N,GND*%
X135950000Y-119430000D03*
%TO.P,J7,3,Pin_3*%
%TO.N,/SWDIO*%
X135950000Y-121970000D03*
%TO.P,J7,4,Pin_4*%
%TO.N,/SWCLK*%
X135950000Y-124510000D03*
%TD*%
%TO.P,J8,1,Pin_1*%
%TO.N,unconnected-(J8-Pin_1-Pad1)*%
X135950000Y-127050000D03*
%TO.P,J8,2,Pin_2*%
%TO.N,unconnected-(J8-Pin_2-Pad2)*%
X138490000Y-127050000D03*
%TO.P,J8,3,Pin_3*%
%TO.N,unconnected-(J8-Pin_3-Pad3)*%
X141030000Y-127050000D03*
%TO.P,J8,4,Pin_4*%
%TO.N,unconnected-(J8-Pin_4-Pad4)*%
X143570000Y-127050000D03*
%TO.P,J8,5,Pin_5*%
%TO.N,unconnected-(J8-Pin_5-Pad5)*%
X146110000Y-127050000D03*
%TO.P,J8,6,Pin_6*%
%TO.N,unconnected-(J8-Pin_6-Pad6)*%
X148650000Y-127050000D03*
%TO.P,J8,7,Pin_7*%
%TO.N,unconnected-(J8-Pin_7-Pad7)*%
X151190000Y-127050000D03*
%TO.P,J8,8,Pin_8*%
%TO.N,/BOOT0*%
X153730000Y-127050000D03*
%TO.P,J8,9,Pin_9*%
%TO.N,/LPUART_CTS*%
X156270000Y-127050000D03*
%TO.P,J8,10,Pin_10*%
%TO.N,/LPUART_TX*%
X158810000Y-127050000D03*
%TO.P,J8,11,Pin_11*%
%TO.N,/LPUART_RX*%
X161350000Y-127050000D03*
%TO.P,J8,12,Pin_12*%
%TO.N,/LPUART_RTS*%
X163890000Y-127050000D03*
%TO.P,J8,13,Pin_13*%
%TO.N,unconnected-(J8-Pin_13-Pad13)*%
X166430000Y-127050000D03*
%TO.P,J8,14,Pin_14*%
%TO.N,unconnected-(J8-Pin_14-Pad14)*%
X168970000Y-127050000D03*
%TO.P,J8,15,Pin_15*%
%TO.N,unconnected-(J8-Pin_15-Pad15)*%
X171510000Y-127050000D03*
%TO.P,J8,16,Pin_16*%
%TO.N,unconnected-(J8-Pin_16-Pad16)*%
X174050000Y-127050000D03*
%TD*%
%TO.P,J1,2,Pin_2*%
%TO.N,unconnected-(J1-Pin_2-Pad2)*%
X174050000Y-124510000D03*
%TO.P,J1,3,Pin_3*%
%TO.N,GND*%
X174050000Y-121970000D03*
%TO.P,J1,4,Pin_4*%
%TO.N,unconnected-(J1-Pin_4-Pad4)*%
X174050000Y-119430000D03*
%TO.P,J1,5,Pin_5*%
%TO.N,unconnected-(J1-Pin_5-Pad5)*%
X174050000Y-116890000D03*
%TD*%
%TO.P,J2,1,Pin_1*%
%TO.N,unconnected-(J2-Pin_1-Pad1)*%
X135950000Y-99110000D03*
%TO.P,J2,2,Pin_2*%
%TO.N,GND*%
X135950000Y-96570000D03*
%TO.P,J2,3,Pin_3*%
%TO.N,unconnected-(J2-Pin_3-Pad3)*%
X135950000Y-94030000D03*
%TO.P,J2,4,Pin_4*%
%TO.N,unconnected-(J2-Pin_4-Pad4)*%
X135950000Y-91490000D03*
%TD*%
D13*
%TO.P,J6,1,Pin_1*%
%TO.N,GND*%
X139000000Y-92000000D03*
%TO.P,J6,2,Pin_2*%
X171000000Y-92000000D03*
%TO.P,J6,3,Pin_3*%
X139000000Y-124000000D03*
%TO.P,J6,4,Pin_4*%
X171000000Y-124000000D03*
%TD*%
D12*
%TO.P,J4,2,Pin_2*%
%TO.N,unconnected-(J4-Pin_2-Pad2)*%
X174050000Y-99110000D03*
%TO.P,J4,3,Pin_3*%
%TO.N,unconnected-(J4-Pin_3-Pad3)*%
X174050000Y-96570000D03*
%TO.P,J4,4,Pin_4*%
%TO.N,unconnected-(J4-Pin_4-Pad4)*%
X174050000Y-94030000D03*
%TO.P,J4,5,Pin_5*%
%TO.N,unconnected-(J4-Pin_5-Pad5)*%
X174050000Y-91490000D03*
%TD*%
%TO.P,J9,1,Pin_1*%
%TO.N,unconnected-(J9-Pin_1-Pad1)*%
X135950000Y-88950000D03*
%TO.P,J9,2,Pin_2*%
%TO.N,unconnected-(J9-Pin_2-Pad2)*%
X138490000Y-88950000D03*
%TO.P,J9,3,Pin_3*%
%TO.N,GND*%
X141030000Y-88950000D03*
%TO.P,J9,4,Pin_4*%
%TO.N,unconnected-(J9-Pin_4-Pad4)*%
X143570000Y-88950000D03*
%TO.P,J9,5,Pin_5*%
%TO.N,unconnected-(J9-Pin_5-Pad5)*%
X146110000Y-88950000D03*
%TO.P,J9,6,Pin_6*%
%TO.N,unconnected-(J9-Pin_6-Pad6)*%
X148650000Y-88950000D03*
%TO.P,J9,7,Pin_7*%
%TO.N,/NRST*%
X151190000Y-88950000D03*
%TO.P,J9,8,Pin_8*%
%TO.N,/USART1_CK*%
X153730000Y-88950000D03*
%TO.P,J9,9,Pin_9*%
%TO.N,/USART1_CTS*%
X156270000Y-88950000D03*
%TO.P,J9,10,Pin_10*%
%TO.N,/USART1_TX*%
X158810000Y-88950000D03*
%TO.P,J9,11,Pin_11*%
%TO.N,/USART1_RX*%
X161350000Y-88950000D03*
%TO.P,J9,12,Pin_12*%
%TO.N,/USART1_RTS*%
X163890000Y-88950000D03*
%TO.P,J9,13,Pin_13*%
%TO.N,unconnected-(J9-Pin_13-Pad13)*%
X166430000Y-88950000D03*
%TO.P,J9,14,Pin_14*%
%TO.N,unconnected-(J9-Pin_14-Pad14)*%
X168970000Y-88950000D03*
%TO.P,J9,15,Pin_15*%
%TO.N,unconnected-(J9-Pin_15-Pad15)*%
X171510000Y-88950000D03*
%TO.P,J9,16,Pin_16*%
%TO.N,unconnected-(J9-Pin_16-Pad16)*%
X174050000Y-88950000D03*
%TD*%
D14*
%TO.N,GND*%
X143200000Y-102400000D03*
X169800000Y-98950000D03*
X146100000Y-118700000D03*
X164400000Y-113200000D03*
X175700000Y-101700000D03*
X166450000Y-103400000D03*
X165950000Y-98950000D03*
X142400000Y-111350000D03*
X166400000Y-121850000D03*
X167700000Y-98950000D03*
X140350000Y-100100000D03*
X164300000Y-98900000D03*
X147500000Y-99100000D03*
X166850000Y-113200000D03*
X143350000Y-97000000D03*
X158500000Y-114600000D03*
X161900000Y-104500000D03*
X159500000Y-109500000D03*
X148000000Y-96700000D03*
X161900000Y-115300000D03*
X158500000Y-101350000D03*
X166400000Y-108400000D03*
X146400000Y-113500000D03*
X164250000Y-106500000D03*
X160700000Y-96300000D03*
X151750000Y-119250000D03*
X147500000Y-123900000D03*
X144950000Y-92650000D03*
X145600000Y-123900000D03*
X169800000Y-94650000D03*
X143900000Y-113900000D03*
X164100000Y-108200000D03*
X159100000Y-97400000D03*
X148800000Y-91200000D03*
X141350000Y-102500000D03*
X164250000Y-104700000D03*
%TO.N,/VDD_FILT*%
X160500000Y-115300000D03*
X158500000Y-99150000D03*
X156400000Y-95200000D03*
X169600000Y-101650000D03*
X166900000Y-92500000D03*
X145950000Y-98100000D03*
X141450000Y-116900000D03*
X168400000Y-94600000D03*
X147050000Y-113000000D03*
X159000000Y-113750000D03*
X162150000Y-109750000D03*
X168650000Y-98850000D03*
X145600000Y-115600000D03*
%TO.N,Net-(IC3-PC15-OSC32_OUT)*%
X163400000Y-113200000D03*
X164600000Y-111650000D03*
%TO.N,/NRST*%
X158350000Y-107300000D03*
X152900000Y-98900000D03*
%TO.N,/LDO_OUT*%
X161850000Y-111700000D03*
X151050000Y-98950000D03*
X159150000Y-110400000D03*
X157075000Y-107725000D03*
%TO.N,/USART1_RX*%
X147350000Y-111000000D03*
%TO.N,/I2C3_SDA*%
X173350000Y-107400000D03*
X154000000Y-116850000D03*
%TO.N,/DCMI_VSYNC*%
X155500000Y-114650000D03*
X172350000Y-105500000D03*
%TO.N,/QUADSPI_BK2_IO2*%
X162330500Y-99569500D03*
X159800000Y-95050000D03*
%TO.N,/DCMI_D5*%
X155000000Y-116800000D03*
X174200000Y-114000000D03*
%TO.N,/LPUART_TX*%
X148000000Y-101350000D03*
%TO.N,/DCMI_D8*%
X158500000Y-111150000D03*
X173450000Y-108000000D03*
%TO.N,/LPUART_CTS*%
X146750000Y-102500000D03*
%TO.N,/USART1_TX*%
X146800000Y-110500000D03*
X158800000Y-87000000D03*
%TO.N,/DCMI_D7*%
X157750000Y-114400000D03*
X172300000Y-109800000D03*
%TO.N,/I2C3_SCL*%
X161750000Y-107000000D03*
X169000000Y-104250000D03*
%TO.N,/LPUART_RX*%
X148500000Y-101800000D03*
%TO.N,/Control*%
X172850000Y-103500000D03*
X167900000Y-110100000D03*
X162050000Y-112500000D03*
X156400000Y-93050000D03*
%TO.N,/SWCLK*%
X144800000Y-116150000D03*
X146400000Y-115600000D03*
%TO.N,/DCMI_D9*%
X154550000Y-114150000D03*
X168950000Y-108000000D03*
%TO.N,/USART1_CK*%
X146350000Y-110000000D03*
X153700000Y-86900000D03*
%TO.N,/DCMI_D4*%
X170950000Y-114950000D03*
X159100000Y-111650000D03*
%TO.N,/LPUART_RTS*%
X145250000Y-101300000D03*
%TO.N,/DCMI_PIXCLK*%
X168900000Y-106750000D03*
X156500000Y-101350000D03*
%TO.N,/DCMI_HSYNC*%
X157500000Y-101300000D03*
X173400000Y-105500000D03*
%TO.N,/DCMI_D2*%
X157400000Y-109450000D03*
X173250000Y-111750000D03*
%TO.N,/QUADSPI_BK2_IO1*%
X163950000Y-97850000D03*
X159800000Y-93750000D03*
%TO.N,/QUADSPI_BK1_NCS*%
X162250000Y-100800000D03*
X166800000Y-97350000D03*
%TO.N,/DCMI_D6*%
X156500000Y-114650000D03*
X173150000Y-109250000D03*
%TO.N,/DCMI_D3*%
X157900000Y-110500000D03*
X172200000Y-111750000D03*
%TD*%
D15*
%TO.N,Net-(IC3-PC15-OSC32_OUT)*%
X163400000Y-113200000D02*
X164600000Y-112000000D01*
X164600000Y-112000000D02*
X164600000Y-111650000D01*
%TO.N,/NRST*%
X152900000Y-98900000D02*
X152900000Y-101850000D01*
X152900000Y-101850000D02*
X158350000Y-107300000D01*
%TO.N,/LDO_OUT*%
X161650000Y-111500000D02*
X161800000Y-111650000D01*
X160250000Y-111500000D02*
X161650000Y-111500000D01*
X161800000Y-111650000D02*
X161850000Y-111700000D01*
X159150000Y-110400000D02*
X160250000Y-111500000D01*
X151050000Y-101700000D02*
X157075000Y-107725000D01*
X157075000Y-107725000D02*
X157100000Y-107750000D01*
X151050000Y-98950000D02*
X151050000Y-101700000D01*
%TO.N,/USART1_RX*%
X160009210Y-87609210D02*
X161350000Y-88950000D01*
X147350000Y-111000000D02*
X146367828Y-111000000D01*
X150118500Y-107804462D02*
X150118500Y-87749920D01*
X150259210Y-87609210D02*
X160009210Y-87609210D01*
X146982462Y-110940500D02*
X150118500Y-107804462D01*
X146308328Y-110940500D02*
X146982462Y-110940500D01*
X150118500Y-87749920D02*
X150259210Y-87609210D01*
X146367828Y-111000000D02*
X146308328Y-110940500D01*
%TO.N,/I2C3_SDA*%
X154000000Y-111867828D02*
X155383914Y-110483914D01*
X155383914Y-110483914D02*
X158108328Y-107759500D01*
X158108328Y-107759500D02*
X168040500Y-107759500D01*
X154000000Y-116850000D02*
X154000000Y-111867828D01*
X168040500Y-107759500D02*
X168400000Y-107400000D01*
X168400000Y-107400000D02*
X173350000Y-107400000D01*
%TO.N,/DCMI_VSYNC*%
X155905210Y-117346000D02*
X171394790Y-117346000D01*
X171394790Y-117346000D02*
X173446000Y-115294790D01*
X173446000Y-115294790D02*
X173446000Y-114550000D01*
X173944500Y-112414710D02*
X173944500Y-107094500D01*
X155500000Y-114650000D02*
X155500000Y-116940790D01*
X155500000Y-116940790D02*
X155905210Y-117346000D01*
X173446000Y-114550000D02*
X173446000Y-112913210D01*
X173944500Y-107094500D02*
X172350000Y-105500000D01*
X173446000Y-112913210D02*
X173944500Y-112414710D01*
%TO.N,/QUADSPI_BK2_IO2*%
X162330500Y-99569500D02*
X162330500Y-95380500D01*
X162000000Y-95050000D02*
X159800000Y-95050000D01*
X162330500Y-95380500D02*
X162000000Y-95050000D01*
%TO.N,/DCMI_D5*%
X171500000Y-117600000D02*
X173700000Y-115400000D01*
X155800000Y-117600000D02*
X171500000Y-117600000D01*
X155000000Y-116800000D02*
X155800000Y-117600000D01*
X173700000Y-114500000D02*
X174200000Y-114000000D01*
X173700000Y-115400000D02*
X173700000Y-114500000D01*
%TO.N,/LPUART_TX*%
X146250000Y-103104000D02*
X146250000Y-103640790D01*
X134735500Y-112158776D02*
X134735500Y-127553063D01*
X139920395Y-109970395D02*
X136923881Y-109970395D01*
X145959500Y-102813500D02*
X146250000Y-103104000D01*
X157595500Y-128264500D02*
X158810000Y-127050000D01*
X146427038Y-101350000D02*
X145959500Y-101817538D01*
X134735500Y-127553063D02*
X135446937Y-128264500D01*
X135446937Y-128264500D02*
X157595500Y-128264500D01*
X146250000Y-103640790D02*
X139920395Y-109970395D01*
X148000000Y-101350000D02*
X146427038Y-101350000D01*
X136923881Y-109970395D02*
X134735500Y-112158776D01*
X145959500Y-101817538D02*
X145959500Y-102813500D01*
%TO.N,/DCMI_D8*%
X172147975Y-113238235D02*
X171759500Y-112849760D01*
X172147975Y-114796765D02*
X172147975Y-113238235D01*
X159529605Y-116020395D02*
X159559210Y-116050000D01*
X159529605Y-113656643D02*
X159529605Y-116020395D01*
X159559210Y-116050000D02*
X170894740Y-116050000D01*
X171759500Y-112849760D02*
X171759500Y-109690500D01*
X170894740Y-116050000D02*
X172147975Y-114796765D01*
X158500000Y-111150000D02*
X158500000Y-112627038D01*
X158500000Y-112627038D02*
X159529605Y-113656643D01*
X171759500Y-109690500D02*
X173450000Y-108000000D01*
%TO.N,/LPUART_CTS*%
X139998500Y-110251500D02*
X137001986Y-110251500D01*
X134989500Y-117789500D02*
X135000000Y-117800000D01*
X134989500Y-117789500D02*
X134989500Y-127447853D01*
X155320000Y-128000000D02*
X156270000Y-127050000D01*
X145250000Y-105000000D02*
X139998500Y-110251500D01*
X135552147Y-128010500D02*
X154989500Y-128010500D01*
X154989500Y-128010500D02*
X155000000Y-128000000D01*
X134989500Y-127447853D02*
X135552147Y-128010500D01*
X134989500Y-112263986D02*
X134989500Y-117789500D01*
X146750000Y-102500000D02*
X146750000Y-103500000D01*
X137001986Y-110251500D02*
X134989500Y-112263986D01*
X146300000Y-103950000D02*
X145250000Y-105000000D01*
X155000000Y-128000000D02*
X155320000Y-128000000D01*
X146750000Y-103500000D02*
X146300000Y-103950000D01*
%TO.N,/USART1_TX*%
X150190500Y-87340500D02*
X150179605Y-87329605D01*
X157540500Y-87340500D02*
X150190500Y-87340500D01*
X149864500Y-107108462D02*
X146472962Y-110500000D01*
X149864500Y-87644710D02*
X149864500Y-107108462D01*
X158459500Y-87340500D02*
X158800000Y-87000000D01*
X146472962Y-110500000D02*
X146800000Y-110500000D01*
X150179605Y-87329605D02*
X149864500Y-87644710D01*
X157540500Y-87340500D02*
X158459500Y-87340500D01*
%TO.N,/DCMI_D7*%
X157750000Y-114400000D02*
X157750000Y-116350000D01*
X172684000Y-114750000D02*
X172684000Y-110184000D01*
X172684000Y-114979160D02*
X172684000Y-114750000D01*
X157750000Y-116350000D02*
X157984000Y-116584000D01*
X157984000Y-116584000D02*
X171079160Y-116584000D01*
X172300000Y-109800000D02*
X172350000Y-109850000D01*
X171079160Y-116584000D02*
X172684000Y-114979160D01*
X172684000Y-110184000D02*
X172300000Y-109800000D01*
%TO.N,/I2C3_SCL*%
X161750000Y-107000000D02*
X166250000Y-107000000D01*
X166250000Y-107000000D02*
X169000000Y-104250000D01*
%TO.N,/LPUART_RX*%
X145996000Y-103535580D02*
X139815185Y-109716395D01*
X146517828Y-100900000D02*
X145705500Y-101712328D01*
X139815185Y-109716395D02*
X136818671Y-109716395D01*
X145996000Y-103209210D02*
X145996000Y-103535580D01*
X148500000Y-101227038D02*
X148172962Y-100900000D01*
X159881500Y-128518500D02*
X161350000Y-127050000D01*
X135341727Y-128518500D02*
X159881500Y-128518500D01*
X134481500Y-112053566D02*
X134481500Y-127658273D01*
X148500000Y-101800000D02*
X148500000Y-101227038D01*
X145705500Y-102918710D02*
X145996000Y-103209210D01*
X134481500Y-127658273D02*
X135341727Y-128518500D01*
X136818671Y-109716395D02*
X134481500Y-112053566D01*
X145705500Y-101712328D02*
X145705500Y-102918710D01*
X148172962Y-100900000D02*
X146517828Y-100900000D01*
%TO.N,/Control*%
X156400000Y-93050000D02*
X167500000Y-93050000D01*
X172850000Y-98400000D02*
X172850000Y-103500000D01*
X167500000Y-93050000D02*
X172850000Y-98400000D01*
X167900000Y-110100000D02*
X164450000Y-110100000D01*
X164450000Y-110100000D02*
X162050000Y-112500000D01*
%TO.N,/SWCLK*%
X145850000Y-116150000D02*
X146400000Y-115600000D01*
X144800000Y-116150000D02*
X145850000Y-116150000D01*
%TO.N,/DCMI_D9*%
X168950000Y-108000000D02*
X168109500Y-108840500D01*
X168109500Y-108840500D02*
X157386538Y-108840500D01*
X157386538Y-108840500D02*
X154550000Y-111677038D01*
X154550000Y-111677038D02*
X154550000Y-114150000D01*
%TO.N,/USART1_CK*%
X149610500Y-87539500D02*
X150100000Y-87050000D01*
X149610500Y-106739500D02*
X149610500Y-88460500D01*
X150100000Y-87050000D02*
X150250000Y-86900000D01*
X149610500Y-88460500D02*
X149610500Y-87539500D01*
X146350000Y-110000000D02*
X149610500Y-106739500D01*
X150250000Y-86900000D02*
X153700000Y-86900000D01*
%TO.N,/DCMI_D4*%
X159946000Y-115796000D02*
X167704000Y-115796000D01*
X159100000Y-111650000D02*
X159800000Y-112350000D01*
X167704000Y-115796000D02*
X170104000Y-115796000D01*
X159800000Y-115650000D02*
X159946000Y-115796000D01*
X170104000Y-115796000D02*
X170950000Y-114950000D01*
X159800000Y-112350000D02*
X159800000Y-115650000D01*
%TO.N,/LPUART_RTS*%
X145742000Y-103314420D02*
X145250000Y-102822420D01*
X145250000Y-102822420D02*
X145250000Y-101300000D01*
X135236517Y-128772500D02*
X162167500Y-128772500D01*
X136714671Y-109461185D02*
X139711185Y-109461185D01*
X162167500Y-128772500D02*
X163890000Y-127050000D01*
X134227500Y-127763483D02*
X134227500Y-111948356D01*
X135132008Y-128667992D02*
X135236517Y-128772500D01*
X135132008Y-128667992D02*
X134227500Y-127763483D01*
X134227500Y-111948356D02*
X136714671Y-109461185D01*
X139711185Y-109461185D02*
X145742000Y-103430370D01*
X145742000Y-103430370D02*
X145742000Y-103314420D01*
X135132009Y-128667992D02*
X135132008Y-128667992D01*
%TO.N,/DCMI_PIXCLK*%
X168332462Y-102959500D02*
X169440500Y-104067538D01*
X169440500Y-104067538D02*
X169440500Y-106209500D01*
X169440500Y-106209500D02*
X168900000Y-106750000D01*
X156500000Y-101350000D02*
X158109500Y-102959500D01*
X158109500Y-102959500D02*
X168332462Y-102959500D01*
%TO.N,/DCMI_HSYNC*%
X157500000Y-101300000D02*
X158900000Y-102700000D01*
X166750000Y-102700000D02*
X170600000Y-102700000D01*
X158900000Y-102700000D02*
X166750000Y-102700000D01*
X170600000Y-102700000D02*
X173400000Y-105500000D01*
%TO.N,/DCMI_D2*%
X157055210Y-116838000D02*
X171184370Y-116838000D01*
X172938000Y-112062000D02*
X173250000Y-111750000D01*
X157000000Y-116782790D02*
X157055210Y-116838000D01*
X172938000Y-114700000D02*
X172938000Y-112062000D01*
X172938000Y-115084370D02*
X172938000Y-114700000D01*
X157000000Y-109850000D02*
X157000000Y-116782790D01*
X171184370Y-116838000D02*
X172938000Y-115084370D01*
X157400000Y-109450000D02*
X157000000Y-109850000D01*
%TO.N,/QUADSPI_BK2_IO1*%
X163200000Y-93750000D02*
X159800000Y-93750000D01*
X163950000Y-97850000D02*
X163950000Y-94500000D01*
X163950000Y-94500000D02*
X163200000Y-93750000D01*
D16*
%TO.N,/QUADSPI_BK1_NCS*%
X166800000Y-97423157D02*
X166800000Y-97350000D01*
X166800000Y-97350000D02*
X166800000Y-97300000D01*
X163350000Y-100800000D02*
X162250000Y-100800000D01*
X166800000Y-97350000D02*
X163350000Y-100800000D01*
D15*
%TO.N,/DCMI_D6*%
X156500000Y-116750000D02*
X156842000Y-117092000D01*
X173690500Y-109790500D02*
X173150000Y-109250000D01*
X173192000Y-112808000D02*
X173690500Y-112309500D01*
X156500000Y-114650000D02*
X156500000Y-116750000D01*
X156950000Y-117092000D02*
X171289580Y-117092000D01*
X156842000Y-117092000D02*
X156950000Y-117092000D01*
X171289580Y-117092000D02*
X173192000Y-115189580D01*
X173192000Y-114650000D02*
X173192000Y-112808000D01*
X173690500Y-112309500D02*
X173690500Y-109790500D01*
X173192000Y-115189580D02*
X173192000Y-114650000D01*
%TO.N,/DCMI_D3*%
X159200000Y-114677038D02*
X159200000Y-116050000D01*
X172430000Y-111980000D02*
X172200000Y-111750000D01*
X159200000Y-116050000D02*
X159480000Y-116330000D01*
X170973950Y-116330000D02*
X172401975Y-114901975D01*
X159480000Y-116330000D02*
X170973950Y-116330000D01*
X172430000Y-114873950D02*
X172430000Y-114750000D01*
X157900000Y-110500000D02*
X157900000Y-113377038D01*
X172430000Y-114750000D02*
X172430000Y-111980000D01*
X157900000Y-113377038D02*
X159200000Y-114677038D01*
X172401975Y-114901975D02*
X172430000Y-114873950D01*
%TD*%
M02*
