M48
; DRILL file {KiCad 8.0.6-8.0.6-0~ubuntu24.04.1} date 2024-10-22T17:09:35-0400
; FORMAT={-:-/ absolute / inch / decimal}
; #@! TF.CreationDate,2024-10-22T17:09:35-04:00
; #@! TF.GenerationSoftware,Kicad,Pcbnew,8.0.6-8.0.6-0~ubuntu24.04.1
; #@! TF.FileFunction,Plated,1,4,PTH
FMAT,2
INCH
; #@! TA.AperFunction,Plated,PTH,ViaDrill
T1C0.0100
; #@! TA.AperFunction,Plated,PTH,ComponentDrill
T2C0.0236
; #@! TA.AperFunction,Plated,PTH,ComponentDrill
T3C0.0394
; #@! TA.AperFunction,Plated,PTH,ComponentDrill
T4C0.0858
%
G90
G05
T1
X5.5256Y-3.9409
X5.565Y-4.0354
X5.5689Y-4.6024
X5.6063Y-4.3839
X5.6378Y-4.0315
X5.6437Y-3.8189
X5.6654Y-4.4843
X5.7008Y-4.5728
X5.7067Y-3.6476
X5.7185Y-3.9882
X5.7323Y-4.5512
X5.7323Y-4.878
X5.7461Y-3.8622
X5.752Y-4.6732
X5.7618Y-4.3307
X5.7638Y-4.4685
X5.7638Y-4.5512
X5.7776Y-4.0354
X5.7795Y-4.3504
X5.7894Y-4.4488
X5.8012Y-4.3701
X5.8071Y-3.9016
X5.8071Y-4.878
X5.8268Y-3.8071
X5.8268Y-3.9902
X5.8465Y-4.0079
X5.8583Y-3.5906
X5.9469Y-3.8957
X5.9744Y-4.6949
X6.0197Y-3.8937
X6.0512Y-3.4213
X6.063Y-4.6004
X6.0846Y-4.4941
X6.1024Y-4.5984
X6.122Y-4.5138
X6.122Y-4.7441
X6.1575Y-3.6634
X6.1575Y-3.748
X6.1614Y-3.9902
X6.1614Y-4.5138
X6.1841Y-4.2411
X6.1969Y-4.3091
X6.2008Y-3.9882
X6.2106Y-4.5039
X6.2165Y-4.3504
X6.2343Y-4.2244
X6.2402Y-3.9035
X6.2402Y-3.9902
X6.2402Y-4.376
X6.2402Y-4.5118
X6.252Y-3.4252
X6.2598Y-4.4783
X6.2638Y-3.8346
X6.2638Y-4.3957
X6.2657Y-4.3465
X6.2795Y-4.311
X6.2913Y-3.6909
X6.2913Y-3.7421
X6.3189Y-4.5394
X6.3268Y-3.7913
X6.3681Y-4.2126
X6.372Y-4.3976
X6.374Y-4.1142
X6.374Y-4.5394
X6.3799Y-4.4291
X6.3839Y-4.3209
X6.3878Y-3.9685
X6.391Y-3.9201
X6.4331Y-4.4567
X6.4547Y-3.8524
X6.4606Y-4.2598
X6.4665Y-4.122
X6.4665Y-4.1929
X6.4685Y-3.8937
X6.4724Y-4.4567
X6.4803Y-4.3957
X6.5335Y-3.8957
X6.5512Y-4.2677
X6.5512Y-4.7972
X6.5531Y-4.0709
X6.5669Y-3.8327
X6.5689Y-4.4567
X6.5709Y-3.6417
X6.6024Y-3.8957
X6.6102Y-4.3346
X6.6299Y-3.7244
X6.6398Y-3.8917
X6.6496Y-4.2028
X6.6516Y-4.252
X6.6535Y-4.1043
X6.6772Y-4.002
X6.685Y-3.7264
X6.685Y-3.8957
X6.7303Y-4.5256
X6.7795Y-4.3996
X6.7835Y-4.3228
X6.7854Y-4.1535
X6.8051Y-4.0748
X6.8169Y-4.3012
X6.8209Y-4.3996
X6.8248Y-4.2283
X6.8268Y-4.1535
X6.8287Y-4.252
X6.8583Y-4.4882
X6.9173Y-4.0039
T3
X5.3524Y-3.502
X5.3524Y-3.602
X5.3524Y-3.702
X5.3524Y-3.802
X5.3524Y-3.902
X5.3524Y-4.602
X5.3524Y-4.702
X5.3524Y-4.802
X5.3524Y-4.902
X5.3524Y-5.002
X5.4524Y-3.502
X5.4524Y-5.002
X5.5524Y-3.502
X5.5524Y-5.002
X5.6524Y-3.502
X5.6524Y-5.002
X5.7524Y-3.502
X5.7524Y-5.002
X5.8524Y-3.502
X5.8524Y-5.002
X5.9524Y-3.502
X5.9524Y-5.002
X6.0524Y-3.502
X6.0524Y-5.002
X6.1524Y-3.502
X6.1524Y-5.002
X6.2524Y-3.502
X6.2524Y-5.002
X6.3524Y-3.502
X6.3524Y-5.002
X6.4524Y-3.502
X6.4524Y-5.002
X6.5524Y-3.502
X6.5524Y-5.002
X6.6524Y-3.502
X6.6524Y-5.002
X6.7524Y-3.502
X6.7524Y-5.002
X6.8524Y-3.502
X6.8524Y-3.602
X6.8524Y-3.702
X6.8524Y-3.802
X6.8524Y-3.902
X6.8524Y-4.602
X6.8524Y-4.702
X6.8524Y-4.802
X6.8524Y-4.902
X6.8524Y-5.002
T4
X5.4724Y-3.622
X5.4724Y-4.8819
X6.7323Y-3.622
X6.7323Y-4.8819
T2
G00X5.3744Y-4.0819
M15
G01X5.3508Y-4.0819
M16
G05
G00X5.3744Y-4.422
M15
G01X5.3508Y-4.422
M16
G05
G00X5.5488Y-4.0819
M15
G01X5.5055Y-4.0819
M16
G05
G00X5.5488Y-4.422
M15
G01X5.5055Y-4.422
M16
G05
M30
