%TF.GenerationSoftware,KiCad,Pcbnew,8.0.6-8.0.6-0~ubuntu24.04.1*%
%TF.CreationDate,2024-10-23T10:12:53-04:00*%
%TF.ProjectId,ta-expt-v2,74612d65-7870-4742-9d76-322e6b696361,rev?*%
%TF.SameCoordinates,Original*%
%TF.FileFunction,Paste,Top*%
%TF.FilePolarity,Positive*%
%FSLAX46Y46*%
G04 Gerber Fmt 4.6, Leading zero omitted, Abs format (unit mm)*
G04 Created by KiCad (PCBNEW 8.0.6-8.0.6-0~ubuntu24.04.1) date 2024-10-23 10:12:53*
%MOMM*%
%LPD*%
G01*
G04 APERTURE LIST*
G04 Aperture macros list*
%AMRoundRect*
0 Rectangle with rounded corners*
0 $1 Rounding radius*
0 $2 $3 $4 $5 $6 $7 $8 $9 X,Y pos of 4 corners*
0 Add a 4 corners polygon primitive as box body*
4,1,4,$2,$3,$4,$5,$6,$7,$8,$9,$2,$3,0*
0 Add four circle primitives for the rounded corners*
1,1,$1+$1,$2,$3*
1,1,$1+$1,$4,$5*
1,1,$1+$1,$6,$7*
1,1,$1+$1,$8,$9*
0 Add four rect primitives between the rounded corners*
20,1,$1+$1,$2,$3,$4,$5,0*
20,1,$1+$1,$4,$5,$6,$7,0*
20,1,$1+$1,$6,$7,$8,$9,0*
20,1,$1+$1,$8,$9,$2,$3,0*%
G04 Aperture macros list end*
%ADD10R,0.780000X0.990000*%
%ADD11R,1.525000X0.650000*%
%ADD12R,1.000000X0.800000*%
%ADD13R,0.800000X1.000000*%
%ADD14R,0.800000X0.800000*%
%ADD15R,0.990000X0.780000*%
%ADD16R,0.630000X0.480000*%
%ADD17R,2.300000X0.700000*%
%ADD18R,1.150000X0.300000*%
%ADD19R,1.475000X0.300000*%
%ADD20R,0.300000X1.475000*%
%ADD21R,0.750000X0.940000*%
%ADD22R,1.300000X1.100000*%
%ADD23RoundRect,0.150000X-0.150000X0.512500X-0.150000X-0.512500X0.150000X-0.512500X0.150000X0.512500X0*%
%ADD24R,2.300000X6.400000*%
%ADD25R,1.000000X1.800000*%
%ADD26R,1.785000X0.650000*%
%ADD27R,0.900000X1.000000*%
G04 APERTURE END LIST*
D10*
%TO.C,C4*%
X162550000Y-114300000D03*
X163950000Y-114300000D03*
%TD*%
D11*
%TO.C,IC2*%
X154824000Y-97750000D03*
X154824000Y-96480000D03*
X154824000Y-95210000D03*
X154824000Y-93940000D03*
X149400000Y-93940000D03*
X149400000Y-95210000D03*
X149400000Y-96480000D03*
X149400000Y-97750000D03*
%TD*%
D10*
%TO.C,C14*%
X159400000Y-98300000D03*
X158000000Y-98300000D03*
%TD*%
D12*
%TO.C,R6*%
X154700000Y-119250000D03*
X154700000Y-117650000D03*
%TD*%
D13*
%TO.C,R7*%
X169950000Y-97300000D03*
X168350000Y-97300000D03*
%TD*%
D12*
%TO.C,R3*%
X157250000Y-120050000D03*
X157250000Y-118450000D03*
%TD*%
D14*
%TO.C,LED2*%
X148350000Y-123900000D03*
X148350000Y-122400000D03*
%TD*%
D10*
%TO.C,C19*%
X147250000Y-92850000D03*
X145850000Y-92850000D03*
%TD*%
D13*
%TO.C,R4*%
X155800000Y-92000000D03*
X154200000Y-92000000D03*
%TD*%
D15*
%TO.C,C9*%
X165100000Y-101200000D03*
X165100000Y-99800000D03*
%TD*%
D16*
%TO.C,IC1*%
X155545000Y-121350000D03*
X155545000Y-122350000D03*
X157055000Y-121850000D03*
%TD*%
D17*
%TO.C,J5*%
X170575000Y-113000000D03*
X174925000Y-113000000D03*
X170575000Y-111750000D03*
X174925000Y-111750000D03*
X170575000Y-110500000D03*
X174925000Y-110500000D03*
X170575000Y-109250000D03*
X174925000Y-109250000D03*
X170575000Y-108000000D03*
X174925000Y-108000000D03*
X170575000Y-106750000D03*
X174925000Y-106750000D03*
X170575000Y-105500000D03*
X174925000Y-105500000D03*
X170575000Y-104250000D03*
X174925000Y-104250000D03*
X170575000Y-103000000D03*
X174925000Y-103000000D03*
%TD*%
D18*
%TO.C,J3*%
X140955000Y-104650000D03*
X140955000Y-105450000D03*
X140955000Y-106750000D03*
X140955000Y-107750000D03*
X140955000Y-108250000D03*
X140955000Y-109250000D03*
X140955000Y-110550000D03*
X140955000Y-111350000D03*
X140955000Y-111050000D03*
X140955000Y-110250000D03*
X140955000Y-109750000D03*
X140955000Y-108750000D03*
X140955000Y-107250000D03*
X140955000Y-106250000D03*
X140955000Y-105750000D03*
X140955000Y-104950000D03*
%TD*%
D15*
%TO.C,C6*%
X167500000Y-107250000D03*
X167500000Y-108650000D03*
%TD*%
D10*
%TO.C,C10*%
X151150000Y-91550000D03*
X149750000Y-91550000D03*
%TD*%
D15*
%TO.C,C7*%
X166800000Y-101200000D03*
X166800000Y-99800000D03*
%TD*%
D19*
%TO.C,IC3*%
X160738000Y-114000000D03*
X160738000Y-113500000D03*
X160738000Y-113000000D03*
X160738000Y-112500000D03*
X160738000Y-112000000D03*
X160738000Y-111500000D03*
X160738000Y-111000000D03*
X160738000Y-110500000D03*
X160738000Y-110000000D03*
X160738000Y-109500000D03*
X160738000Y-109000000D03*
X160738000Y-108500000D03*
X160738000Y-108000000D03*
X160738000Y-107500000D03*
X160738000Y-107000000D03*
X160738000Y-106500000D03*
X160738000Y-106000000D03*
X160738000Y-105500000D03*
X160738000Y-105000000D03*
X160738000Y-104500000D03*
X160738000Y-104000000D03*
X160738000Y-103500000D03*
X160738000Y-103000000D03*
X160738000Y-102500000D03*
X160738000Y-102000000D03*
D20*
X159000000Y-100262000D03*
X158500000Y-100262000D03*
X158000000Y-100262000D03*
X157500000Y-100262000D03*
X157000000Y-100262000D03*
X156500000Y-100262000D03*
X156000000Y-100262000D03*
X155500000Y-100262000D03*
X155000000Y-100262000D03*
X154500000Y-100262000D03*
X154000000Y-100262000D03*
X153500000Y-100262000D03*
X153000000Y-100262000D03*
X152500000Y-100262000D03*
X152000000Y-100262000D03*
X151500000Y-100262000D03*
X151000000Y-100262000D03*
X150500000Y-100262000D03*
X150000000Y-100262000D03*
X149500000Y-100262000D03*
X149000000Y-100262000D03*
X148500000Y-100262000D03*
X148000000Y-100262000D03*
X147500000Y-100262000D03*
X147000000Y-100262000D03*
D19*
X145262000Y-102000000D03*
X145262000Y-102500000D03*
X145262000Y-103000000D03*
X145262000Y-103500000D03*
X145262000Y-104000000D03*
X145262000Y-104500000D03*
X145262000Y-105000000D03*
X145262000Y-105500000D03*
X145262000Y-106000000D03*
X145262000Y-106500000D03*
X145262000Y-107000000D03*
X145262000Y-107500000D03*
X145262000Y-108000000D03*
X145262000Y-108500000D03*
X145262000Y-109000000D03*
X145262000Y-109500000D03*
X145262000Y-110000000D03*
X145262000Y-110500000D03*
X145262000Y-111000000D03*
X145262000Y-111500000D03*
X145262000Y-112000000D03*
X145262000Y-112500000D03*
X145262000Y-113000000D03*
X145262000Y-113500000D03*
X145262000Y-114000000D03*
D20*
X147000000Y-115738000D03*
X147500000Y-115738000D03*
X148000000Y-115738000D03*
X148500000Y-115738000D03*
X149000000Y-115738000D03*
X149500000Y-115738000D03*
X150000000Y-115738000D03*
X150500000Y-115738000D03*
X151000000Y-115738000D03*
X151500000Y-115738000D03*
X152000000Y-115738000D03*
X152500000Y-115738000D03*
X153000000Y-115738000D03*
X153500000Y-115738000D03*
X154000000Y-115738000D03*
X154500000Y-115738000D03*
X155000000Y-115738000D03*
X155500000Y-115738000D03*
X156000000Y-115738000D03*
X156500000Y-115738000D03*
X157000000Y-115738000D03*
X157500000Y-115738000D03*
X158000000Y-115738000D03*
X158500000Y-115738000D03*
X159000000Y-115738000D03*
%TD*%
D15*
%TO.C,C13*%
X147000000Y-98100000D03*
X147000000Y-96700000D03*
%TD*%
D12*
%TO.C,R9*%
X142900000Y-113900000D03*
X142900000Y-112300000D03*
%TD*%
D21*
%TO.C,C5*%
X168400000Y-99800000D03*
X169800000Y-99800000D03*
%TD*%
D13*
%TO.C,R2*%
X147800000Y-120200000D03*
X149400000Y-120200000D03*
%TD*%
%TO.C,R1*%
X146250000Y-120200000D03*
X144650000Y-120200000D03*
%TD*%
D15*
%TO.C,C18*%
X139350000Y-100100000D03*
X139350000Y-101500000D03*
%TD*%
%TO.C,C16*%
X145200000Y-118700000D03*
X145200000Y-117300000D03*
%TD*%
D14*
%TO.C,LED1*%
X144650000Y-123900000D03*
X144650000Y-122400000D03*
%TD*%
D15*
%TO.C,C12*%
X163400000Y-101200000D03*
X163400000Y-99800000D03*
%TD*%
D10*
%TO.C,C15*%
X164100000Y-109000000D03*
X162700000Y-109000000D03*
%TD*%
D22*
%TO.C,Y1*%
X163100000Y-106575000D03*
X165400000Y-106575000D03*
X165400000Y-104675000D03*
X163100000Y-104675000D03*
%TD*%
D12*
%TO.C,R8*%
X143200000Y-103350000D03*
X143200000Y-104950000D03*
%TD*%
D10*
%TO.C,C8*%
X165450000Y-114300000D03*
X166850000Y-114300000D03*
%TD*%
%TO.C,C2*%
X140000000Y-118800000D03*
X138600000Y-118800000D03*
%TD*%
D23*
%TO.C,U1*%
X144300000Y-95925000D03*
X143350000Y-95925000D03*
X142400000Y-95925000D03*
X142400000Y-98200000D03*
X144300000Y-98200000D03*
%TD*%
D24*
%TO.C,C1*%
X159700000Y-121850000D03*
X164300000Y-121850000D03*
%TD*%
D15*
%TO.C,C3*%
X167500000Y-104650000D03*
X167500000Y-103250000D03*
%TD*%
D10*
%TO.C,C11*%
X161900000Y-117450000D03*
X160500000Y-117450000D03*
%TD*%
%TO.C,C17*%
X168400000Y-95800000D03*
X169800000Y-95800000D03*
%TD*%
D25*
%TO.C,Y2*%
X165875000Y-111650000D03*
X163325000Y-111650000D03*
%TD*%
D26*
%TO.C,IC4*%
X158168000Y-92495000D03*
X158168000Y-93765000D03*
X158168000Y-95035000D03*
X158168000Y-96305000D03*
X165232000Y-96305000D03*
X165232000Y-95035000D03*
X165232000Y-93765000D03*
X165232000Y-92495000D03*
%TD*%
D27*
%TO.C,FB1*%
X138750000Y-116900000D03*
X140350000Y-116900000D03*
%TD*%
D12*
%TO.C,R5*%
X153050000Y-117650000D03*
X153050000Y-119250000D03*
%TD*%
M02*
